STARTFONT 2.1
COMMENT
COMMENT Converted from OpenType font "DejaVuSans-Bold.ttf" by "otf2bdf 3.0".
COMMENT
FONT -FreeType-DejaVu Sans-Bold-R-Normal--21-210-72-72-P-133-ISO10646-1
SIZE 21 72 72
FONTBOUNDINGBOX 63 33 -22 -9
STARTPROPERTIES 19
FOUNDRY "FreeType"
FAMILY_NAME "DejaVu Sans"
WEIGHT_NAME "Bold"
SLANT "R"
SETWIDTH_NAME "Normal"
ADD_STYLE_NAME ""
PIXEL_SIZE 21
POINT_SIZE 210
RESOLUTION_X 72
RESOLUTION_Y 72
SPACING "P"
AVERAGE_WIDTH 133
CHARSET_REGISTRY "ISO10646"
CHARSET_ENCODING "1"
FONT_ASCENT 19
FONT_DESCENT 4
COPYRIGHT "Copyright (c) 2003 by Bitstream, Inc. All Rights Reserved.  Copyright (c) 2006 by Tavmjong Bah. All Rights Reserved.  DejaVu changes are in public domain  "
_OTF_FONTFILE "DejaVuSans-Bold.ttf"
_OTF_PSNAME "DejaVuSans-Bold"
ENDPROPERTIES
CHARS 5366
STARTCHAR 0020
ENCODING 32
SWIDTH 333 0
DWIDTH 7 0
BBX 0 0 0 0
BITMAP
ENDCHAR
STARTCHAR 0021
ENCODING 33
SWIDTH 476 0
DWIDTH 10 0
BBX 4 15 3 0
BITMAP
F0
F0
F0
F0
F0
F0
F0
E0
E0
E0
00
F0
F0
F0
F0
ENDCHAR
STARTCHAR 0022
ENCODING 34
SWIDTH 523 0
DWIDTH 11 0
BBX 7 6 2 9
BITMAP
C6
C6
C6
C6
C6
C6
ENDCHAR
STARTCHAR 0023
ENCODING 35
SWIDTH 857 0
DWIDTH 18 0
BBX 15 15 1 0
BITMAP
0318
0318
0738
0630
3FFE
3FFE
0E70
0C60
0C60
FFFC
FFFC
18C0
18C0
18C0
39C0
ENDCHAR
STARTCHAR 0024
ENCODING 36
SWIDTH 714 0
DWIDTH 15 0
BBX 11 19 2 -3
BITMAP
0C00
0C00
3F80
7FC0
EC40
EC00
EC00
FE00
FFC0
7FE0
1FE0
0DE0
0CE0
8CE0
FFC0
7F80
0C00
0C00
0C00
ENDCHAR
STARTCHAR 0025
ENCODING 37
SWIDTH 1000 0
DWIDTH 21 0
BBX 19 15 1 0
BITMAP
3C0600
FE0C00
E70C00
C71800
C73800
E73000
FE6000
3CE7C0
00CFE0
019CE0
039C60
031C60
061CE0
060FE0
0C0780
ENDCHAR
STARTCHAR 0026
ENCODING 38
SWIDTH 857 0
DWIDTH 18 0
BBX 16 15 1 0
BITMAP
07C0
1FE0
1C20
1C00
1E00
1F00
3F87
7F8F
73CE
F1EE
F0FC
F07C
787C
3FFE
1FCF
ENDCHAR
STARTCHAR 0027
ENCODING 39
SWIDTH 285 0
DWIDTH 6 0
BBX 2 6 2 9
BITMAP
C0
C0
C0
C0
C0
C0
ENDCHAR
STARTCHAR 0028
ENCODING 40
SWIDTH 476 0
DWIDTH 10 0
BBX 6 19 2 -3
BITMAP
1C
38
38
70
70
F0
F0
E0
E0
E0
E0
E0
F0
F0
70
70
38
38
1C
ENDCHAR
STARTCHAR 0029
ENCODING 41
SWIDTH 476 0
DWIDTH 10 0
BBX 6 19 2 -3
BITMAP
E0
F0
70
78
38
38
38
3C
3C
3C
3C
3C
38
38
38
78
70
F0
E0
ENDCHAR
STARTCHAR 002A
ENCODING 42
SWIDTH 523 0
DWIDTH 11 0
BBX 9 10 1 5
BITMAP
0800
0800
8880
EB80
3E00
3E00
EB80
8880
0800
0800
ENDCHAR
STARTCHAR 002B
ENCODING 43
SWIDTH 857 0
DWIDTH 18 0
BBX 13 14 2 0
BITMAP
0300
0300
0300
0300
0300
0300
FFF8
FFF8
0300
0300
0300
0300
0300
0300
ENDCHAR
STARTCHAR 002C
ENCODING 44
SWIDTH 380 0
DWIDTH 8 0
BBX 5 7 1 -3
BITMAP
78
78
78
78
70
60
E0
ENDCHAR
STARTCHAR 002D
ENCODING 45
SWIDTH 428 0
DWIDTH 9 0
BBX 7 3 1 5
BITMAP
FE
FE
FE
ENDCHAR
STARTCHAR 002E
ENCODING 46
SWIDTH 380 0
DWIDTH 8 0
BBX 4 4 2 0
BITMAP
F0
F0
F0
F0
ENDCHAR
STARTCHAR 002F
ENCODING 47
SWIDTH 380 0
DWIDTH 8 0
BBX 8 17 0 -2
BITMAP
07
06
06
0E
0C
0C
1C
18
18
38
30
30
70
60
60
E0
C0
ENDCHAR
STARTCHAR 0030
ENCODING 48
SWIDTH 714 0
DWIDTH 15 0
BBX 13 15 1 0
BITMAP
0F80
3FE0
78E0
70F0
F0F0
F070
F078
F078
F078
F070
F0F0
70F0
78E0
3FE0
0F80
ENDCHAR
STARTCHAR 0031
ENCODING 49
SWIDTH 714 0
DWIDTH 15 0
BBX 11 15 2 0
BITMAP
3F00
FF00
CF00
0F00
0F00
0F00
0F00
0F00
0F00
0F00
0F00
0F00
0F00
FFE0
FFE0
ENDCHAR
STARTCHAR 0032
ENCODING 50
SWIDTH 714 0
DWIDTH 15 0
BBX 11 15 2 0
BITMAP
7F00
FF80
C3C0
83E0
01E0
01E0
03C0
07C0
0F80
1F00
3E00
7C00
F800
FFE0
FFE0
ENDCHAR
STARTCHAR 0033
ENCODING 51
SWIDTH 714 0
DWIDTH 15 0
BBX 12 15 1 0
BITMAP
3F80
7FE0
41E0
00F0
00E0
01E0
1F80
1FE0
01E0
00F0
00F0
00F0
C1E0
FFE0
3F80
ENDCHAR
STARTCHAR 0034
ENCODING 52
SWIDTH 714 0
DWIDTH 15 0
BBX 13 15 1 0
BITMAP
03C0
07C0
0FC0
1DC0
1DC0
39C0
71C0
E1C0
E1C0
FFF8
FFF8
01C0
01C0
01C0
01C0
ENDCHAR
STARTCHAR 0035
ENCODING 53
SWIDTH 714 0
DWIDTH 15 0
BBX 11 15 2 0
BITMAP
FFC0
FFC0
E000
E000
E000
FF00
FFC0
83E0
01E0
01E0
01E0
01E0
83C0
FFC0
7F00
ENDCHAR
STARTCHAR 0036
ENCODING 54
SWIDTH 714 0
DWIDTH 15 0
BBX 12 15 1 0
BITMAP
07C0
1FE0
3C20
7800
7000
77C0
FFE0
F8F0
F870
F870
7870
7870
78F0
3FE0
0F80
ENDCHAR
STARTCHAR 0037
ENCODING 55
SWIDTH 714 0
DWIDTH 15 0
BBX 12 15 1 0
BITMAP
FFF0
FFF0
00F0
01E0
01E0
03C0
03C0
0780
0780
0780
0F00
0F00
1E00
1E00
3C00
ENDCHAR
STARTCHAR 0038
ENCODING 56
SWIDTH 714 0
DWIDTH 15 0
BBX 12 15 1 0
BITMAP
1FC0
7FE0
78F0
70F0
70F0
78E0
3FC0
3FE0
78F0
F0F0
F070
F0F0
78F0
7FE0
1FC0
ENDCHAR
STARTCHAR 0039
ENCODING 57
SWIDTH 714 0
DWIDTH 15 0
BBX 12 15 1 0
BITMAP
1F80
3FC0
79E0
F0F0
F0F0
F0F0
F0F0
79F0
7FF0
1FF0
00F0
00E0
41E0
7FC0
3F00
ENDCHAR
STARTCHAR 003A
ENCODING 58
SWIDTH 380 0
DWIDTH 8 0
BBX 4 11 2 0
BITMAP
F0
F0
F0
F0
00
00
00
F0
F0
F0
F0
ENDCHAR
STARTCHAR 003B
ENCODING 59
SWIDTH 380 0
DWIDTH 8 0
BBX 5 14 1 -3
BITMAP
78
78
78
78
00
00
00
78
78
78
78
70
60
E0
ENDCHAR
STARTCHAR 003C
ENCODING 60
SWIDTH 857 0
DWIDTH 18 0
BBX 13 12 2 1
BITMAP
0008
0078
03F8
0FE0
7F00
F800
F800
7F00
0FE0
03F8
0078
0008
ENDCHAR
STARTCHAR 003D
ENCODING 61
SWIDTH 857 0
DWIDTH 18 0
BBX 13 6 2 3
BITMAP
FFF8
FFF8
0000
0000
FFF8
FFF8
ENDCHAR
STARTCHAR 003E
ENCODING 62
SWIDTH 857 0
DWIDTH 18 0
BBX 13 12 2 1
BITMAP
C000
F000
FE00
1FC0
03F8
0078
0078
03F8
1FC0
FE00
F000
C000
ENDCHAR
STARTCHAR 003F
ENCODING 63
SWIDTH 571 0
DWIDTH 12 0
BBX 10 15 1 0
BITMAP
3F00
FF80
C3C0
03C0
03C0
0780
0F00
1E00
1E00
1C00
0000
1C00
1C00
1C00
1C00
ENDCHAR
STARTCHAR 0040
ENCODING 64
SWIDTH 1000 0
DWIDTH 21 0
BBX 19 18 1 -3
BITMAP
01F800
0FFE00
1E0700
380180
3000C0
61ECC0
63FCC0
471C60
C71C40
C71CC0
471DC0
63FF80
61EE00
300000
380200
1E0E00
0FFE00
01F800
ENDCHAR
STARTCHAR 0041
ENCODING 65
SWIDTH 761 0
DWIDTH 16 0
BBX 16 15 0 0
BITMAP
03E0
07E0
07E0
0FF0
0F70
0E78
1E78
1E38
1C3C
3FFC
3FFC
781E
780E
700F
F00F
ENDCHAR
STARTCHAR 0042
ENCODING 66
SWIDTH 761 0
DWIDTH 16 0
BBX 13 15 2 0
BITMAP
FFC0
FFE0
F1F0
F0F0
F0F0
F1F0
FFE0
FFE0
F0F0
F0F0
F078
F0F0
F0F0
FFF0
FFC0
ENDCHAR
STARTCHAR 0043
ENCODING 67
SWIDTH 714 0
DWIDTH 15 0
BBX 13 15 1 0
BITMAP
07F0
1FF8
3E08
7800
7800
F000
F000
F000
F000
F000
7800
7800
3E08
1FF8
07F0
ENDCHAR
STARTCHAR 0044
ENCODING 68
SWIDTH 809 0
DWIDTH 17 0
BBX 14 15 2 0
BITMAP
FF80
FFE0
F0F8
F078
F03C
F03C
F03C
F03C
F03C
F03C
F03C
F078
F0F8
FFE0
FF80
ENDCHAR
STARTCHAR 0045
ENCODING 69
SWIDTH 666 0
DWIDTH 14 0
BBX 11 15 2 0
BITMAP
FFE0
FFE0
F000
F000
F000
F000
FFC0
FFC0
F000
F000
F000
F000
F000
FFE0
FFE0
ENDCHAR
STARTCHAR 0046
ENCODING 70
SWIDTH 666 0
DWIDTH 14 0
BBX 11 15 2 0
BITMAP
FFE0
FFE0
F000
F000
F000
F000
FFC0
FFC0
F000
F000
F000
F000
F000
F000
F000
ENDCHAR
STARTCHAR 0047
ENCODING 71
SWIDTH 809 0
DWIDTH 17 0
BBX 15 15 1 0
BITMAP
07F8
1FFC
3E04
7800
7800
F000
F07E
F07E
F01E
F01E
781E
781E
3E1E
1FFE
07F8
ENDCHAR
STARTCHAR 0048
ENCODING 72
SWIDTH 857 0
DWIDTH 18 0
BBX 14 15 2 0
BITMAP
F03C
F03C
F03C
F03C
F03C
F03C
FFFC
FFFC
F03C
F03C
F03C
F03C
F03C
F03C
F03C
ENDCHAR
STARTCHAR 0049
ENCODING 73
SWIDTH 380 0
DWIDTH 8 0
BBX 4 15 2 0
BITMAP
F0
F0
F0
F0
F0
F0
F0
F0
F0
F0
F0
F0
F0
F0
F0
ENDCHAR
STARTCHAR 004A
ENCODING 74
SWIDTH 380 0
DWIDTH 8 0
BBX 7 19 -1 -4
BITMAP
1E
1E
1E
1E
1E
1E
1E
1E
1E
1E
1E
1E
1E
1E
1E
1E
3C
FC
F0
ENDCHAR
STARTCHAR 004B
ENCODING 75
SWIDTH 761 0
DWIDTH 16 0
BBX 14 15 2 0
BITMAP
F07C
F0F8
F1F0
F3E0
F780
FF00
FE00
FE00
FF00
FF80
F7C0
F3E0
F1F0
F0F8
F07C
ENDCHAR
STARTCHAR 004C
ENCODING 76
SWIDTH 619 0
DWIDTH 13 0
BBX 11 15 2 0
BITMAP
F000
F000
F000
F000
F000
F000
F000
F000
F000
F000
F000
F000
F000
FFE0
FFE0
ENDCHAR
STARTCHAR 004D
ENCODING 77
SWIDTH 1000 0
DWIDTH 21 0
BBX 17 15 2 0
BITMAP
F80F80
FC1F80
FC1F80
FC3F80
FE3F80
FE3F80
F77780
F77780
F3E780
F3E780
F1C780
F1C780
F00780
F00780
F00780
ENDCHAR
STARTCHAR 004E
ENCODING 78
SWIDTH 857 0
DWIDTH 18 0
BBX 14 15 2 0
BITMAP
F83C
F83C
FC3C
FC3C
FE3C
FE3C
F73C
F73C
F3BC
F3BC
F1FC
F1FC
F0FC
F0FC
F07C
ENDCHAR
STARTCHAR 004F
ENCODING 79
SWIDTH 857 0
DWIDTH 18 0
BBX 16 15 1 0
BITMAP
07E0
1FF8
3C3C
781E
781E
F00F
F00F
F00F
F00F
F00F
781E
781E
3C3C
1FF8
07E0
ENDCHAR
STARTCHAR 0050
ENCODING 80
SWIDTH 714 0
DWIDTH 15 0
BBX 13 15 2 0
BITMAP
FFC0
FFE0
F0F0
F0F0
F0F8
F0F8
F0F0
F0F0
FFE0
FFC0
F000
F000
F000
F000
F000
ENDCHAR
STARTCHAR 0051
ENCODING 81
SWIDTH 857 0
DWIDTH 18 0
BBX 16 18 1 -3
BITMAP
07E0
1FF8
3C3C
781E
781E
F00F
F00F
F00F
F00F
F00F
781E
781E
3C3C
1FF8
07F0
0070
0038
003C
ENDCHAR
STARTCHAR 0052
ENCODING 82
SWIDTH 761 0
DWIDTH 16 0
BBX 13 15 2 0
BITMAP
FF80
FFE0
F1E0
F0F0
F0F0
F0F0
F0F0
F1E0
FFC0
FFC0
F1E0
F0F0
F0F0
F078
F078
ENDCHAR
STARTCHAR 0053
ENCODING 83
SWIDTH 714 0
DWIDTH 15 0
BBX 13 15 1 0
BITMAP
1FE0
3FF0
7870
7010
7000
7800
7F80
3FE0
1FF0
01F8
0078
8070
60F0
7FF0
3FC0
ENDCHAR
STARTCHAR 0054
ENCODING 84
SWIDTH 666 0
DWIDTH 14 0
BBX 14 15 0 0
BITMAP
FFFC
FFFC
0780
0780
0780
0780
0780
0780
0780
0780
0780
0780
0780
0780
0780
ENDCHAR
STARTCHAR 0055
ENCODING 85
SWIDTH 809 0
DWIDTH 17 0
BBX 13 15 2 0
BITMAP
F078
F078
F078
F078
F078
F078
F078
F078
F078
F078
F078
F078
78F0
7FF0
1FC0
ENDCHAR
STARTCHAR 0056
ENCODING 86
SWIDTH 761 0
DWIDTH 16 0
BBX 16 15 0 0
BITMAP
F00F
780F
781E
781E
3C1C
3C3C
1C3C
1E78
1E78
0F78
0FF0
0FF0
07E0
07E0
03E0
ENDCHAR
STARTCHAR 0057
ENCODING 87
SWIDTH 1095 0
DWIDTH 23 0
BBX 21 15 1 0
BITMAP
F07838
F0F878
F0F878
F0F878
78DC70
79DCF0
79DCF0
79CCF0
398EE0
3F8FE0
3F8FE0
3F8FE0
1F07C0
1F07C0
1F07C0
ENDCHAR
STARTCHAR 0058
ENCODING 88
SWIDTH 761 0
DWIDTH 16 0
BBX 14 15 1 0
BITMAP
F03C
787C
7878
3CF0
1FE0
1FE0
0FC0
07C0
0FC0
1FE0
1EF0
3CF0
7878
F83C
F03C
ENDCHAR
STARTCHAR 0059
ENCODING 89
SWIDTH 714 0
DWIDTH 15 0
BBX 15 15 0 0
BITMAP
F01E
783C
7C7C
3C78
1EF0
1FF0
0FE0
07C0
07C0
03C0
03C0
03C0
03C0
03C0
03C0
ENDCHAR
STARTCHAR 005A
ENCODING 90
SWIDTH 714 0
DWIDTH 15 0
BBX 13 15 1 0
BITMAP
FFF8
FFF8
00F8
01F0
03E0
07E0
07C0
0F80
1F00
3F00
7E00
7C00
F800
FFF8
FFF8
ENDCHAR
STARTCHAR 005B
ENCODING 91
SWIDTH 476 0
DWIDTH 10 0
BBX 6 19 2 -3
BITMAP
FC
FC
E0
E0
E0
E0
E0
E0
E0
E0
E0
E0
E0
E0
E0
E0
E0
FC
FC
ENDCHAR
STARTCHAR 005C
ENCODING 92
SWIDTH 380 0
DWIDTH 8 0
BBX 8 17 0 -2
BITMAP
C0
E0
60
60
70
30
30
38
18
18
1C
0C
0C
0E
06
06
07
ENDCHAR
STARTCHAR 005D
ENCODING 93
SWIDTH 476 0
DWIDTH 10 0
BBX 7 19 1 -3
BITMAP
FE
FE
1E
1E
1E
1E
1E
1E
1E
1E
1E
1E
1E
1E
1E
1E
1E
FE
FE
ENDCHAR
STARTCHAR 005E
ENCODING 94
SWIDTH 857 0
DWIDTH 18 0
BBX 12 6 3 9
BITMAP
0F00
1F00
3F80
79C0
F0E0
C070
ENDCHAR
STARTCHAR 005F
ENCODING 95
SWIDTH 523 0
DWIDTH 11 0
BBX 11 2 0 -5
BITMAP
FFE0
FFE0
ENDCHAR
STARTCHAR 0060
ENCODING 96
SWIDTH 523 0
DWIDTH 11 0
BBX 5 4 1 13
BITMAP
E0
70
38
18
ENDCHAR
STARTCHAR 0061
ENCODING 97
SWIDTH 666 0
DWIDTH 14 0
BBX 12 11 1 0
BITMAP
3F80
7FE0
41E0
00E0
3FF0
7FF0
F0F0
F0F0
F1F0
7EF0
3CF0
ENDCHAR
STARTCHAR 0062
ENCODING 98
SWIDTH 714 0
DWIDTH 15 0
BBX 12 16 2 0
BITMAP
E000
E000
E000
E000
E000
E780
EFE0
F1E0
F0F0
F0F0
E0F0
F0F0
F0F0
F1E0
EFE0
E780
ENDCHAR
STARTCHAR 0063
ENCODING 99
SWIDTH 571 0
DWIDTH 12 0
BBX 10 11 1 0
BITMAP
1F80
3FC0
7840
F000
F000
F000
F000
F000
7840
3FC0
1F80
ENDCHAR
STARTCHAR 0064
ENCODING 100
SWIDTH 714 0
DWIDTH 15 0
BBX 12 16 1 0
BITMAP
0070
0070
0070
0070
0070
1E70
7F70
78F0
F0F0
F070
F070
F070
F0F0
78F0
7F70
1E70
ENDCHAR
STARTCHAR 0065
ENCODING 101
SWIDTH 666 0
DWIDTH 14 0
BBX 12 11 1 0
BITMAP
1F80
3FC0
78E0
F0F0
F0F0
FFF0
FFF0
F000
7830
3FF0
1FC0
ENDCHAR
STARTCHAR 0066
ENCODING 102
SWIDTH 428 0
DWIDTH 9 0
BBX 9 16 0 0
BITMAP
0F80
1F80
3C00
3C00
3C00
FF80
FF80
3C00
3C00
3C00
3C00
3C00
3C00
3C00
3C00
3C00
ENDCHAR
STARTCHAR 0067
ENCODING 103
SWIDTH 714 0
DWIDTH 15 0
BBX 12 15 1 -4
BITMAP
1E70
7F70
78F0
F0F0
F070
F070
F070
F0F0
78F0
7F70
1E70
00F0
41F0
7FE0
1F80
ENDCHAR
STARTCHAR 0068
ENCODING 104
SWIDTH 714 0
DWIDTH 15 0
BBX 11 16 2 0
BITMAP
E000
E000
E000
E000
E000
E7C0
EFE0
F1E0
F0E0
E0E0
E0E0
E0E0
E0E0
E0E0
E0E0
E0E0
ENDCHAR
STARTCHAR 0069
ENCODING 105
SWIDTH 333 0
DWIDTH 7 0
BBX 3 16 2 0
BITMAP
E0
E0
E0
E0
00
E0
E0
E0
E0
E0
E0
E0
E0
E0
E0
E0
ENDCHAR
STARTCHAR 006A
ENCODING 106
SWIDTH 333 0
DWIDTH 7 0
BBX 6 20 -1 -4
BITMAP
1C
1C
1C
1C
00
1C
1C
1C
1C
1C
1C
1C
1C
1C
1C
1C
1C
3C
FC
F8
ENDCHAR
STARTCHAR 006B
ENCODING 107
SWIDTH 666 0
DWIDTH 14 0
BBX 12 16 2 0
BITMAP
E000
E000
E000
E000
E000
E1E0
E3C0
E780
EF00
FE00
FE00
EF00
E780
E7C0
E3E0
E1F0
ENDCHAR
STARTCHAR 006C
ENCODING 108
SWIDTH 333 0
DWIDTH 7 0
BBX 3 16 2 0
BITMAP
E0
E0
E0
E0
E0
E0
E0
E0
E0
E0
E0
E0
E0
E0
E0
E0
ENDCHAR
STARTCHAR 006D
ENCODING 109
SWIDTH 1047 0
DWIDTH 22 0
BBX 18 11 2 0
BITMAP
E78F00
EFDFC0
F1F3C0
F1E3C0
E1E1C0
E1E1C0
E1E1C0
E1E1C0
E1E1C0
E1E1C0
E1E1C0
ENDCHAR
STARTCHAR 006E
ENCODING 110
SWIDTH 714 0
DWIDTH 15 0
BBX 11 11 2 0
BITMAP
E7C0
EFE0
F1E0
F0E0
E0E0
E0E0
E0E0
E0E0
E0E0
E0E0
E0E0
ENDCHAR
STARTCHAR 006F
ENCODING 111
SWIDTH 666 0
DWIDTH 14 0
BBX 13 11 1 0
BITMAP
1F80
3FE0
78F0
F0F0
F070
F078
F070
F0F0
78F0
3FE0
1F80
ENDCHAR
STARTCHAR 0070
ENCODING 112
SWIDTH 714 0
DWIDTH 15 0
BBX 12 15 2 -4
BITMAP
E780
EFE0
F1E0
F0F0
F0F0
E0F0
F0F0
F0F0
F1E0
EFE0
E780
E000
E000
E000
E000
ENDCHAR
STARTCHAR 0071
ENCODING 113
SWIDTH 714 0
DWIDTH 15 0
BBX 12 15 1 -4
BITMAP
1E70
7F70
78F0
F0F0
F070
F070
F070
F0F0
78F0
7F70
1E70
0070
0070
0070
0070
ENDCHAR
STARTCHAR 0072
ENCODING 114
SWIDTH 476 0
DWIDTH 10 0
BBX 8 11 2 0
BITMAP
E7
EF
F8
F0
E0
E0
E0
E0
E0
E0
E0
ENDCHAR
STARTCHAR 0073
ENCODING 115
SWIDTH 619 0
DWIDTH 13 0
BBX 10 11 1 0
BITMAP
3F00
7FC0
F0C0
E000
FF00
7FC0
1FC0
01C0
C1C0
FFC0
3F00
ENDCHAR
STARTCHAR 0074
ENCODING 116
SWIDTH 476 0
DWIDTH 10 0
BBX 10 15 0 0
BITMAP
3C00
3C00
3C00
3C00
FFC0
FFC0
3C00
3C00
3C00
3C00
3C00
3C00
3C00
3F80
1F80
ENDCHAR
STARTCHAR 0075
ENCODING 117
SWIDTH 714 0
DWIDTH 15 0
BBX 11 11 2 0
BITMAP
E0E0
E0E0
E0E0
E0E0
E0E0
E0E0
E1E0
E1E0
F1E0
FEE0
7CE0
ENDCHAR
STARTCHAR 0076
ENCODING 118
SWIDTH 666 0
DWIDTH 14 0
BBX 12 11 1 0
BITMAP
E070
F0F0
F0E0
71E0
79E0
39C0
3BC0
3F80
1F80
1F00
0F00
ENDCHAR
STARTCHAR 0077
ENCODING 119
SWIDTH 904 0
DWIDTH 19 0
BBX 18 11 1 0
BITMAP
E1C3C0
F1E380
F1E780
73E780
736700
7B7700
3B7F00
3F3F00
3E3E00
3E3E00
1E1E00
ENDCHAR
STARTCHAR 0078
ENCODING 120
SWIDTH 666 0
DWIDTH 14 0
BBX 12 11 1 0
BITMAP
F0F0
71E0
7BC0
3F80
1F80
0F00
1F80
3FC0
7BC0
F1E0
F0F0
ENDCHAR
STARTCHAR 0079
ENCODING 121
SWIDTH 666 0
DWIDTH 14 0
BBX 13 15 0 -4
BITMAP
F078
7878
7870
38F0
3CF0
1CE0
1FE0
0FC0
0FC0
0780
0780
0780
0700
3F00
3E00
ENDCHAR
STARTCHAR 007A
ENCODING 122
SWIDTH 571 0
DWIDTH 12 0
BBX 10 11 1 0
BITMAP
FFC0
FFC0
03C0
0780
0F00
1E00
3E00
7C00
F800
FFC0
FFC0
ENDCHAR
STARTCHAR 007B
ENCODING 123
SWIDTH 714 0
DWIDTH 15 0
BBX 9 19 3 -3
BITMAP
0F80
1F80
1E00
1C00
1C00
1C00
1C00
3C00
F800
F800
3C00
1C00
1C00
1C00
1C00
1C00
1E00
1F80
0F80
ENDCHAR
STARTCHAR 007C
ENCODING 124
SWIDTH 380 0
DWIDTH 8 0
BBX 2 21 3 -5
BITMAP
C0
C0
C0
C0
C0
C0
C0
C0
C0
C0
C0
C0
C0
C0
C0
C0
C0
C0
C0
C0
C0
ENDCHAR
STARTCHAR 007D
ENCODING 125
SWIDTH 714 0
DWIDTH 15 0
BBX 9 19 3 -3
BITMAP
F800
FC00
3C00
1C00
1C00
1C00
1C00
1E00
0F80
0F80
1E00
1C00
1C00
1C00
1C00
1C00
3C00
FC00
F800
ENDCHAR
STARTCHAR 007E
ENCODING 126
SWIDTH 857 0
DWIDTH 18 0
BBX 13 3 2 4
BITMAP
3E08
FFF8
C1F0
ENDCHAR
STARTCHAR 00A0
ENCODING 160
SWIDTH 333 0
DWIDTH 7 0
BBX 0 0 0 0
BITMAP
ENDCHAR
STARTCHAR 00A1
ENCODING 161
SWIDTH 476 0
DWIDTH 10 0
BBX 4 15 3 -4
BITMAP
F0
F0
F0
F0
00
E0
E0
E0
F0
F0
F0
F0
F0
F0
F0
ENDCHAR
STARTCHAR 00A2
ENCODING 162
SWIDTH 714 0
DWIDTH 15 0
BBX 10 17 2 -3
BITMAP
0600
0600
0600
1F80
7FC0
7E40
F600
F600
F600
F600
F600
7E40
3FC0
1F80
0600
0600
0600
ENDCHAR
STARTCHAR 00A3
ENCODING 163
SWIDTH 714 0
DWIDTH 15 0
BBX 12 15 1 0
BITMAP
07E0
0FF0
1E10
1C00
1C00
1C00
7FC0
7FC0
1C00
1C00
1C00
1C00
1C00
FFF0
FFF0
ENDCHAR
STARTCHAR 00A4
ENCODING 164
SWIDTH 619 0
DWIDTH 13 0
BBX 11 13 1 0
BITMAP
4040
E060
EFE0
7FC0
31C0
70C0
60C0
70C0
31C0
7FC0
EFE0
E060
4000
ENDCHAR
STARTCHAR 00A5
ENCODING 165
SWIDTH 714 0
DWIDTH 15 0
BBX 13 15 1 0
BITMAP
F078
F0F0
78F0
3DE0
3FC0
FFF8
FFF8
0F80
0F00
FFF8
FFF8
0F00
0F00
0F00
0F00
ENDCHAR
STARTCHAR 00A6
ENCODING 166
SWIDTH 380 0
DWIDTH 8 0
BBX 2 19 3 -4
BITMAP
C0
C0
C0
C0
C0
C0
C0
C0
00
00
00
C0
C0
C0
C0
C0
C0
C0
C0
ENDCHAR
STARTCHAR 00A7
ENCODING 167
SWIDTH 523 0
DWIDTH 11 0
BBX 10 17 0 -2
BITMAP
1F80
7F80
7080
7800
7C00
3F00
7FC0
E3C0
E0C0
F1C0
7FC0
3F00
0F80
03C0
63C0
7F80
3F00
ENDCHAR
STARTCHAR 00A8
ENCODING 168
SWIDTH 523 0
DWIDTH 11 0
BBX 6 3 2 13
BITMAP
CC
CC
CC
ENDCHAR
STARTCHAR 00A9
ENCODING 169
SWIDTH 1000 0
DWIDTH 21 0
BBX 15 15 3 0
BITMAP
07C0
1FF0
3838
63EC
4E24
CC06
DC06
9C02
DC06
CC06
4E24
63EC
3838
1FF0
07C0
ENDCHAR
STARTCHAR 00AA
ENCODING 170
SWIDTH 571 0
DWIDTH 12 0
BBX 8 11 2 4
BITMAP
7E
FF
07
7F
C7
C7
FF
7B
00
FF
FF
ENDCHAR
STARTCHAR 00AB
ENCODING 171
SWIDTH 666 0
DWIDTH 14 0
BBX 10 10 2 1
BITMAP
0840
18C0
3BC0
F700
C600
C600
F700
3BC0
18C0
0840
ENDCHAR
STARTCHAR 00AC
ENCODING 172
SWIDTH 857 0
DWIDTH 18 0
BBX 13 6 2 3
BITMAP
FFF8
FFF8
0018
0018
0018
0018
ENDCHAR
STARTCHAR 00AD
ENCODING 173
SWIDTH 428 0
DWIDTH 9 0
BBX 7 3 1 5
BITMAP
FE
FE
FE
ENDCHAR
STARTCHAR 00AE
ENCODING 174
SWIDTH 1000 0
DWIDTH 21 0
BBX 15 15 3 0
BITMAP
07C0
1FF0
3838
6FCC
4EE4
CE66
CEE6
8FC2
CFC6
CEC6
4EE4
6E6C
3838
1FF0
07C0
ENDCHAR
STARTCHAR 00AF
ENCODING 175
SWIDTH 523 0
DWIDTH 11 0
BBX 6 2 2 14
BITMAP
FC
FC
ENDCHAR
STARTCHAR 00B0
ENCODING 176
SWIDTH 523 0
DWIDTH 11 0
BBX 7 7 2 9
BITMAP
78
FC
C6
86
C6
FC
78
ENDCHAR
STARTCHAR 00B1
ENCODING 177
SWIDTH 857 0
DWIDTH 18 0
BBX 13 14 2 0
BITMAP
0300
0300
0300
0300
FFF8
FFF8
0300
0300
0300
0300
0000
0000
FFF8
FFF8
ENDCHAR
STARTCHAR 00B2
ENCODING 178
SWIDTH 428 0
DWIDTH 9 0
BBX 7 9 1 6
BITMAP
7C
FE
8E
0E
0C
38
70
FE
FE
ENDCHAR
STARTCHAR 00B3
ENCODING 179
SWIDTH 428 0
DWIDTH 9 0
BBX 7 9 1 6
BITMAP
FC
FE
8E
0E
38
0E
8E
FE
FC
ENDCHAR
STARTCHAR 00B4
ENCODING 180
SWIDTH 523 0
DWIDTH 11 0
BBX 5 4 4 13
BITMAP
38
30
60
C0
ENDCHAR
STARTCHAR 00B5
ENCODING 181
SWIDTH 714 0
DWIDTH 15 0
BBX 13 15 2 -4
BITMAP
E0E0
E0E0
E0E0
E0E0
E0E0
E0E0
E0E0
F0E0
F1E0
FFF8
EF78
E000
E000
E000
E000
ENDCHAR
STARTCHAR 00B6
ENCODING 182
SWIDTH 619 0
DWIDTH 13 0
BBX 11 17 1 -2
BITMAP
1FE0
7FE0
7E60
FE60
FE60
FE60
7E60
7E60
1E60
0660
0660
0660
0660
0660
0660
0660
0660
ENDCHAR
STARTCHAR 00B7
ENCODING 183
SWIDTH 380 0
DWIDTH 8 0
BBX 4 4 2 5
BITMAP
F0
F0
F0
F0
ENDCHAR
STARTCHAR 00B8
ENCODING 184
SWIDTH 523 0
DWIDTH 11 0
BBX 4 4 3 -4
BITMAP
30
10
F0
F0
ENDCHAR
STARTCHAR 00B9
ENCODING 185
SWIDTH 428 0
DWIDTH 9 0
BBX 7 9 1 6
BITMAP
78
F8
D8
18
18
18
18
FE
FE
ENDCHAR
STARTCHAR 00BA
ENCODING 186
SWIDTH 571 0
DWIDTH 12 0
BBX 10 11 1 4
BITMAP
3E00
7F80
F380
E1C0
E1C0
F380
7F80
3E00
0000
7F80
7F80
ENDCHAR
STARTCHAR 00BB
ENCODING 187
SWIDTH 666 0
DWIDTH 14 0
BBX 10 10 2 1
BITMAP
8400
C600
E700
7380
39C0
39C0
7380
E700
C600
8400
ENDCHAR
STARTCHAR 00BC
ENCODING 188
SWIDTH 1047 0
DWIDTH 22 0
BBX 19 15 1 0
BITMAP
780700
F80600
F80C00
380C00
381800
383800
383000
FE63C0
FEE3C0
00C7C0
018DC0
0389C0
031FE0
0601C0
0601C0
ENDCHAR
STARTCHAR 00BD
ENCODING 189
SWIDTH 1047 0
DWIDTH 22 0
BBX 20 16 1 -1
BITMAP
780700
F80600
F80C00
380C00
381800
383800
383000
FE67C0
FEE7E0
00C470
018070
0380E0
0301C0
060380
0607F0
0007F0
ENDCHAR
STARTCHAR 00BE
ENCODING 190
SWIDTH 1047 0
DWIDTH 22 0
BBX 19 15 1 0
BITMAP
FC0700
FE0600
8E0C00
0E0C00
381800
063800
863000
FE63C0
FCE3C0
00C7C0
018DC0
0389C0
031FE0
0601C0
0601C0
ENDCHAR
STARTCHAR 00BF
ENCODING 191
SWIDTH 571 0
DWIDTH 12 0
BBX 10 15 1 -4
BITMAP
0F00
0F00
0F00
0F00
0000
0F00
0F00
1E00
3C00
7800
7000
F000
7840
7FC0
1F00
ENDCHAR
STARTCHAR 00C0
ENCODING 192
SWIDTH 761 0
DWIDTH 16 0
BBX 16 20 0 0
BITMAP
0700
0300
0180
0000
0000
03E0
07E0
07E0
0FF0
0F70
0E78
1E78
1E38
1C3C
3FFC
3FFC
781E
780E
700F
F00F
ENDCHAR
STARTCHAR 00C1
ENCODING 193
SWIDTH 761 0
DWIDTH 16 0
BBX 16 20 0 0
BITMAP
00E0
01C0
0180
0000
0000
03E0
07E0
07E0
0FF0
0F70
0E78
1E78
1E38
1C3C
3FFC
3FFC
781E
780E
700F
F00F
ENDCHAR
STARTCHAR 00C2
ENCODING 194
SWIDTH 761 0
DWIDTH 16 0
BBX 16 20 0 0
BITMAP
03C0
07E0
0630
0000
0000
03E0
07E0
07E0
0FF0
0F70
0E78
1E78
1E38
1C3C
3FFC
3FFC
781E
780E
700F
F00F
ENDCHAR
STARTCHAR 00C3
ENCODING 195
SWIDTH 761 0
DWIDTH 16 0
BBX 16 20 0 0
BITMAP
0730
07F0
04E0
0000
0000
03E0
07E0
07E0
0FF0
0F70
0E78
1E78
1E38
1C3C
3FFC
3FFC
781E
780E
700F
F00F
ENDCHAR
STARTCHAR 00C4
ENCODING 196
SWIDTH 761 0
DWIDTH 16 0
BBX 16 20 0 0
BITMAP
0660
0660
0660
0000
0000
03E0
07E0
07E0
0FF0
0F70
0E78
1E78
1E38
1C3C
3FFC
3FFC
781E
780E
700F
F00F
ENDCHAR
STARTCHAR 00C5
ENCODING 197
SWIDTH 761 0
DWIDTH 16 0
BBX 16 20 0 0
BITMAP
01C0
03E0
0660
0660
0660
03E0
07E0
07E0
0FF0
0F70
0E78
1E78
1E38
1C3C
3FFC
3FFC
781E
780E
700F
F00F
ENDCHAR
STARTCHAR 00C6
ENCODING 198
SWIDTH 1095 0
DWIDTH 23 0
BBX 21 15 0 0
BITMAP
03FFF8
03FFF8
07BC00
07BC00
0F3C00
0F3C00
0E3FF8
1E3FF8
1E3C00
3FFC00
3FFC00
783C00
783C00
703FF8
F03FF8
ENDCHAR
STARTCHAR 00C7
ENCODING 199
SWIDTH 714 0
DWIDTH 15 0
BBX 13 19 1 -4
BITMAP
07F0
1FF8
3E08
7800
7800
F000
F000
F000
F000
F000
7800
7800
3E08
1FF8
07F0
0080
00C0
07C0
07C0
ENDCHAR
STARTCHAR 00C8
ENCODING 200
SWIDTH 666 0
DWIDTH 14 0
BBX 11 20 2 0
BITMAP
3800
1C00
0C00
0000
0000
FFE0
FFE0
F000
F000
F000
F000
FFC0
FFC0
F000
F000
F000
F000
F000
FFE0
FFE0
ENDCHAR
STARTCHAR 00C9
ENCODING 201
SWIDTH 666 0
DWIDTH 14 0
BBX 11 20 2 0
BITMAP
0700
0600
0C00
0000
0000
FFE0
FFE0
F000
F000
F000
F000
FFC0
FFC0
F000
F000
F000
F000
F000
FFE0
FFE0
ENDCHAR
STARTCHAR 00CA
ENCODING 202
SWIDTH 666 0
DWIDTH 14 0
BBX 11 20 2 0
BITMAP
1E00
3F00
3180
0000
0000
FFE0
FFE0
F000
F000
F000
F000
FFC0
FFC0
F000
F000
F000
F000
F000
FFE0
FFE0
ENDCHAR
STARTCHAR 00CB
ENCODING 203
SWIDTH 666 0
DWIDTH 14 0
BBX 11 20 2 0
BITMAP
3300
3300
3300
0000
0000
FFE0
FFE0
F000
F000
F000
F000
FFC0
FFC0
F000
F000
F000
F000
F000
FFE0
FFE0
ENDCHAR
STARTCHAR 00CC
ENCODING 204
SWIDTH 380 0
DWIDTH 8 0
BBX 5 20 1 0
BITMAP
C0
60
30
00
00
78
78
78
78
78
78
78
78
78
78
78
78
78
78
78
ENDCHAR
STARTCHAR 00CD
ENCODING 205
SWIDTH 380 0
DWIDTH 8 0
BBX 5 20 2 0
BITMAP
38
70
E0
00
00
F0
F0
F0
F0
F0
F0
F0
F0
F0
F0
F0
F0
F0
F0
F0
ENDCHAR
STARTCHAR 00CE
ENCODING 206
SWIDTH 380 0
DWIDTH 8 0
BBX 7 20 0 0
BITMAP
3C
7E
C6
00
00
3C
3C
3C
3C
3C
3C
3C
3C
3C
3C
3C
3C
3C
3C
3C
ENDCHAR
STARTCHAR 00CF
ENCODING 207
SWIDTH 380 0
DWIDTH 8 0
BBX 6 20 1 0
BITMAP
CC
CC
CC
00
00
78
78
78
78
78
78
78
78
78
78
78
78
78
78
78
ENDCHAR
STARTCHAR 00D0
ENCODING 208
SWIDTH 857 0
DWIDTH 18 0
BBX 17 15 0 0
BITMAP
3FF000
3FFC00
3C3E00
3C1F00
3C0F00
3C0F00
3C0F00
FF0F80
FF0F00
3C0F00
3C0F00
3C1F00
3C3E00
3FFC00
3FE000
ENDCHAR
STARTCHAR 00D1
ENCODING 209
SWIDTH 857 0
DWIDTH 18 0
BBX 14 20 2 0
BITMAP
0EC0
1FC0
1380
0000
0000
F83C
F83C
FC3C
FC3C
FE3C
FE3C
F73C
F73C
F3BC
F3BC
F1FC
F1FC
F0FC
F0FC
F07C
ENDCHAR
STARTCHAR 00D2
ENCODING 210
SWIDTH 857 0
DWIDTH 18 0
BBX 16 20 1 0
BITMAP
0600
0300
0180
0000
0000
07E0
1FF8
3C3C
781E
781E
F00F
F00F
F00F
F00F
F00F
781E
781E
3C3C
1FF8
07E0
ENDCHAR
STARTCHAR 00D3
ENCODING 211
SWIDTH 857 0
DWIDTH 18 0
BBX 16 20 1 0
BITMAP
00E0
01C0
0180
0000
0000
07E0
1FF8
3C3C
781E
781E
F00F
F00F
F00F
F00F
F00F
781E
781E
3C3C
1FF8
07E0
ENDCHAR
STARTCHAR 00D4
ENCODING 212
SWIDTH 857 0
DWIDTH 18 0
BBX 16 20 1 0
BITMAP
03C0
06C0
0C60
0000
0000
07E0
1FF8
3C3C
781E
781E
F00F
F00F
F00F
F00F
F00F
781E
781E
3C3C
1FF8
07E0
ENDCHAR
STARTCHAR 00D5
ENCODING 213
SWIDTH 857 0
DWIDTH 18 0
BBX 16 20 1 0
BITMAP
0720
07E0
0CE0
0000
0000
07E0
1FF8
3C3C
781E
781E
F00F
F00F
F00F
F00F
F00F
781E
781E
3C3C
1FF8
07E0
ENDCHAR
STARTCHAR 00D6
ENCODING 214
SWIDTH 857 0
DWIDTH 18 0
BBX 16 20 1 0
BITMAP
0660
0660
0660
0000
0000
07E0
1FF8
3C3C
781E
781E
F00F
F00F
F00F
F00F
F00F
781E
781E
3C3C
1FF8
07E0
ENDCHAR
STARTCHAR 00D7
ENCODING 215
SWIDTH 857 0
DWIDTH 18 0
BBX 12 12 3 1
BITMAP
4020
E070
F0E0
79C0
1F80
0F00
0F00
1F80
39C0
F0E0
E070
4020
ENDCHAR
STARTCHAR 00D8
ENCODING 216
SWIDTH 857 0
DWIDTH 18 0
BBX 16 15 1 0
BITMAP
07F3
1FFE
3C3E
783E
787E
F06F
F0CF
F18F
F30F
F60F
FC1E
781E
7C3C
7FF8
CFE0
ENDCHAR
STARTCHAR 00D9
ENCODING 217
SWIDTH 809 0
DWIDTH 17 0
BBX 13 20 2 0
BITMAP
1C00
0E00
0600
0000
0000
F078
F078
F078
F078
F078
F078
F078
F078
F078
F078
F078
F078
78F0
7FF0
1FC0
ENDCHAR
STARTCHAR 00DA
ENCODING 218
SWIDTH 809 0
DWIDTH 17 0
BBX 13 20 2 0
BITMAP
0380
0300
0600
0000
0000
F078
F078
F078
F078
F078
F078
F078
F078
F078
F078
F078
F078
78F0
7FF0
1FC0
ENDCHAR
STARTCHAR 00DB
ENCODING 219
SWIDTH 809 0
DWIDTH 17 0
BBX 13 20 2 0
BITMAP
0700
0D80
18C0
0000
0000
F078
F078
F078
F078
F078
F078
F078
F078
F078
F078
F078
F078
78F0
7FF0
1FC0
ENDCHAR
STARTCHAR 00DC
ENCODING 220
SWIDTH 809 0
DWIDTH 17 0
BBX 13 20 2 0
BITMAP
1DC0
1DC0
1DC0
0000
0000
F078
F078
F078
F078
F078
F078
F078
F078
F078
F078
F078
F078
78F0
7FF0
1FC0
ENDCHAR
STARTCHAR 00DD
ENCODING 221
SWIDTH 714 0
DWIDTH 15 0
BBX 15 20 0 0
BITMAP
00C0
0180
0300
0000
0000
F01E
783C
7C7C
3C78
1EF0
1FF0
0FE0
07C0
07C0
03C0
03C0
03C0
03C0
03C0
03C0
ENDCHAR
STARTCHAR 00DE
ENCODING 222
SWIDTH 761 0
DWIDTH 16 0
BBX 13 15 2 0
BITMAP
F000
F000
FFC0
FFE0
F0F0
F0F0
F0F8
F0F8
F0F0
F0F0
FFE0
FFC0
F000
F000
F000
ENDCHAR
STARTCHAR 00DF
ENCODING 223
SWIDTH 714 0
DWIDTH 15 0
BBX 12 16 2 0
BITMAP
3F00
7FC0
F1C0
F1E0
E3E0
E700
E700
E700
E7C0
E3E0
E1F0
E0F0
E070
E8F0
E7F0
E3C0
ENDCHAR
STARTCHAR 00E0
ENCODING 224
SWIDTH 666 0
DWIDTH 14 0
BBX 12 17 1 0
BITMAP
3800
1C00
0E00
0600
0000
0000
3F80
7FE0
41E0
00E0
3FF0
7FF0
F0F0
F0F0
F1F0
7EF0
3CF0
ENDCHAR
STARTCHAR 00E1
ENCODING 225
SWIDTH 666 0
DWIDTH 14 0
BBX 12 17 1 0
BITMAP
01C0
0380
0300
0600
0000
0000
3F80
7FE0
41E0
00E0
3FF0
7FF0
F0F0
F0F0
F1F0
7EF0
3CF0
ENDCHAR
STARTCHAR 00E2
ENCODING 226
SWIDTH 666 0
DWIDTH 14 0
BBX 12 17 1 0
BITMAP
0700
0F00
1980
18C0
0000
0000
3F80
7FE0
41E0
00E0
3FF0
7FF0
F0F0
F0F0
F1F0
7EF0
3CF0
ENDCHAR
STARTCHAR 00E3
ENCODING 227
SWIDTH 666 0
DWIDTH 14 0
BBX 12 17 1 0
BITMAP
1CC0
1EC0
1380
1180
0000
0000
3F80
7FE0
41E0
00E0
3FF0
7FF0
F0F0
F0F0
F1F0
7EF0
3CF0
ENDCHAR
STARTCHAR 00E4
ENCODING 228
SWIDTH 666 0
DWIDTH 14 0
BBX 12 16 1 0
BITMAP
1980
1980
1980
0000
0000
3F80
7FE0
41E0
00E0
3FF0
7FF0
F0F0
F0F0
F1F0
7EF0
3CF0
ENDCHAR
STARTCHAR 00E5
ENCODING 229
SWIDTH 666 0
DWIDTH 14 0
BBX 12 19 1 0
BITMAP
0700
0F80
1980
1980
0F80
0700
0000
0000
3F80
7FE0
41E0
00E0
3FF0
7FF0
F0F0
F0F0
F1F0
7EF0
3CF0
ENDCHAR
STARTCHAR 00E6
ENCODING 230
SWIDTH 1047 0
DWIDTH 22 0
BBX 20 11 1 0
BITMAP
3F0F80
7FBFC0
41F9E0
00F0F0
3FF0F0
7FFFF0
F0FFF0
F0F000
F1F020
FF7FE0
3E1FC0
ENDCHAR
STARTCHAR 00E7
ENCODING 231
SWIDTH 571 0
DWIDTH 12 0
BBX 10 15 1 -4
BITMAP
1F80
3FC0
7840
F000
F000
F000
F000
F000
7840
3FC0
1F80
0300
0100
0F00
0F00
ENDCHAR
STARTCHAR 00E8
ENCODING 232
SWIDTH 666 0
DWIDTH 14 0
BBX 12 17 1 0
BITMAP
1800
0C00
0600
0700
0000
0000
1F80
3FC0
78E0
F0F0
F0F0
FFF0
FFF0
F000
7830
3FF0
1FC0
ENDCHAR
STARTCHAR 00E9
ENCODING 233
SWIDTH 666 0
DWIDTH 14 0
BBX 12 17 1 0
BITMAP
01C0
0180
0300
0600
0000
0000
1F80
3FC0
78E0
F0F0
F0F0
FFF0
FFF0
F000
7830
3FF0
1FC0
ENDCHAR
STARTCHAR 00EA
ENCODING 234
SWIDTH 666 0
DWIDTH 14 0
BBX 12 17 1 0
BITMAP
0700
0F80
0D80
18C0
0000
0000
1F80
3FC0
78E0
F0F0
F0F0
FFF0
FFF0
F000
7830
3FF0
1FC0
ENDCHAR
STARTCHAR 00EB
ENCODING 235
SWIDTH 666 0
DWIDTH 14 0
BBX 12 16 1 0
BITMAP
1DC0
1DC0
1DC0
0000
0000
1F80
3FC0
78E0
F0F0
F0F0
FFF0
FFF0
F000
7830
3FF0
1FC0
ENDCHAR
STARTCHAR 00EC
ENCODING 236
SWIDTH 333 0
DWIDTH 7 0
BBX 5 17 0 0
BITMAP
E0
70
30
18
00
00
38
38
38
38
38
38
38
38
38
38
38
ENDCHAR
STARTCHAR 00ED
ENCODING 237
SWIDTH 333 0
DWIDTH 7 0
BBX 6 17 2 0
BITMAP
1C
38
70
60
00
00
E0
E0
E0
E0
E0
E0
E0
E0
E0
E0
E0
ENDCHAR
STARTCHAR 00EE
ENCODING 238
SWIDTH 333 0
DWIDTH 7 0
BBX 7 17 0 0
BITMAP
38
7C
6C
C6
00
00
38
38
38
38
38
38
38
38
38
38
38
ENDCHAR
STARTCHAR 00EF
ENCODING 239
SWIDTH 333 0
DWIDTH 7 0
BBX 7 16 0 0
BITMAP
EE
EE
EE
00
00
38
38
38
38
38
38
38
38
38
38
38
ENDCHAR
STARTCHAR 00F0
ENCODING 240
SWIDTH 666 0
DWIDTH 14 0
BBX 13 16 1 0
BITMAP
1E60
0FE0
1F00
7380
01C0
1FE0
7FF0
78F0
F070
F078
F078
F070
F0F0
78F0
3FE0
1F80
ENDCHAR
STARTCHAR 00F1
ENCODING 241
SWIDTH 714 0
DWIDTH 15 0
BBX 11 17 2 0
BITMAP
1880
1C80
3780
3300
0000
0000
E7C0
EFE0
F1E0
F0E0
E0E0
E0E0
E0E0
E0E0
E0E0
E0E0
E0E0
ENDCHAR
STARTCHAR 00F2
ENCODING 242
SWIDTH 666 0
DWIDTH 14 0
BBX 13 17 1 0
BITMAP
1800
0C00
0600
0700
0000
0000
1F80
3FE0
78F0
F0F0
F070
F078
F070
F0F0
78F0
3FE0
1F80
ENDCHAR
STARTCHAR 00F3
ENCODING 243
SWIDTH 666 0
DWIDTH 14 0
BBX 13 17 1 0
BITMAP
01C0
0180
0300
0600
0000
0000
1F80
3FE0
78F0
F0F0
F070
F078
F070
F0F0
78F0
3FE0
1F80
ENDCHAR
STARTCHAR 00F4
ENCODING 244
SWIDTH 666 0
DWIDTH 14 0
BBX 13 17 1 0
BITMAP
0700
0F00
1980
18C0
0000
0000
1F80
3FE0
78F0
F0F0
F070
F078
F070
F0F0
78F0
3FE0
1F80
ENDCHAR
STARTCHAR 00F5
ENCODING 245
SWIDTH 666 0
DWIDTH 14 0
BBX 13 17 1 0
BITMAP
0CC0
1EC0
1380
1180
0000
0000
1F80
3FE0
78F0
F0F0
F070
F078
F070
F0F0
78F0
3FE0
1F80
ENDCHAR
STARTCHAR 00F6
ENCODING 246
SWIDTH 666 0
DWIDTH 14 0
BBX 13 16 1 0
BITMAP
1980
1980
1980
0000
0000
1F80
3FE0
78F0
F0F0
F070
F078
F070
F0F0
78F0
3FE0
1F80
ENDCHAR
STARTCHAR 00F7
ENCODING 247
SWIDTH 857 0
DWIDTH 18 0
BBX 13 10 2 2
BITMAP
0700
0700
0700
0000
FFF8
FFF8
0000
0700
0700
0700
ENDCHAR
STARTCHAR 00F8
ENCODING 248
SWIDTH 666 0
DWIDTH 14 0
BBX 13 12 1 -1
BITMAP
0010
1FB0
3FE0
78F0
F1F0
F370
F678
FC70
F8F0
78F0
7FE0
DF80
ENDCHAR
STARTCHAR 00F9
ENCODING 249
SWIDTH 714 0
DWIDTH 15 0
BBX 11 17 2 0
BITMAP
3800
1800
0C00
0600
0000
0000
E0E0
E0E0
E0E0
E0E0
E0E0
E0E0
E1E0
E1E0
F1E0
FEE0
7CE0
ENDCHAR
STARTCHAR 00FA
ENCODING 250
SWIDTH 714 0
DWIDTH 15 0
BBX 11 17 2 0
BITMAP
01C0
0380
0700
0600
0000
0000
E0E0
E0E0
E0E0
E0E0
E0E0
E0E0
E1E0
E1E0
F1E0
FEE0
7CE0
ENDCHAR
STARTCHAR 00FB
ENCODING 251
SWIDTH 714 0
DWIDTH 15 0
BBX 11 17 2 0
BITMAP
0E00
1F00
1B00
3180
0000
0000
E0E0
E0E0
E0E0
E0E0
E0E0
E0E0
E1E0
E1E0
F1E0
FEE0
7CE0
ENDCHAR
STARTCHAR 00FC
ENCODING 252
SWIDTH 714 0
DWIDTH 15 0
BBX 11 16 2 0
BITMAP
3B80
3B80
3B80
0000
0000
E0E0
E0E0
E0E0
E0E0
E0E0
E0E0
E1E0
E1E0
F1E0
FEE0
7CE0
ENDCHAR
STARTCHAR 00FD
ENCODING 253
SWIDTH 666 0
DWIDTH 14 0
BBX 13 21 0 -4
BITMAP
00E0
01C0
0380
0300
0000
0000
F078
7878
7870
38F0
3CF0
1CE0
1FE0
0FC0
0FC0
0780
0780
0780
0700
3F00
3E00
ENDCHAR
STARTCHAR 00FE
ENCODING 254
SWIDTH 714 0
DWIDTH 15 0
BBX 12 20 2 -4
BITMAP
E000
E000
E000
E000
E000
E780
EFE0
F1E0
F0F0
F0F0
E0F0
F0F0
F0F0
F1E0
EFE0
E780
E000
E000
E000
E000
ENDCHAR
STARTCHAR 00FF
ENCODING 255
SWIDTH 666 0
DWIDTH 14 0
BBX 13 20 0 -4
BITMAP
0CC0
0CC0
0CC0
0000
0000
F078
7878
7870
38F0
3CF0
1CE0
1FE0
0FC0
0FC0
0780
0780
0780
0700
3F00
3E00
ENDCHAR
STARTCHAR 0100
ENCODING 256
SWIDTH 761 0
DWIDTH 16 0
BBX 16 19 0 0
BITMAP
07E0
07E0
0000
0000
03E0
07E0
07E0
0FF0
0F70
0E78
1E78
1E38
1C3C
3FFC
3FFC
781E
780E
700F
F00F
ENDCHAR
STARTCHAR 0101
ENCODING 257
SWIDTH 666 0
DWIDTH 14 0
BBX 12 16 1 0
BITMAP
3F80
3F80
0000
0000
0000
3F80
7FE0
41E0
00E0
3FF0
7FF0
F0F0
F0F0
F1F0
7EF0
3CF0
ENDCHAR
STARTCHAR 0102
ENCODING 258
SWIDTH 761 0
DWIDTH 16 0
BBX 16 19 0 0
BITMAP
0420
07E0
03C0
0000
03E0
07E0
07E0
0FF0
0F70
0E78
1E78
1E38
1C3C
3FFC
3FFC
781E
780E
700F
F00F
ENDCHAR
STARTCHAR 0103
ENCODING 259
SWIDTH 666 0
DWIDTH 14 0
BBX 12 16 1 0
BITMAP
18C0
1FC0
0F80
0000
0000
3F80
7FE0
41E0
00E0
3FF0
7FF0
F0F0
F0F0
F1F0
7EF0
3CF0
ENDCHAR
STARTCHAR 0104
ENCODING 260
SWIDTH 761 0
DWIDTH 16 0
BBX 16 19 0 -4
BITMAP
03E0
07E0
07E0
0FF0
0F70
0E78
1E78
1E38
1C3C
3FFC
3FFC
781E
780E
700F
F00F
0008
0018
001E
000E
ENDCHAR
STARTCHAR 0105
ENCODING 261
SWIDTH 666 0
DWIDTH 14 0
BBX 12 15 1 -4
BITMAP
3F80
7FE0
41E0
00E0
3FF0
7FF0
F0F0
F0F0
F1F0
7EF0
3CF0
0180
0100
01E0
01E0
ENDCHAR
STARTCHAR 0106
ENCODING 262
SWIDTH 714 0
DWIDTH 15 0
BBX 13 20 1 0
BITMAP
00E0
01C0
0180
0000
0000
07F0
1FF8
3E08
7800
7800
F000
F000
F000
F000
F000
7800
7800
3E08
1FF8
07F0
ENDCHAR
STARTCHAR 0107
ENCODING 263
SWIDTH 571 0
DWIDTH 12 0
BBX 10 17 1 0
BITMAP
01C0
0180
0300
0600
0000
0000
1F80
3FC0
7840
F000
F000
F000
F000
F000
7840
3FC0
1F80
ENDCHAR
STARTCHAR 0108
ENCODING 264
SWIDTH 714 0
DWIDTH 15 0
BBX 13 20 1 0
BITMAP
03C0
0360
0630
0000
0000
07F0
1FF8
3E08
7800
7800
F000
F000
F000
F000
F000
7800
7800
3E08
1FF8
07F0
ENDCHAR
STARTCHAR 0109
ENCODING 265
SWIDTH 571 0
DWIDTH 12 0
BBX 10 17 1 0
BITMAP
0700
0F80
0D80
18C0
0000
0000
1F80
3FC0
7840
F000
F000
F000
F000
F000
7840
3FC0
1F80
ENDCHAR
STARTCHAR 010A
ENCODING 266
SWIDTH 714 0
DWIDTH 15 0
BBX 13 20 1 0
BITMAP
01C0
01C0
01C0
0000
0000
07F0
1FF8
3E08
7800
7800
F000
F000
F000
F000
F000
7800
7800
3E08
1FF8
07F0
ENDCHAR
STARTCHAR 010B
ENCODING 267
SWIDTH 571 0
DWIDTH 12 0
BBX 10 17 1 0
BITMAP
0700
0700
0700
0700
0000
0000
1F80
3FC0
7840
F000
F000
F000
F000
F000
7840
3FC0
1F80
ENDCHAR
STARTCHAR 010C
ENCODING 268
SWIDTH 714 0
DWIDTH 15 0
BBX 13 20 1 0
BITMAP
0C60
07E0
03C0
0000
0000
07F0
1FF8
3E08
7800
7800
F000
F000
F000
F000
F000
7800
7800
3E08
1FF8
07F0
ENDCHAR
STARTCHAR 010D
ENCODING 269
SWIDTH 571 0
DWIDTH 12 0
BBX 10 17 1 0
BITMAP
18C0
0D80
0F80
0700
0000
0000
1F80
3FC0
7840
F000
F000
F000
F000
F000
7840
3FC0
1F80
ENDCHAR
STARTCHAR 010E
ENCODING 270
SWIDTH 809 0
DWIDTH 17 0
BBX 14 20 2 0
BITMAP
1980
1F80
0F00
0000
0000
FF80
FFE0
F0F8
F078
F03C
F03C
F03C
F03C
F03C
F03C
F03C
F078
F0F8
FFE0
FF80
ENDCHAR
STARTCHAR 010F
ENCODING 271
SWIDTH 714 0
DWIDTH 15 0
BBX 17 16 1 0
BITMAP
007380
007380
007300
007300
007000
1E7000
7F7000
78F000
F0F000
F07000
F07000
F07000
F0F000
78F000
7F7000
1E7000
ENDCHAR
STARTCHAR 0110
ENCODING 272
SWIDTH 857 0
DWIDTH 18 0
BBX 17 15 0 0
BITMAP
3FF000
3FFC00
3C3E00
3C1F00
3C0F00
3C0F00
3C0F00
FF0F80
FF0F00
3C0F00
3C0F00
3C1F00
3C3E00
3FFC00
3FE000
ENDCHAR
STARTCHAR 0111
ENCODING 273
SWIDTH 714 0
DWIDTH 15 0
BBX 14 16 1 0
BITMAP
0070
0070
07FC
07FC
0070
1E70
7F70
78F0
F0F0
F070
F070
F070
F0F0
78F0
7F70
1E70
ENDCHAR
STARTCHAR 0112
ENCODING 274
SWIDTH 666 0
DWIDTH 14 0
BBX 11 19 2 0
BITMAP
3F80
3F80
0000
0000
FFE0
FFE0
F000
F000
F000
F000
FFC0
FFC0
F000
F000
F000
F000
F000
FFE0
FFE0
ENDCHAR
STARTCHAR 0113
ENCODING 275
SWIDTH 666 0
DWIDTH 14 0
BBX 12 16 1 0
BITMAP
1F80
1F80
0000
0000
0000
1F80
3FC0
78E0
F0F0
F0F0
FFF0
FFF0
F000
7830
3FF0
1FC0
ENDCHAR
STARTCHAR 0114
ENCODING 276
SWIDTH 666 0
DWIDTH 14 0
BBX 11 20 2 0
BITMAP
2100
3300
1E00
0000
0000
FFE0
FFE0
F000
F000
F000
F000
FFC0
FFC0
F000
F000
F000
F000
F000
FFE0
FFE0
ENDCHAR
STARTCHAR 0115
ENCODING 277
SWIDTH 666 0
DWIDTH 14 0
BBX 12 16 1 0
BITMAP
18C0
1FC0
0F80
0000
0000
1F80
3FC0
78E0
F0F0
F0F0
FFF0
FFF0
F000
7830
3FF0
1FC0
ENDCHAR
STARTCHAR 0116
ENCODING 278
SWIDTH 666 0
DWIDTH 14 0
BBX 11 20 2 0
BITMAP
0E00
0E00
0E00
0000
0000
FFE0
FFE0
F000
F000
F000
F000
FFC0
FFC0
F000
F000
F000
F000
F000
FFE0
FFE0
ENDCHAR
STARTCHAR 0117
ENCODING 279
SWIDTH 666 0
DWIDTH 14 0
BBX 12 17 1 0
BITMAP
0700
0700
0700
0700
0000
0000
1F80
3FC0
78E0
F0F0
F0F0
FFF0
FFF0
F000
7830
3FF0
1FC0
ENDCHAR
STARTCHAR 0118
ENCODING 280
SWIDTH 666 0
DWIDTH 14 0
BBX 11 19 2 -4
BITMAP
FFE0
FFE0
F000
F000
F000
F000
FFC0
FFC0
F000
F000
F000
F000
F000
FFE0
FFE0
0180
0100
03E0
01E0
ENDCHAR
STARTCHAR 0119
ENCODING 281
SWIDTH 666 0
DWIDTH 14 0
BBX 12 15 1 -4
BITMAP
1F80
3FC0
78E0
F0F0
F0F0
FFF0
FFF0
F000
7830
3FF0
1FC0
0180
0100
01E0
01E0
ENDCHAR
STARTCHAR 011A
ENCODING 282
SWIDTH 666 0
DWIDTH 14 0
BBX 11 20 2 0
BITMAP
3180
1B00
1E00
0000
0000
FFE0
FFE0
F000
F000
F000
F000
FFC0
FFC0
F000
F000
F000
F000
F000
FFE0
FFE0
ENDCHAR
STARTCHAR 011B
ENCODING 283
SWIDTH 666 0
DWIDTH 14 0
BBX 12 17 1 0
BITMAP
18C0
0D80
0F80
0700
0000
0000
1F80
3FC0
78E0
F0F0
F0F0
FFF0
FFF0
F000
7830
3FF0
1FC0
ENDCHAR
STARTCHAR 011C
ENCODING 284
SWIDTH 809 0
DWIDTH 17 0
BBX 15 20 1 0
BITMAP
01E0
0360
0630
0000
0000
07F8
1FFC
3E04
7800
7800
F000
F07E
F07E
F01E
F01E
781E
781E
3E1E
1FFE
07F8
ENDCHAR
STARTCHAR 011D
ENCODING 285
SWIDTH 714 0
DWIDTH 15 0
BBX 12 21 1 -4
BITMAP
0700
0F00
1980
18C0
0000
0000
1E70
7F70
78F0
F0F0
F070
F070
F070
F0F0
78F0
7F70
1E70
00F0
41F0
7FE0
1F80
ENDCHAR
STARTCHAR 011E
ENCODING 286
SWIDTH 809 0
DWIDTH 17 0
BBX 15 20 1 0
BITMAP
0C60
0C40
0780
0000
0000
07F8
1FFC
3E04
7800
7800
F000
F07E
F07E
F01E
F01E
781E
781E
3E1E
1FFE
07F8
ENDCHAR
STARTCHAR 011F
ENCODING 287
SWIDTH 714 0
DWIDTH 15 0
BBX 12 20 1 -4
BITMAP
18C0
1FC0
0F80
0000
0000
1E70
7F70
78F0
F0F0
F070
F070
F070
F0F0
78F0
7F70
1E70
00F0
41F0
7FE0
1F80
ENDCHAR
STARTCHAR 0120
ENCODING 288
SWIDTH 809 0
DWIDTH 17 0
BBX 15 20 1 0
BITMAP
01C0
01C0
01C0
0000
0000
07F8
1FFC
3E04
7800
7800
F000
F07E
F07E
F01E
F01E
781E
781E
3E1E
1FFE
07F8
ENDCHAR
STARTCHAR 0121
ENCODING 289
SWIDTH 714 0
DWIDTH 15 0
BBX 12 21 1 -4
BITMAP
0F00
0F00
0F00
0F00
0000
0000
1E70
7F70
78F0
F0F0
F070
F070
F070
F0F0
78F0
7F70
1E70
00F0
41F0
7FE0
1F80
ENDCHAR
STARTCHAR 0122
ENCODING 290
SWIDTH 809 0
DWIDTH 17 0
BBX 15 20 1 -5
BITMAP
07F8
1FFC
3E04
7800
7800
F000
F07E
F07E
F01E
F01E
781E
781E
3E1E
1FFE
07F8
0000
0000
01C0
0180
0380
ENDCHAR
STARTCHAR 0123
ENCODING 291
SWIDTH 714 0
DWIDTH 15 0
BBX 12 20 1 -4
BITMAP
0380
0300
0700
0000
0000
1E70
7F70
78F0
F0F0
F070
F070
F070
F0F0
78F0
7F70
1E70
00F0
41F0
7FE0
1F80
ENDCHAR
STARTCHAR 0124
ENCODING 292
SWIDTH 857 0
DWIDTH 18 0
BBX 14 20 2 0
BITMAP
0780
0D80
18C0
0000
0000
F03C
F03C
F03C
F03C
F03C
F03C
FFFC
FFFC
F03C
F03C
F03C
F03C
F03C
F03C
F03C
ENDCHAR
STARTCHAR 0125
ENCODING 293
SWIDTH 714 0
DWIDTH 15 0
BBX 13 20 0 0
BITMAP
3C00
6C00
C600
0000
3800
3800
3800
3800
3800
39F0
3BF8
3C78
3C38
3838
3838
3838
3838
3838
3838
3838
ENDCHAR
STARTCHAR 0126
ENCODING 294
SWIDTH 952 0
DWIDTH 20 0
BBX 17 15 2 0
BITMAP
781E00
781E00
FFFF80
FFFF80
781E00
781E00
7FFE00
7FFE00
781E00
781E00
781E00
781E00
781E00
781E00
781E00
ENDCHAR
STARTCHAR 0127
ENCODING 295
SWIDTH 809 0
DWIDTH 17 0
BBX 13 16 2 0
BITMAP
7800
7800
FF80
FF80
7800
79E0
7FF0
7C78
7878
7878
7878
7878
7878
7878
7878
7878
ENDCHAR
STARTCHAR 0128
ENCODING 296
SWIDTH 380 0
DWIDTH 8 0
BBX 7 20 0 0
BITMAP
72
7E
CE
00
00
3C
3C
3C
3C
3C
3C
3C
3C
3C
3C
3C
3C
3C
3C
3C
ENDCHAR
STARTCHAR 0129
ENCODING 297
SWIDTH 333 0
DWIDTH 7 0
BBX 7 17 0 0
BITMAP
62
F2
DE
8C
00
00
38
38
38
38
38
38
38
38
38
38
38
ENDCHAR
STARTCHAR 012A
ENCODING 298
SWIDTH 380 0
DWIDTH 8 0
BBX 6 19 1 0
BITMAP
FC
FC
00
00
78
78
78
78
78
78
78
78
78
78
78
78
78
78
78
ENDCHAR
STARTCHAR 012B
ENCODING 299
SWIDTH 333 0
DWIDTH 7 0
BBX 7 16 0 0
BITMAP
FE
FE
00
00
00
38
38
38
38
38
38
38
38
38
38
38
ENDCHAR
STARTCHAR 012C
ENCODING 300
SWIDTH 380 0
DWIDTH 8 0
BBX 6 20 1 0
BITMAP
84
CC
78
00
00
78
78
78
78
78
78
78
78
78
78
78
78
78
78
78
ENDCHAR
STARTCHAR 012D
ENCODING 301
SWIDTH 333 0
DWIDTH 7 0
BBX 7 16 0 0
BITMAP
C6
7E
7C
00
00
38
38
38
38
38
38
38
38
38
38
38
ENDCHAR
STARTCHAR 012E
ENCODING 302
SWIDTH 380 0
DWIDTH 8 0
BBX 6 19 2 -4
BITMAP
F0
F0
F0
F0
F0
F0
F0
F0
F0
F0
F0
F0
F0
F0
F0
20
60
7C
3C
ENDCHAR
STARTCHAR 012F
ENCODING 303
SWIDTH 333 0
DWIDTH 7 0
BBX 5 20 2 -4
BITMAP
E0
E0
E0
E0
00
E0
E0
E0
E0
E0
E0
E0
E0
E0
E0
E0
20
60
78
78
ENDCHAR
STARTCHAR 0130
ENCODING 304
SWIDTH 380 0
DWIDTH 8 0
BBX 4 20 2 0
BITMAP
60
60
60
00
00
F0
F0
F0
F0
F0
F0
F0
F0
F0
F0
F0
F0
F0
F0
F0
ENDCHAR
STARTCHAR 0131
ENCODING 305
SWIDTH 333 0
DWIDTH 7 0
BBX 3 11 2 0
BITMAP
E0
E0
E0
E0
E0
E0
E0
E0
E0
E0
E0
ENDCHAR
STARTCHAR 0132
ENCODING 306
SWIDTH 761 0
DWIDTH 16 0
BBX 12 19 2 -4
BITMAP
F0F0
F0F0
F0F0
F0F0
F0F0
F0F0
F0F0
F0F0
F0F0
F0F0
F0F0
F0F0
F0F0
F0F0
F0F0
00F0
01E0
07C0
0780
ENDCHAR
STARTCHAR 0133
ENCODING 307
SWIDTH 666 0
DWIDTH 14 0
BBX 11 20 2 -4
BITMAP
E1E0
E1E0
E1E0
E1E0
0000
E1E0
E1E0
E1E0
E1E0
E1E0
E1E0
E1E0
E1E0
E1E0
E1E0
E1E0
01E0
01C0
0FC0
0F80
ENDCHAR
STARTCHAR 0134
ENCODING 308
SWIDTH 380 0
DWIDTH 8 0
BBX 8 24 -1 -4
BITMAP
1E
3F
63
00
00
1E
1E
1E
1E
1E
1E
1E
1E
1E
1E
1E
1E
1E
1E
1E
1E
3C
FC
F0
ENDCHAR
STARTCHAR 0135
ENCODING 309
SWIDTH 333 0
DWIDTH 7 0
BBX 8 21 -1 -4
BITMAP
1C
3E
36
63
00
00
1C
1C
1C
1C
1C
1C
1C
1C
1C
1C
1C
1C
3C
FC
F8
ENDCHAR
STARTCHAR 0136
ENCODING 310
SWIDTH 761 0
DWIDTH 16 0
BBX 14 19 2 -4
BITMAP
F07C
F0F8
F1F0
F3E0
F780
FF00
FE00
FE00
FF00
FF80
F7C0
F3E0
F1F0
F0F8
F07C
0000
0380
0300
0700
ENDCHAR
STARTCHAR 0137
ENCODING 311
SWIDTH 666 0
DWIDTH 14 0
BBX 12 20 2 -4
BITMAP
E000
E000
E000
E000
E000
E1E0
E3C0
E780
EF00
FE00
FE00
EF00
E780
E7C0
E3E0
E1F0
0000
0700
0E00
0C00
ENDCHAR
STARTCHAR 0138
ENCODING 312
SWIDTH 666 0
DWIDTH 14 0
BBX 12 11 2 0
BITMAP
E1E0
E3C0
E780
EF00
FE00
FE00
EF00
E780
E7C0
E3E0
E1F0
ENDCHAR
STARTCHAR 0139
ENCODING 313
SWIDTH 619 0
DWIDTH 13 0
BBX 11 20 2 0
BITMAP
1C00
3800
7000
0000
0000
F000
F000
F000
F000
F000
F000
F000
F000
F000
F000
F000
F000
F000
FFE0
FFE0
ENDCHAR
STARTCHAR 013A
ENCODING 314
SWIDTH 333 0
DWIDTH 7 0
BBX 5 20 2 0
BITMAP
38
30
60
00
E0
E0
E0
E0
E0
E0
E0
E0
E0
E0
E0
E0
E0
E0
E0
E0
ENDCHAR
STARTCHAR 013B
ENCODING 315
SWIDTH 619 0
DWIDTH 13 0
BBX 11 19 2 -4
BITMAP
F000
F000
F000
F000
F000
F000
F000
F000
F000
F000
F000
F000
F000
FFE0
FFE0
0000
0E00
0C00
1C00
ENDCHAR
STARTCHAR 013C
ENCODING 316
SWIDTH 333 0
DWIDTH 7 0
BBX 3 20 2 -4
BITMAP
E0
E0
E0
E0
E0
E0
E0
E0
E0
E0
E0
E0
E0
E0
E0
E0
00
E0
E0
C0
ENDCHAR
STARTCHAR 013D
ENCODING 317
SWIDTH 619 0
DWIDTH 13 0
BBX 11 16 2 0
BITMAP
00E0
F0C0
F1C0
F180
F000
F000
F000
F000
F000
F000
F000
F000
F000
F000
FFE0
FFE0
ENDCHAR
STARTCHAR 013E
ENCODING 318
SWIDTH 476 0
DWIDTH 10 0
BBX 8 16 2 0
BITMAP
E7
E6
E6
EE
E0
E0
E0
E0
E0
E0
E0
E0
E0
E0
E0
E0
ENDCHAR
STARTCHAR 013F
ENCODING 319
SWIDTH 619 0
DWIDTH 13 0
BBX 11 15 2 0
BITMAP
F000
F000
F000
F000
F1C0
F1C0
F1C0
F1C0
F000
F000
F000
F000
F000
FFE0
FFE0
ENDCHAR
STARTCHAR 0140
ENCODING 320
SWIDTH 571 0
DWIDTH 12 0
BBX 8 16 2 0
BITMAP
E0
E0
E0
E0
E0
EF
EF
EF
EF
E0
E0
E0
E0
E0
E0
E0
ENDCHAR
STARTCHAR 0141
ENCODING 321
SWIDTH 619 0
DWIDTH 13 0
BBX 14 15 -1 0
BITMAP
1E00
1E00
1E00
1EC0
1FE0
1FC0
1F00
1E00
3E00
FE00
7E00
5E00
1E00
1FFC
1FFC
ENDCHAR
STARTCHAR 0142
ENCODING 322
SWIDTH 380 0
DWIDTH 8 0
BBX 8 16 0 0
BITMAP
3C
3C
3C
3C
3C
3F
3E
7C
FC
FC
3C
3C
3C
3C
3C
3C
ENDCHAR
STARTCHAR 0143
ENCODING 323
SWIDTH 857 0
DWIDTH 18 0
BBX 14 20 2 0
BITMAP
0180
0300
0600
0000
0000
F83C
F83C
FC3C
FC3C
FE3C
FE3C
F73C
F73C
F3BC
F3BC
F1FC
F1FC
F0FC
F0FC
F07C
ENDCHAR
STARTCHAR 0144
ENCODING 324
SWIDTH 714 0
DWIDTH 15 0
BBX 11 17 2 0
BITMAP
0300
0600
0C00
1C00
0000
0000
E7C0
EFE0
F1E0
F0E0
E0E0
E0E0
E0E0
E0E0
E0E0
E0E0
E0E0
ENDCHAR
STARTCHAR 0145
ENCODING 325
SWIDTH 857 0
DWIDTH 18 0
BBX 14 19 2 -4
BITMAP
F83C
F83C
FC3C
FC3C
FE3C
FE3C
F73C
F73C
F3BC
F3BC
F1FC
F1FC
F0FC
F0FC
F07C
0000
0780
0700
0600
ENDCHAR
STARTCHAR 0146
ENCODING 326
SWIDTH 714 0
DWIDTH 15 0
BBX 11 15 2 -4
BITMAP
E7C0
EFE0
F1E0
F0E0
E0E0
E0E0
E0E0
E0E0
E0E0
E0E0
E0E0
0000
0E00
0E00
0C00
ENDCHAR
STARTCHAR 0147
ENCODING 327
SWIDTH 857 0
DWIDTH 18 0
BBX 14 20 2 0
BITMAP
0C60
0FC0
0780
0000
0000
F83C
F83C
FC3C
FC3C
FE3C
FE3C
F73C
F73C
F3BC
F3BC
F1FC
F1FC
F0FC
F0FC
F07C
ENDCHAR
STARTCHAR 0148
ENCODING 328
SWIDTH 714 0
DWIDTH 15 0
BBX 11 17 2 0
BITMAP
6180
3300
1E00
1E00
0000
0000
E7C0
EFE0
F1E0
F0E0
E0E0
E0E0
E0E0
E0E0
E0E0
E0E0
E0E0
ENDCHAR
STARTCHAR 0149
ENCODING 329
SWIDTH 1000 0
DWIDTH 21 0
BBX 18 15 1 0
BITMAP
780000
780000
780000
700000
73CF00
E3FF80
E3E3C0
03C3C0
03C3C0
03C3C0
03C3C0
03C3C0
03C3C0
03C3C0
03C3C0
ENDCHAR
STARTCHAR 014A
ENCODING 330
SWIDTH 857 0
DWIDTH 18 0
BBX 13 19 2 -4
BITMAP
F3E0
FFF0
F878
F078
F038
F038
F038
F038
F038
F038
F038
F038
F038
F038
F038
0078
0078
03F0
03E0
ENDCHAR
STARTCHAR 014B
ENCODING 331
SWIDTH 714 0
DWIDTH 15 0
BBX 11 15 2 -4
BITMAP
E780
EFE0
F1E0
F0E0
E0E0
E0E0
E0E0
E0E0
E0E0
E0E0
E0E0
00E0
01E0
0FE0
0F80
ENDCHAR
STARTCHAR 014C
ENCODING 332
SWIDTH 857 0
DWIDTH 18 0
BBX 16 19 1 0
BITMAP
07E0
07E0
0000
0000
07E0
1FF8
3C3C
781E
781E
F00F
F00F
F00F
F00F
F00F
781E
781E
3C3C
1FF8
07E0
ENDCHAR
STARTCHAR 014D
ENCODING 333
SWIDTH 666 0
DWIDTH 14 0
BBX 13 16 1 0
BITMAP
1F80
1F80
0000
0000
0000
1F80
3FE0
78F0
F0F0
F070
F078
F070
F0F0
78F0
3FE0
1F80
ENDCHAR
STARTCHAR 014E
ENCODING 334
SWIDTH 857 0
DWIDTH 18 0
BBX 16 20 1 0
BITMAP
0C20
0660
03C0
0000
0000
07E0
1FF8
3C3C
781E
781E
F00F
F00F
F00F
F00F
F00F
781E
781E
3C3C
1FF8
07E0
ENDCHAR
STARTCHAR 014F
ENCODING 335
SWIDTH 666 0
DWIDTH 14 0
BBX 13 16 1 0
BITMAP
10C0
1F80
0F00
0000
0000
1F80
3FE0
78F0
F0F0
F070
F078
F070
F0F0
78F0
3FE0
1F80
ENDCHAR
STARTCHAR 0150
ENCODING 336
SWIDTH 857 0
DWIDTH 18 0
BBX 16 20 1 0
BITMAP
03B0
0760
0EC0
0000
0000
07E0
1FF8
3C3C
781E
781E
F00F
F00F
F00F
F00F
F00F
781E
781E
3C3C
1FF8
07E0
ENDCHAR
STARTCHAR 0151
ENCODING 337
SWIDTH 666 0
DWIDTH 14 0
BBX 13 17 1 0
BITMAP
0660
0CC0
0CC0
1980
0000
0000
1F80
3FE0
78F0
F0F0
F070
F078
F070
F0F0
78F0
3FE0
1F80
ENDCHAR
STARTCHAR 0152
ENCODING 338
SWIDTH 1190 0
DWIDTH 25 0
BBX 22 15 1 0
BITMAP
07FFFC
1FFFFC
3E1E00
781E00
781E00
F01E00
F01FF8
F01FF8
F01E00
F01E00
781E00
781E00
3E1E00
1FFFFC
07FFFC
ENDCHAR
STARTCHAR 0153
ENCODING 339
SWIDTH 1095 0
DWIDTH 23 0
BBX 21 11 1 0
BITMAP
1F8FC0
3FFFE0
78FCF0
F0F878
F07078
F07FF8
F07FF8
F0F000
78F810
3FFFF0
1F8FE0
ENDCHAR
STARTCHAR 0154
ENCODING 340
SWIDTH 761 0
DWIDTH 16 0
BBX 13 20 2 0
BITMAP
0700
0600
0C00
0000
0000
FF80
FFE0
F1E0
F0F0
F0F0
F0F0
F0F0
F1E0
FFC0
FFC0
F1E0
F0F0
F0F0
F078
F078
ENDCHAR
STARTCHAR 0155
ENCODING 341
SWIDTH 476 0
DWIDTH 10 0
BBX 8 17 2 0
BITMAP
03
06
0C
1C
00
00
E7
EF
F8
F0
E0
E0
E0
E0
E0
E0
E0
ENDCHAR
STARTCHAR 0156
ENCODING 342
SWIDTH 761 0
DWIDTH 16 0
BBX 13 19 2 -4
BITMAP
FF80
FFE0
F1E0
F0F0
F0F0
F0F0
F0F0
F1E0
FFC0
FFC0
F1E0
F0F0
F0F0
F078
F078
0000
0780
0700
0600
ENDCHAR
STARTCHAR 0157
ENCODING 343
SWIDTH 476 0
DWIDTH 10 0
BBX 8 15 2 -4
BITMAP
E7
EF
F8
F0
E0
E0
E0
E0
E0
E0
E0
00
E0
E0
C0
ENDCHAR
STARTCHAR 0158
ENCODING 344
SWIDTH 761 0
DWIDTH 16 0
BBX 13 20 2 0
BITMAP
3180
1B00
1E00
0000
0000
FF80
FFE0
F1E0
F0F0
F0F0
F0F0
F0F0
F1E0
FFC0
FFC0
F1E0
F0F0
F0F0
F078
F078
ENDCHAR
STARTCHAR 0159
ENCODING 345
SWIDTH 476 0
DWIDTH 10 0
BBX 8 17 2 0
BITMAP
63
66
3C
1C
00
00
E7
EF
F8
F0
E0
E0
E0
E0
E0
E0
E0
ENDCHAR
STARTCHAR 015A
ENCODING 346
SWIDTH 714 0
DWIDTH 15 0
BBX 13 20 1 0
BITMAP
0380
0300
0600
0000
0000
1FE0
3FF0
7870
7010
7000
7800
7F80
3FE0
1FF0
01F8
0078
8070
60F0
7FF0
3FC0
ENDCHAR
STARTCHAR 015B
ENCODING 347
SWIDTH 619 0
DWIDTH 13 0
BBX 10 17 1 0
BITMAP
0180
0300
0600
0E00
0000
0000
3F00
7FC0
F0C0
E000
FF00
7FC0
1FC0
01C0
C1C0
FFC0
3F00
ENDCHAR
STARTCHAR 015C
ENCODING 348
SWIDTH 714 0
DWIDTH 15 0
BBX 13 20 1 0
BITMAP
0F00
0D80
18C0
0000
0000
1FE0
3FF0
7870
7010
7000
7800
7F80
3FE0
1FF0
01F8
0078
8070
60F0
7FF0
3FC0
ENDCHAR
STARTCHAR 015D
ENCODING 349
SWIDTH 619 0
DWIDTH 13 0
BBX 10 17 1 0
BITMAP
0E00
1E00
3300
3180
0000
0000
3F00
7FC0
F0C0
E000
FF00
7FC0
1FC0
01C0
C1C0
FFC0
3F00
ENDCHAR
STARTCHAR 015E
ENCODING 350
SWIDTH 714 0
DWIDTH 15 0
BBX 13 19 1 -4
BITMAP
1FE0
3FF0
7870
7010
7000
7800
7F80
3FE0
1FF0
01F8
0078
8070
60F0
7FF0
3FC0
0300
0100
0F80
0F00
ENDCHAR
STARTCHAR 015F
ENCODING 351
SWIDTH 619 0
DWIDTH 13 0
BBX 10 15 1 -4
BITMAP
3F00
7FC0
F0C0
E000
FF00
7FC0
1FC0
01C0
C1C0
FFC0
3F00
0600
0200
1E00
1E00
ENDCHAR
STARTCHAR 0160
ENCODING 352
SWIDTH 714 0
DWIDTH 15 0
BBX 13 20 1 0
BITMAP
18C0
0D80
0F00
0000
0000
1FE0
3FF0
7870
7010
7000
7800
7F80
3FE0
1FF0
01F8
0078
8070
60F0
7FF0
3FC0
ENDCHAR
STARTCHAR 0161
ENCODING 353
SWIDTH 619 0
DWIDTH 13 0
BBX 10 17 1 0
BITMAP
3180
3300
1E00
0E00
0000
0000
3F00
7FC0
F0C0
E000
FF00
7FC0
1FC0
01C0
C1C0
FFC0
3F00
ENDCHAR
STARTCHAR 0162
ENCODING 354
SWIDTH 666 0
DWIDTH 14 0
BBX 14 19 0 -4
BITMAP
FFFC
FFFC
0780
0780
0780
0780
0780
0780
0780
0780
0780
0780
0780
0780
0780
0180
0080
0780
0780
ENDCHAR
STARTCHAR 0163
ENCODING 355
SWIDTH 476 0
DWIDTH 10 0
BBX 10 19 0 -4
BITMAP
3C00
3C00
3C00
3C00
FFC0
FFC0
3C00
3C00
3C00
3C00
3C00
3C00
3C00
3F80
1F80
0600
0200
1E00
1E00
ENDCHAR
STARTCHAR 0164
ENCODING 356
SWIDTH 666 0
DWIDTH 14 0
BBX 14 20 0 0
BITMAP
0C60
0EC0
0780
0000
0000
FFFC
FFFC
0780
0780
0780
0780
0780
0780
0780
0780
0780
0780
0780
0780
0780
ENDCHAR
STARTCHAR 0165
ENCODING 357
SWIDTH 476 0
DWIDTH 10 0
BBX 10 17 0 0
BITMAP
00C0
01C0
3DC0
3D80
3C00
3C00
FFC0
FFC0
3C00
3C00
3C00
3C00
3C00
3C00
3C00
3F80
1F80
ENDCHAR
STARTCHAR 0166
ENCODING 358
SWIDTH 666 0
DWIDTH 14 0
BBX 14 15 0 0
BITMAP
FFFC
FFFC
0780
0780
0780
0780
0780
1FF0
1FF0
1FF0
0780
0780
0780
0780
0780
ENDCHAR
STARTCHAR 0167
ENCODING 359
SWIDTH 476 0
DWIDTH 10 0
BBX 10 14 0 0
BITMAP
3C00
3C00
3C00
FFC0
FFC0
3C00
FFC0
FFC0
FFC0
3C00
3C00
3C00
1F80
0F80
ENDCHAR
STARTCHAR 0168
ENCODING 360
SWIDTH 809 0
DWIDTH 17 0
BBX 13 20 2 0
BITMAP
0E40
1FC0
1380
0000
0000
F078
F078
F078
F078
F078
F078
F078
F078
F078
F078
F078
F078
78F0
7FF0
1FC0
ENDCHAR
STARTCHAR 0169
ENCODING 361
SWIDTH 714 0
DWIDTH 15 0
BBX 11 17 2 0
BITMAP
1880
1C80
3780
3300
0000
0000
E0E0
E0E0
E0E0
E0E0
E0E0
E0E0
E1E0
E1E0
F1E0
FEE0
7CE0
ENDCHAR
STARTCHAR 016A
ENCODING 362
SWIDTH 809 0
DWIDTH 17 0
BBX 13 19 2 0
BITMAP
1FC0
1FC0
0000
0000
F078
F078
F078
F078
F078
F078
F078
F078
F078
F078
F078
F078
78F0
7FF0
1FC0
ENDCHAR
STARTCHAR 016B
ENCODING 363
SWIDTH 714 0
DWIDTH 15 0
BBX 11 16 2 0
BITMAP
3F80
3F80
0000
0000
0000
E0E0
E0E0
E0E0
E0E0
E0E0
E0E0
E1E0
E1E0
F1E0
FEE0
7CE0
ENDCHAR
STARTCHAR 016C
ENCODING 364
SWIDTH 809 0
DWIDTH 17 0
BBX 13 20 2 0
BITMAP
18C0
08C0
0F80
0000
0000
F078
F078
F078
F078
F078
F078
F078
F078
F078
F078
F078
F078
78F0
7FF0
1FC0
ENDCHAR
STARTCHAR 016D
ENCODING 365
SWIDTH 714 0
DWIDTH 15 0
BBX 11 16 2 0
BITMAP
3180
1F80
0F00
0000
0000
E0E0
E0E0
E0E0
E0E0
E0E0
E0E0
E1E0
E1E0
F1E0
FEE0
7CE0
ENDCHAR
STARTCHAR 016E
ENCODING 366
SWIDTH 809 0
DWIDTH 17 0
BBX 13 20 2 0
BITMAP
0700
0F80
0880
0880
0F80
F778
F078
F078
F078
F078
F078
F078
F078
F078
F078
F078
F078
78F0
7FF0
1FC0
ENDCHAR
STARTCHAR 016F
ENCODING 367
SWIDTH 714 0
DWIDTH 15 0
BBX 11 19 2 0
BITMAP
0E00
1F00
1100
1100
1F00
0E00
0000
0000
E0E0
E0E0
E0E0
E0E0
E0E0
E0E0
E1E0
E1E0
F1E0
FEE0
7CE0
ENDCHAR
STARTCHAR 0170
ENCODING 368
SWIDTH 809 0
DWIDTH 17 0
BBX 13 20 2 0
BITMAP
0EE0
0CC0
1980
0000
0000
F078
F078
F078
F078
F078
F078
F078
F078
F078
F078
F078
F078
78F0
7FF0
1FC0
ENDCHAR
STARTCHAR 0171
ENCODING 369
SWIDTH 714 0
DWIDTH 15 0
BBX 11 17 2 0
BITMAP
0CC0
0D80
1980
1300
0000
0000
E0E0
E0E0
E0E0
E0E0
E0E0
E0E0
E1E0
E1E0
F1E0
FEE0
7CE0
ENDCHAR
STARTCHAR 0172
ENCODING 370
SWIDTH 809 0
DWIDTH 17 0
BBX 13 19 2 -4
BITMAP
F078
F078
F078
F078
F078
F078
F078
F078
F078
F078
F078
F078
78F0
7FF0
1FC0
0600
0400
0780
0780
ENDCHAR
STARTCHAR 0173
ENCODING 371
SWIDTH 714 0
DWIDTH 15 0
BBX 13 15 2 -4
BITMAP
E0E0
E0E0
E0E0
E0E0
E0E0
E0E0
E1E0
E1E0
F1E0
FEE0
7CE0
0060
0040
0078
0078
ENDCHAR
STARTCHAR 0174
ENCODING 372
SWIDTH 1095 0
DWIDTH 23 0
BBX 21 20 1 0
BITMAP
007800
00D800
018C00
000000
000000
F07838
F0F878
F0F878
F0F878
78DC70
79DCF0
79DCF0
79CCF0
398EE0
3F8FE0
3F8FE0
3F8FE0
1F07C0
1F07C0
1F07C0
ENDCHAR
STARTCHAR 0175
ENCODING 373
SWIDTH 904 0
DWIDTH 19 0
BBX 18 17 1 0
BITMAP
01C000
03E000
037000
063000
000000
000000
E1C3C0
F1E380
F1E780
73E780
736700
7B7700
3B7F00
3F3F00
3E3E00
3E3E00
1E1E00
ENDCHAR
STARTCHAR 0176
ENCODING 374
SWIDTH 714 0
DWIDTH 15 0
BBX 15 20 0 0
BITMAP
03C0
06C0
0C60
0000
0000
F01E
783C
7C7C
3C78
1EF0
1FF0
0FE0
07C0
07C0
03C0
03C0
03C0
03C0
03C0
03C0
ENDCHAR
STARTCHAR 0177
ENCODING 375
SWIDTH 666 0
DWIDTH 14 0
BBX 13 21 0 -4
BITMAP
0700
0780
0CC0
18C0
0000
0000
F078
7878
7870
38F0
3CF0
1CE0
1FE0
0FC0
0FC0
0780
0780
0780
0700
3F00
3E00
ENDCHAR
STARTCHAR 0178
ENCODING 376
SWIDTH 714 0
DWIDTH 15 0
BBX 15 20 0 0
BITMAP
0EE0
0EE0
0EE0
0000
0000
F01E
783C
7C7C
3C78
1EF0
1FF0
0FE0
07C0
07C0
03C0
03C0
03C0
03C0
03C0
03C0
ENDCHAR
STARTCHAR 0179
ENCODING 377
SWIDTH 714 0
DWIDTH 15 0
BBX 13 20 1 0
BITMAP
0380
0300
0600
0000
0000
FFF8
FFF8
00F8
01F0
03E0
07E0
07C0
0F80
1F00
3F00
7E00
7C00
F800
FFF8
FFF8
ENDCHAR
STARTCHAR 017A
ENCODING 378
SWIDTH 571 0
DWIDTH 12 0
BBX 10 17 1 0
BITMAP
0180
0300
0600
0E00
0000
0000
FFC0
FFC0
03C0
0780
0F00
1E00
3E00
7C00
F800
FFC0
FFC0
ENDCHAR
STARTCHAR 017B
ENCODING 379
SWIDTH 714 0
DWIDTH 15 0
BBX 13 20 1 0
BITMAP
0700
0700
0700
0000
0000
FFF8
FFF8
00F8
01F0
03E0
07E0
07C0
0F80
1F00
3F00
7E00
7C00
F800
FFF8
FFF8
ENDCHAR
STARTCHAR 017C
ENCODING 380
SWIDTH 571 0
DWIDTH 12 0
BBX 10 17 1 0
BITMAP
1E00
1E00
1E00
1E00
0000
0000
FFC0
FFC0
03C0
0780
0F00
1E00
3E00
7C00
F800
FFC0
FFC0
ENDCHAR
STARTCHAR 017D
ENCODING 381
SWIDTH 714 0
DWIDTH 15 0
BBX 13 20 1 0
BITMAP
18C0
0D80
0F00
0000
0000
FFF8
FFF8
00F8
01F0
03E0
07E0
07C0
0F80
1F00
3F00
7E00
7C00
F800
FFF8
FFF8
ENDCHAR
STARTCHAR 017E
ENCODING 382
SWIDTH 571 0
DWIDTH 12 0
BBX 10 17 1 0
BITMAP
2180
3300
1E00
0E00
0000
0000
FFC0
FFC0
03C0
0780
0F00
1E00
3E00
7C00
F800
FFC0
FFC0
ENDCHAR
STARTCHAR 017F
ENCODING 383
SWIDTH 428 0
DWIDTH 9 0
BBX 9 16 0 0
BITMAP
0F80
1F80
3C00
3C00
3C00
FC00
FC00
3C00
3C00
3C00
3C00
3C00
3C00
3C00
3C00
3C00
ENDCHAR
STARTCHAR 0180
ENCODING 384
SWIDTH 714 0
DWIDTH 15 0
BBX 14 16 0 0
BITMAP
3800
3800
FF80
FF80
3800
39E0
3BF8
3C78
3C3C
3C3C
383C
3C3C
3C3C
3C78
3BF8
39E0
ENDCHAR
STARTCHAR 0181
ENCODING 385
SWIDTH 809 0
DWIDTH 17 0
BBX 17 15 -1 0
BITMAP
7FFC00
FFFE00
CF1F00
CF0F00
0F0F00
0F1F00
0FFE00
0FFE00
0F0F00
0F0F00
0F0780
0F0F80
0F0F00
0FFF00
0FFC00
ENDCHAR
STARTCHAR 0182
ENCODING 386
SWIDTH 761 0
DWIDTH 16 0
BBX 13 15 2 0
BITMAP
FFF0
FFF0
F000
F000
F000
F000
FFC0
FFE0
F0F0
F0F0
F078
F0F0
F0F0
FFE0
FFC0
ENDCHAR
STARTCHAR 0183
ENCODING 387
SWIDTH 714 0
DWIDTH 15 0
BBX 12 16 2 0
BITMAP
FFC0
FFC0
E000
E000
E000
E780
EFE0
F1E0
F0F0
F0F0
E0F0
F0F0
F0F0
F1E0
EFE0
E780
ENDCHAR
STARTCHAR 0184
ENCODING 388
SWIDTH 761 0
DWIDTH 16 0
BBX 14 15 1 0
BITMAP
0400
1C00
3C00
FC00
7C00
3C00
3FF8
3FFC
3FFC
3C3C
3C3C
3C3C
3FFC
3FF8
3FF0
ENDCHAR
STARTCHAR 0185
ENCODING 389
SWIDTH 714 0
DWIDTH 15 0
BBX 14 16 1 0
BITMAP
0800
1800
3800
7800
F9C0
FBF0
7FF8
7C78
7838
783C
783C
783C
7878
7EF8
7FF0
7BE0
ENDCHAR
STARTCHAR 0186
ENCODING 390
SWIDTH 714 0
DWIDTH 15 0
BBX 13 15 1 0
BITMAP
3F00
7FC0
C1E0
80F0
00F8
0078
0078
0078
0078
0078
00F8
80F0
C1E0
7FC0
3F00
ENDCHAR
STARTCHAR 0187
ENCODING 391
SWIDTH 714 0
DWIDTH 15 0
BBX 16 20 1 0
BITMAP
000F
003F
003C
0078
0078
07F8
1FF8
3E08
7800
7800
F000
F000
F000
F000
F000
7800
7800
3E08
1FF8
07F0
ENDCHAR
STARTCHAR 0188
ENCODING 392
SWIDTH 571 0
DWIDTH 12 0
BBX 13 15 1 0
BITMAP
0078
01F8
01C0
01C0
1FC0
7FC0
7840
F000
F000
F000
F000
F000
7840
3FC0
1F80
ENDCHAR
STARTCHAR 0189
ENCODING 393
SWIDTH 857 0
DWIDTH 18 0
BBX 17 15 0 0
BITMAP
3FF000
3FFC00
3C3E00
3C1F00
3C0F00
3C0F00
3C0F00
FF0F80
FF0F00
3C0F00
3C0F00
3C1F00
3C3E00
3FFC00
3FE000
ENDCHAR
STARTCHAR 018A
ENCODING 394
SWIDTH 857 0
DWIDTH 18 0
BBX 18 15 -1 0
BITMAP
7FF800
FFFE00
CF0F80
CF0780
0F03C0
0F03C0
0F03C0
0F03C0
0F03C0
0F03C0
0F03C0
0F0780
0F0F80
0FFE00
0FF800
ENDCHAR
STARTCHAR 018B
ENCODING 395
SWIDTH 761 0
DWIDTH 16 0
BBX 13 15 1 0
BITMAP
7FF8
7FF8
0078
0078
0078
0078
1FF8
7FF8
7878
7078
F078
7878
7878
7FF8
1FF8
ENDCHAR
STARTCHAR 018C
ENCODING 396
SWIDTH 714 0
DWIDTH 15 0
BBX 12 16 1 0
BITMAP
3FF0
3FF0
0070
0070
0070
1E70
7F70
78F0
F0F0
F070
F070
F070
F0F0
78F0
7F70
1E70
ENDCHAR
STARTCHAR 018D
ENCODING 397
SWIDTH 666 0
DWIDTH 14 0
BBX 13 16 1 -5
BITMAP
1F80
3FE0
78F0
F0F0
F070
F078
F070
F0F0
78F0
3FE0
1FC0
01E0
00E0
00E0
3FE0
3F80
ENDCHAR
STARTCHAR 018E
ENCODING 398
SWIDTH 666 0
DWIDTH 14 0
BBX 11 15 2 0
BITMAP
FFE0
FFE0
01E0
01E0
01E0
01E0
01E0
7FE0
7FE0
01E0
01E0
01E0
01E0
FFE0
FFE0
ENDCHAR
STARTCHAR 018F
ENCODING 399
SWIDTH 857 0
DWIDTH 18 0
BBX 16 15 1 0
BITMAP
1FE0
3FF8
207C
001E
001E
000F
FFFF
FFFF
F01F
F81F
781E
783E
3C3C
1FF8
07E0
ENDCHAR
STARTCHAR 0190
ENCODING 400
SWIDTH 714 0
DWIDTH 15 0
BBX 12 15 1 0
BITMAP
1F80
3FE0
7860
7820
7800
7800
1F80
3F80
7800
7800
F000
7810
7830
3FE0
0FC0
ENDCHAR
STARTCHAR 0191
ENCODING 401
SWIDTH 666 0
DWIDTH 14 0
BBX 14 19 -1 -4
BITMAP
1FFC
1FFC
1E00
1E00
1E00
1E00
1FF8
1FF8
1E00
1E00
1E00
1E00
1E00
1E00
1E00
1E00
3C00
FC00
F000
ENDCHAR
STARTCHAR 0192
ENCODING 402
SWIDTH 428 0
DWIDTH 9 0
BBX 10 20 -1 -4
BITMAP
07C0
0FC0
1E00
1E00
1E00
7FC0
7FC0
1E00
1E00
1E00
1E00
1E00
1E00
1E00
1E00
1E00
1E00
1E00
FC00
F800
ENDCHAR
STARTCHAR 0193
ENCODING 403
SWIDTH 809 0
DWIDTH 17 0
BBX 17 19 1 0
BITMAP
000780
000F80
001E00
003C00
07FC00
1FFC00
3E0400
780000
780000
F00000
F07E00
F07E00
F01E00
F01E00
781E00
781E00
3E1E00
1FFE00
07F800
ENDCHAR
STARTCHAR 0194
ENCODING 404
SWIDTH 809 0
DWIDTH 17 0
BBX 16 19 0 -4
BITMAP
F00F
780F
3C1E
3C3C
1E3C
1F78
0F70
07F0
07E0
03E0
03E0
07E0
07F0
0F70
0F78
0E38
0E78
0FF8
07F0
ENDCHAR
STARTCHAR 0195
ENCODING 405
SWIDTH 1047 0
DWIDTH 22 0
BBX 19 16 2 0
BITMAP
E00000
E00000
E00000
E00000
E38000
EFC780
FFE3C0
F1E3C0
F0E1E0
E0E1E0
E0E1E0
E0E1E0
E0E1E0
E0F7C0
E07F80
E03F00
ENDCHAR
STARTCHAR 0196
ENCODING 406
SWIDTH 428 0
DWIDTH 9 0
BBX 7 15 2 0
BITMAP
F0
F0
F0
F0
F0
F0
F0
F0
F0
F0
F0
F0
78
7E
1E
ENDCHAR
STARTCHAR 0197
ENCODING 407
SWIDTH 380 0
DWIDTH 8 0
BBX 8 15 0 0
BITMAP
3C
3C
3C
3C
3C
3C
FF
FF
3C
3C
3C
3C
3C
3C
3C
ENDCHAR
STARTCHAR 0198
ENCODING 408
SWIDTH 761 0
DWIDTH 16 0
BBX 14 16 2 0
BITMAP
0030
F07C
F0FC
F1FC
F3CC
F78C
FF00
FE00
FE00
FF00
FF80
F7C0
F3E0
F1F0
F0F8
F07C
ENDCHAR
STARTCHAR 0199
ENCODING 409
SWIDTH 666 0
DWIDTH 14 0
BBX 12 16 2 0
BITMAP
3E00
7E00
F800
F000
E000
E1E0
E3C0
E780
EF00
FE00
FE00
EF00
E780
E3C0
E1E0
E1F0
ENDCHAR
STARTCHAR 019A
ENCODING 410
SWIDTH 380 0
DWIDTH 8 0
BBX 7 16 0 0
BITMAP
3C
3C
3C
3C
3C
3C
3C
FE
FE
3C
3C
3C
3C
3C
3C
3C
ENDCHAR
STARTCHAR 019B
ENCODING 411
SWIDTH 571 0
DWIDTH 12 0
BBX 12 16 0 0
BITMAP
3CC0
1FC0
3E00
FE00
0F00
0F00
0F00
0F80
1F80
1F80
1FC0
3FC0
3DC0
79E0
78E0
70F0
ENDCHAR
STARTCHAR 019C
ENCODING 412
SWIDTH 1047 0
DWIDTH 22 0
BBX 18 15 2 0
BITMAP
E1E1C0
E1E1C0
E1E1C0
E1E1C0
E1E1C0
E1E1C0
E1E1C0
E1E1C0
E1E1C0
E1E1C0
E1E3C0
F1E3C0
FFFFC0
FEFDC0
7C79C0
ENDCHAR
STARTCHAR 019D
ENCODING 413
SWIDTH 857 0
DWIDTH 18 0
BBX 17 19 -1 -4
BITMAP
1F0780
1F0780
1F8780
1F8780
1FC780
1FC780
1EE780
1EE780
1E7780
1E7780
1E3F80
1E3F80
1E1F80
1E1F80
1E0F80
1E0000
3C0000
F80000
F00000
ENDCHAR
STARTCHAR 019E
ENCODING 414
SWIDTH 714 0
DWIDTH 15 0
BBX 11 15 2 -4
BITMAP
E7C0
EFE0
F1E0
F0E0
E0E0
E0E0
E0E0
E0E0
E0E0
E0E0
E0E0
00E0
00E0
00E0
00E0
ENDCHAR
STARTCHAR 019F
ENCODING 415
SWIDTH 857 0
DWIDTH 18 0
BBX 16 15 1 0
BITMAP
07E0
1FF8
3C3C
783E
781E
F81F
F01F
FFFF
FFFF
F00F
701E
781E
3C3C
1FF8
07E0
ENDCHAR
STARTCHAR 01A0
ENCODING 416
SWIDTH 857 0
DWIDTH 18 0
BBX 17 16 1 0
BITMAP
000180
07E180
1FFD80
3C3F80
781F00
781E00
F00F00
F00F00
F00F00
F00F00
F00F00
781E00
781E00
3C3C00
1FF800
07E000
ENDCHAR
STARTCHAR 01A1
ENCODING 417
SWIDTH 666 0
DWIDTH 14 0
BBX 14 13 1 0
BITMAP
000C
000C
1FCC
3FFC
78F8
F0F0
F078
F078
F078
F0F0
78F0
3FE0
1F80
ENDCHAR
STARTCHAR 01A2
ENCODING 418
SWIDTH 1095 0
DWIDTH 23 0
BBX 20 15 1 0
BITMAP
07FF80
1FFFE0
3C3DE0
781CF0
781CF0
F01CF0
F01CF0
F01CF0
F01CF0
F01CF0
781CF0
781CF0
3C3CF0
1FF8F0
07E0F0
ENDCHAR
STARTCHAR 01A3
ENCODING 419
SWIDTH 904 0
DWIDTH 19 0
BBX 16 15 1 -4
BITMAP
1FFC
3FFF
78EF
F0E7
F0E7
F0E7
F0E7
F0E7
78E7
3FE7
1F87
0007
0007
0007
0007
ENDCHAR
STARTCHAR 01A4
ENCODING 420
SWIDTH 761 0
DWIDTH 16 0
BBX 17 15 -1 0
BITMAP
7FFC00
FFFE00
CF0F00
CF0F00
0F0F80
0F0F80
0F0F00
0F0F00
0FFE00
0FFC00
0F0000
0F0000
0F0000
0F0000
0F0000
ENDCHAR
STARTCHAR 01A5
ENCODING 421
SWIDTH 714 0
DWIDTH 15 0
BBX 12 20 2 -4
BITMAP
7E00
FE00
F000
E000
E000
E780
EFE0
F1E0
F0F0
F0F0
E0F0
F0F0
F0F0
F1E0
EFE0
E780
E000
E000
E000
E000
ENDCHAR
STARTCHAR 01A6
ENCODING 422
SWIDTH 761 0
DWIDTH 16 0
BBX 14 18 2 -3
BITMAP
F000
F000
FF00
FFE0
FFE0
F1F0
F0F0
F0F0
F1E0
FFE0
FF80
FFC0
F1E0
F0F0
F0F0
00F8
0078
007C
ENDCHAR
STARTCHAR 01A7
ENCODING 423
SWIDTH 714 0
DWIDTH 15 0
BBX 12 16 1 0
BITMAP
0E00
7FC0
7FE0
61E0
00F0
00F0
03E0
3FE0
FFC0
FF00
F000
E000
F020
FFE0
FFE0
3FE0
ENDCHAR
STARTCHAR 01A8
ENCODING 424
SWIDTH 619 0
DWIDTH 13 0
BBX 11 12 0 0
BITMAP
1F00
7FC0
7FE0
01E0
01E0
3FC0
7FC0
FC00
F000
F060
7FE0
3FE0
ENDCHAR
STARTCHAR 01A9
ENCODING 425
SWIDTH 666 0
DWIDTH 14 0
BBX 11 15 2 0
BITMAP
FFE0
FFE0
F000
7800
3C00
1E00
0F00
0F00
0E00
1E00
3C00
7800
F000
FFE0
FFE0
ENDCHAR
STARTCHAR 01AA
ENCODING 426
SWIDTH 571 0
DWIDTH 12 0
BBX 13 21 -1 -5
BITMAP
3E00
7F00
EF80
E380
7FE0
7FE0
0380
0380
0380
0380
0380
0380
0380
0380
0380
0380
0380
0380
03F8
01F8
0078
ENDCHAR
STARTCHAR 01AB
ENCODING 427
SWIDTH 476 0
DWIDTH 10 0
BBX 10 20 0 -5
BITMAP
3C00
3C00
3C00
3C00
FFC0
FFC0
3C00
3C00
3C00
3C00
3C00
3C00
3F80
1F80
0F80
0380
0780
1F80
1F00
1C00
ENDCHAR
STARTCHAR 01AC
ENCODING 428
SWIDTH 714 0
DWIDTH 15 0
BBX 15 15 0 0
BITMAP
3FFE
7FFE
F3C0
E3C0
E3C0
03C0
03C0
03C0
03C0
03C0
03C0
03C0
03C0
03C0
03C0
ENDCHAR
STARTCHAR 01AD
ENCODING 429
SWIDTH 476 0
DWIDTH 10 0
BBX 10 16 0 0
BITMAP
0F80
1F80
3C00
3C00
3C00
FFC0
FFC0
3C00
3C00
3C00
3C00
3C00
3C00
3C00
3F80
1F80
ENDCHAR
STARTCHAR 01AE
ENCODING 430
SWIDTH 666 0
DWIDTH 14 0
BBX 14 19 0 -4
BITMAP
FFFC
FFFC
0780
0780
0780
0780
0780
0780
0780
0780
0780
0780
0780
0780
0780
0380
03C0
01F0
00F0
ENDCHAR
STARTCHAR 01AF
ENCODING 431
SWIDTH 857 0
DWIDTH 18 0
BBX 15 16 2 0
BITMAP
0002
F07A
F07A
F07E
F07C
F078
F078
F078
F078
F078
F078
F078
F078
78F0
7FF0
1FC0
ENDCHAR
STARTCHAR 01B0
ENCODING 432
SWIDTH 714 0
DWIDTH 15 0
BBX 13 13 2 0
BITMAP
0008
0008
E1E8
E1F8
E1F0
E1E0
E1E0
E1E0
E1E0
E1E0
F3E0
FFE0
7DE0
ENDCHAR
STARTCHAR 01B1
ENCODING 433
SWIDTH 857 0
DWIDTH 18 0
BBX 16 15 1 0
BITMAP
FE7F
FE7F
3C3C
781E
781E
F01F
F00F
F00F
F00F
F00F
781E
781E
3C3C
1FF8
07E0
ENDCHAR
STARTCHAR 01B2
ENCODING 434
SWIDTH 809 0
DWIDTH 17 0
BBX 14 15 2 0
BITMAP
F000
F1E0
F0F0
F078
F038
F01C
F01C
F01C
F01C
F01C
F03C
F878
7FF0
7FE0
1FC0
ENDCHAR
STARTCHAR 01B3
ENCODING 435
SWIDTH 809 0
DWIDTH 17 0
BBX 17 16 0 0
BITMAP
000400
F81F00
783F80
3C7F80
3E7B80
1EF380
0FF000
0FE000
07C000
03C000
03C000
03C000
03C000
03C000
03C000
03C000
ENDCHAR
STARTCHAR 01B4
ENCODING 436
SWIDTH 761 0
DWIDTH 16 0
BBX 15 17 1 -5
BITMAP
0038
E0FC
F0FE
70FE
79E6
79C0
39C0
3FC0
1F80
1F80
0F00
0F00
0F00
0E00
7E00
7C00
7000
ENDCHAR
STARTCHAR 01B5
ENCODING 437
SWIDTH 714 0
DWIDTH 15 0
BBX 13 15 1 0
BITMAP
FFF8
FFF8
FFF8
01F0
01E0
03C0
7FF0
7FF0
7FF0
1E00
3C00
7800
FFF8
FFF8
FFF8
ENDCHAR
STARTCHAR 01B6
ENCODING 438
SWIDTH 571 0
DWIDTH 12 0
BBX 10 11 1 0
BITMAP
FFC0
FFC0
03C0
0780
7FC0
7FC0
3C00
7800
FFC0
FFC0
FFC0
ENDCHAR
STARTCHAR 01B7
ENCODING 439
SWIDTH 761 0
DWIDTH 16 0
BBX 13 16 2 -1
BITMAP
FFF0
FFF0
FFF0
03E0
03C0
0780
0F00
0FE0
0FF0
0078
0078
0078
E0F8
FFF8
FFF0
0F80
ENDCHAR
STARTCHAR 01B8
ENCODING 440
SWIDTH 761 0
DWIDTH 16 0
BBX 14 16 1 -1
BITMAP
7FFC
7FFC
7FFC
3E00
1F00
0F00
0780
3F80
7F80
F000
F000
F000
F818
7FF8
3FF8
0FC0
ENDCHAR
STARTCHAR 01B9
ENCODING 441
SWIDTH 619 0
DWIDTH 13 0
BBX 11 16 1 -5
BITMAP
7FE0
7FE0
7C00
3E00
1F00
0F00
0780
7F80
FF80
F000
F000
F000
F860
7FE0
3FE0
0200
ENDCHAR
STARTCHAR 01BA
ENCODING 442
SWIDTH 571 0
DWIDTH 12 0
BBX 10 15 1 -4
BITMAP
FFC0
FFC0
03C0
0780
0F00
1F00
3FC0
43C0
01C0
1FC0
7F80
F800
F000
FFC0
7FC0
ENDCHAR
STARTCHAR 01BB
ENCODING 443
SWIDTH 714 0
DWIDTH 15 0
BBX 11 16 2 0
BITMAP
1C00
FF80
FFC0
C3C0
01E0
01E0
01C0
03C0
FFC0
FFC0
1E00
7C00
F800
FFE0
FFE0
FFE0
ENDCHAR
STARTCHAR 01BC
ENCODING 444
SWIDTH 761 0
DWIDTH 16 0
BBX 14 16 1 -1
BITMAP
7FF0
7FF0
7FF0
7800
7800
7800
7FC0
7FF8
7FF8
003C
003C
F03C
F87C
7FFC
3FF8
0FC0
ENDCHAR
STARTCHAR 01BD
ENCODING 445
SWIDTH 619 0
DWIDTH 13 0
BBX 11 16 1 -5
BITMAP
7F80
7F80
7000
7000
7000
7000
7F00
7FC0
7FE0
01E0
01E0
01E0
C3E0
FFC0
FF80
0800
ENDCHAR
STARTCHAR 01BE
ENCODING 446
SWIDTH 571 0
DWIDTH 12 0
BBX 10 15 1 0
BITMAP
3800
3800
FF00
FF00
3C00
3F00
3F80
07C0
03C0
03C0
03C0
03C0
FF80
FF00
FE00
ENDCHAR
STARTCHAR 01BF
ENCODING 447
SWIDTH 714 0
DWIDTH 15 0
BBX 12 16 2 -4
BITMAP
03C0
EFE0
FFF0
F8F0
F0F0
E0F0
E0E0
E1E0
E3C0
E780
FF00
FC00
F800
E000
E000
E000
ENDCHAR
STARTCHAR 01C0
ENCODING 448
SWIDTH 380 0
DWIDTH 8 0
BBX 4 19 2 -4
BITMAP
F0
F0
F0
F0
F0
F0
F0
F0
F0
F0
F0
F0
F0
F0
F0
F0
F0
F0
F0
ENDCHAR
STARTCHAR 01C1
ENCODING 449
SWIDTH 666 0
DWIDTH 14 0
BBX 10 19 2 -4
BITMAP
F3C0
F3C0
F3C0
F3C0
F3C0
F3C0
F3C0
F3C0
F3C0
F3C0
F3C0
F3C0
F3C0
F3C0
F3C0
F3C0
F3C0
F3C0
F3C0
ENDCHAR
STARTCHAR 01C2
ENCODING 450
SWIDTH 523 0
DWIDTH 11 0
BBX 11 19 0 -4
BITMAP
0F00
0F00
0F00
0F00
0F00
FFE0
FFE0
FFE0
0F00
0F00
FFE0
FFE0
FFE0
0F00
0F00
0F00
0F00
0F00
0F00
ENDCHAR
STARTCHAR 01C3
ENCODING 451
SWIDTH 380 0
DWIDTH 8 0
BBX 4 15 2 0
BITMAP
F0
F0
F0
F0
F0
F0
F0
F0
E0
60
00
F0
F0
F0
F0
ENDCHAR
STARTCHAR 01C4
ENCODING 452
SWIDTH 1571 0
DWIDTH 33 0
BBX 30 20 2 0
BITMAP
000018C0
00000DC0
00000780
00000000
00000000
FF807FF8
FFE07FF8
F0F800F8
F07801F8
F03C01F0
F03C03E0
F03C07C0
F03C0FC0
F03C1F80
F03C1F00
F03C3E00
F0787C00
F0F8FC00
FFE0FFFC
FF80FFFC
ENDCHAR
STARTCHAR 01C5
ENCODING 453
SWIDTH 1428 0
DWIDTH 30 0
BBX 27 17 2 0
BITMAP
00003180
00001B00
FF801F00
FFE00E00
F0F80000
F0780000
F03C7FE0
F03C7FE0
F03C03E0
F03C07C0
F03C0F80
F03C1F00
F03C3E00
F0787C00
F0F8F800
FFE0FFE0
FF80FFE0
ENDCHAR
STARTCHAR 01C6
ENCODING 454
SWIDTH 1285 0
DWIDTH 27 0
BBX 25 17 1 0
BITMAP
00006300
00706600
00703C00
00701C00
00700000
00700000
1E71FF80
7F71FF80
78F00780
F0F00F00
F0701E00
F0703E00
F0707C00
F0F0F800
78F1F000
7F71FF80
1E71FF80
ENDCHAR
STARTCHAR 01C7
ENCODING 455
SWIDTH 1000 0
DWIDTH 21 0
BBX 17 19 2 -4
BITMAP
F00780
F00780
F00780
F00780
F00780
F00780
F00780
F00780
F00780
F00780
F00780
F00780
F00780
FFE780
FFE780
000780
000F80
003F00
003C00
ENDCHAR
STARTCHAR 01C8
ENCODING 456
SWIDTH 1000 0
DWIDTH 21 0
BBX 17 20 2 -4
BITMAP
000780
F00780
F00780
F00780
F00000
F00780
F00780
F00780
F00780
F00780
F00780
F00780
F00780
F00780
FFE780
FFE780
000780
000780
001F00
001E00
ENDCHAR
STARTCHAR 01C9
ENCODING 457
SWIDTH 666 0
DWIDTH 14 0
BBX 11 20 2 -4
BITMAP
E1E0
E1E0
E1E0
E1E0
E000
E1E0
E1E0
E1E0
E1E0
E1E0
E1E0
E1E0
E1E0
E1E0
E1E0
E1E0
01E0
01C0
0FC0
0F80
ENDCHAR
STARTCHAR 01CA
ENCODING 458
SWIDTH 1190 0
DWIDTH 25 0
BBX 21 19 2 -4
BITMAP
F83C78
F83C78
FC3C78
FC3C78
FE3C78
FE3C78
F73C78
F73C78
F3BC78
F3BC78
F1FC78
F1FC78
F0FC78
F0FC78
F07C78
000078
000078
0003F0
0003E0
ENDCHAR
STARTCHAR 01CB
ENCODING 459
SWIDTH 1190 0
DWIDTH 25 0
BBX 21 20 2 -4
BITMAP
000078
F83C78
F83C78
FC3C78
FC3C00
FE3C78
FE3C78
F73C78
F73C78
F3BC78
F3BC78
F1FC78
F1FC78
F0FC78
F0FC78
F07C78
000078
000078
0001F0
0001E0
ENDCHAR
STARTCHAR 01CC
ENCODING 460
SWIDTH 1047 0
DWIDTH 22 0
BBX 18 20 2 -4
BITMAP
0001C0
0001C0
0001C0
0001C0
000000
E7C1C0
EFE1C0
F1E1C0
F0E1C0
E0E1C0
E0E1C0
E0E1C0
E0E1C0
E0E1C0
E0E1C0
E0E1C0
0001C0
0003C0
000FC0
000F00
ENDCHAR
STARTCHAR 01CD
ENCODING 461
SWIDTH 761 0
DWIDTH 16 0
BBX 16 20 0 0
BITMAP
0C60
06E0
03C0
0000
0000
03E0
07E0
07E0
0FF0
0F70
0E78
1E78
1E38
1C3C
3FFC
3FFC
781E
780E
700F
F00F
ENDCHAR
STARTCHAR 01CE
ENCODING 462
SWIDTH 666 0
DWIDTH 14 0
BBX 12 17 1 0
BITMAP
10C0
1980
0F00
0700
0000
0000
3F80
7FE0
41E0
00E0
3FF0
7FF0
F0F0
F0F0
F1F0
7EF0
3CF0
ENDCHAR
STARTCHAR 01CF
ENCODING 463
SWIDTH 380 0
DWIDTH 8 0
BBX 7 20 0 0
BITMAP
C6
7E
3C
00
00
3C
3C
3C
3C
3C
3C
3C
3C
3C
3C
3C
3C
3C
3C
3C
ENDCHAR
STARTCHAR 01D0
ENCODING 464
SWIDTH 333 0
DWIDTH 7 0
BBX 7 17 0 0
BITMAP
C2
66
3C
38
00
00
38
38
38
38
38
38
38
38
38
38
38
ENDCHAR
STARTCHAR 01D1
ENCODING 465
SWIDTH 857 0
DWIDTH 18 0
BBX 16 20 1 0
BITMAP
0C60
06C0
03C0
0000
0000
07E0
1FF8
3C3C
781E
781E
F00F
F00F
F00F
F00F
F00F
781E
781E
3C3C
1FF8
07E0
ENDCHAR
STARTCHAR 01D2
ENCODING 466
SWIDTH 666 0
DWIDTH 14 0
BBX 13 17 1 0
BITMAP
18C0
0D80
0F80
0700
0000
0000
1F80
3FE0
78F0
F0F0
F070
F078
F070
F0F0
78F0
3FE0
1F80
ENDCHAR
STARTCHAR 01D3
ENCODING 467
SWIDTH 809 0
DWIDTH 17 0
BBX 13 20 2 0
BITMAP
18C0
0D80
0F00
0000
0000
F078
F078
F078
F078
F078
F078
F078
F078
F078
F078
F078
F078
78F0
7FF0
1FC0
ENDCHAR
STARTCHAR 01D4
ENCODING 468
SWIDTH 714 0
DWIDTH 15 0
BBX 11 17 2 0
BITMAP
3180
1B80
1F00
0E00
0000
0000
E0E0
E0E0
E0E0
E0E0
E0E0
E0E0
E1E0
E1E0
F1E0
FEE0
7CE0
ENDCHAR
STARTCHAR 01D5
ENCODING 469
SWIDTH 809 0
DWIDTH 17 0
BBX 13 22 2 0
BITMAP
1FC0
1FC0
1DC0
1DC0
1DC0
0000
0000
F078
F078
F078
F078
F078
F078
F078
F078
F078
F078
F078
F078
78F0
7FF0
1FC0
ENDCHAR
STARTCHAR 01D6
ENCODING 470
SWIDTH 714 0
DWIDTH 15 0
BBX 11 19 2 0
BITMAP
3F80
3F80
0000
3B80
3B80
3B80
0000
0000
E0E0
E0E0
E0E0
E0E0
E0E0
E0E0
E1E0
E1E0
F1E0
FEE0
7CE0
ENDCHAR
STARTCHAR 01D7
ENCODING 471
SWIDTH 809 0
DWIDTH 17 0
BBX 13 24 2 0
BITMAP
0180
0300
0700
0000
1DC0
1DC0
1DC0
0000
0000
F078
F078
F078
F078
F078
F078
F078
F078
F078
F078
F078
F078
78F0
7FF0
1FC0
ENDCHAR
STARTCHAR 01D8
ENCODING 472
SWIDTH 714 0
DWIDTH 15 0
BBX 11 20 2 0
BITMAP
0380
0700
0600
3B80
3B80
3B80
0000
0000
0000
E0E0
E0E0
E0E0
E0E0
E0E0
E0E0
E1E0
E1E0
F1E0
FEE0
7CE0
ENDCHAR
STARTCHAR 01D9
ENCODING 473
SWIDTH 809 0
DWIDTH 17 0
BBX 13 24 2 0
BITMAP
18C0
0D80
0700
0000
1DC0
1DC0
1DC0
0000
0000
F078
F078
F078
F078
F078
F078
F078
F078
F078
F078
F078
F078
78F0
7FF0
1FC0
ENDCHAR
STARTCHAR 01DA
ENCODING 474
SWIDTH 714 0
DWIDTH 15 0
BBX 11 20 2 0
BITMAP
3180
1B00
1E00
3B80
3B80
3B80
0000
0000
0000
E0E0
E0E0
E0E0
E0E0
E0E0
E0E0
E1E0
E1E0
F1E0
FEE0
7CE0
ENDCHAR
STARTCHAR 01DB
ENCODING 475
SWIDTH 809 0
DWIDTH 17 0
BBX 13 24 2 0
BITMAP
0C00
0600
0300
0000
1DC0
1DC0
1DC0
0000
0000
F078
F078
F078
F078
F078
F078
F078
F078
F078
F078
F078
F078
78F0
7FF0
1FC0
ENDCHAR
STARTCHAR 01DC
ENCODING 476
SWIDTH 714 0
DWIDTH 15 0
BBX 11 20 2 0
BITMAP
3800
1800
0C00
3B80
3B80
3B80
0000
0000
0000
E0E0
E0E0
E0E0
E0E0
E0E0
E0E0
E1E0
E1E0
F1E0
FEE0
7CE0
ENDCHAR
STARTCHAR 01DD
ENCODING 477
SWIDTH 666 0
DWIDTH 14 0
BBX 12 11 1 0
BITMAP
3F80
FFE0
C0E0
00F0
FFF0
FFF0
F0F0
F0F0
79E0
3FE0
1F80
ENDCHAR
STARTCHAR 01DE
ENCODING 478
SWIDTH 761 0
DWIDTH 16 0
BBX 16 22 0 0
BITMAP
07F0
07F0
0670
0670
0670
0000
0000
03E0
07E0
07E0
0FF0
0F70
0E78
1E78
1E38
1C3C
3FFC
3FFC
781E
780E
700F
F00F
ENDCHAR
STARTCHAR 01DF
ENCODING 479
SWIDTH 666 0
DWIDTH 14 0
BBX 12 19 1 0
BITMAP
1F80
1F80
0000
1980
1980
1980
0000
0000
3F80
7FE0
41E0
00E0
3FF0
7FF0
F0F0
F0F0
F1F0
7EF0
3CF0
ENDCHAR
STARTCHAR 01E0
ENCODING 480
SWIDTH 761 0
DWIDTH 16 0
BBX 16 22 0 0
BITMAP
07E0
07E0
01C0
01C0
01C0
0000
0000
03E0
07E0
07E0
0FF0
0F70
0E78
1E78
1E38
1C3C
3FFC
3FFC
781E
780E
700F
F00F
ENDCHAR
STARTCHAR 01E1
ENCODING 481
SWIDTH 666 0
DWIDTH 14 0
BBX 12 19 1 0
BITMAP
3F80
3F80
0F00
0F00
0F00
0F00
0000
0000
3F80
7FE0
41E0
00E0
3FF0
7FF0
F0F0
F0F0
F1F0
7EF0
3CF0
ENDCHAR
STARTCHAR 01E2
ENCODING 482
SWIDTH 1095 0
DWIDTH 23 0
BBX 21 19 0 0
BITMAP
003F80
003F80
000000
000000
03FFF8
03FFF8
07BC00
07BC00
0F3C00
0F3C00
0E3FF8
1E3FF8
1E3C00
3FFC00
3FFC00
783C00
783C00
703FF8
F03FF8
ENDCHAR
STARTCHAR 01E3
ENCODING 483
SWIDTH 1047 0
DWIDTH 22 0
BBX 20 16 1 0
BITMAP
03F800
03F800
000000
000000
000000
3F0F80
7FBFC0
41F9E0
00F0F0
3FF0F0
7FFFF0
F0FFF0
F0F000
F1F020
FF7FE0
3E1FC0
ENDCHAR
STARTCHAR 01E4
ENCODING 484
SWIDTH 809 0
DWIDTH 17 0
BBX 16 16 1 0
BITMAP
01C0
0FFC
3FFC
7E1C
7C00
F800
F000
F07E
F07E
F07E
F01E
787F
7C1E
3FFE
1FFE
0FF8
ENDCHAR
STARTCHAR 01E5
ENCODING 485
SWIDTH 714 0
DWIDTH 15 0
BBX 13 17 1 -5
BITMAP
1C00
3F70
7FF0
F8F0
F0F0
F070
F070
F0F0
F0F0
7FF0
7F70
1E70
00F0
47F8
7FE0
7FC0
0400
ENDCHAR
STARTCHAR 01E6
ENCODING 486
SWIDTH 809 0
DWIDTH 17 0
BBX 15 20 1 0
BITMAP
0630
0360
03C0
0000
0000
07F8
1FFC
3E04
7800
7800
F000
F07E
F07E
F01E
F01E
781E
781E
3E1E
1FFE
07F8
ENDCHAR
STARTCHAR 01E7
ENCODING 487
SWIDTH 714 0
DWIDTH 15 0
BBX 12 21 1 -4
BITMAP
18C0
0D80
0F80
0700
0000
0000
1E70
7F70
78F0
F0F0
F070
F070
F070
F0F0
78F0
7F70
1E70
00F0
41F0
7FE0
1F80
ENDCHAR
STARTCHAR 01E8
ENCODING 488
SWIDTH 761 0
DWIDTH 16 0
BBX 14 20 2 0
BITMAP
18C0
0D80
0780
0000
0000
F07C
F0F8
F1F0
F3E0
F780
FF00
FE00
FE00
FF00
FF80
F7C0
F3E0
F1F0
F0F8
F07C
ENDCHAR
STARTCHAR 01E9
ENCODING 489
SWIDTH 666 0
DWIDTH 14 0
BBX 14 20 0 0
BITMAP
C600
6C00
3C00
0000
3800
3800
3800
3800
3800
3878
38F0
39E0
3BC0
3F80
3F80
3BC0
39E0
39F0
38F8
387C
ENDCHAR
STARTCHAR 01EA
ENCODING 490
SWIDTH 857 0
DWIDTH 18 0
BBX 16 19 1 -4
BITMAP
07E0
1FF8
3C3C
781E
781E
F00F
F00F
F00F
F00F
F00F
781E
781E
3C3C
1FF8
07E0
0100
0300
03C0
03C0
ENDCHAR
STARTCHAR 01EB
ENCODING 491
SWIDTH 666 0
DWIDTH 14 0
BBX 13 15 1 -4
BITMAP
1F80
3FE0
78F0
F0F0
F070
F078
F070
F0F0
78F0
3FE0
1F80
0400
0C00
0F80
0780
ENDCHAR
STARTCHAR 01EC
ENCODING 492
SWIDTH 857 0
DWIDTH 18 0
BBX 16 23 1 -4
BITMAP
07E0
07E0
0000
0000
07E0
1FF8
3C3C
781E
781E
F00F
F00F
F00F
F00F
F00F
781E
781E
3C3C
1FF8
07E0
0100
0300
03C0
03C0
ENDCHAR
STARTCHAR 01ED
ENCODING 493
SWIDTH 666 0
DWIDTH 14 0
BBX 13 20 1 -4
BITMAP
1F80
1F80
0000
0000
0000
1F80
3FE0
78F0
F0F0
F070
F078
F070
F0F0
78F0
3FE0
1F80
0400
0C00
0F80
0780
ENDCHAR
STARTCHAR 01EE
ENCODING 494
SWIDTH 761 0
DWIDTH 16 0
BBX 13 21 2 -1
BITMAP
3180
1B00
1E00
0000
0000
FFF0
FFF0
FFF0
03E0
03C0
0780
0F00
0FE0
0FF0
0078
0078
0078
E0F8
FFF8
FFF0
0F80
ENDCHAR
STARTCHAR 01EF
ENCODING 495
SWIDTH 571 0
DWIDTH 12 0
BBX 11 22 1 -5
BITMAP
3180
3300
1E00
0E00
0000
0000
FFC0
FFC0
03C0
0780
0F00
1E00
3C00
3FC0
3FE0
01E0
01E0
01E0
C3E0
FFE0
FF80
0800
ENDCHAR
STARTCHAR 01F0
ENCODING 496
SWIDTH 333 0
DWIDTH 7 0
BBX 8 21 -1 -4
BITMAP
63
37
3E
1C
00
00
1C
1C
1C
1C
1C
1C
1C
1C
1C
1C
1C
1C
3C
FC
F8
ENDCHAR
STARTCHAR 01F1
ENCODING 497
SWIDTH 1571 0
DWIDTH 33 0
BBX 30 15 2 0
BITMAP
FF807FF8
FFE07FF8
F0F800F8
F07801F8
F03C01F0
F03C03E0
F03C07C0
F03C0FC0
F03C1F80
F03C1F00
F03C3E00
F0787C00
F0F8FC00
FFE0FFFC
FF80FFFC
ENDCHAR
STARTCHAR 01F2
ENCODING 498
SWIDTH 1428 0
DWIDTH 30 0
BBX 27 15 2 0
BITMAP
FF800000
FFE00000
F0F80000
F0780000
F03C7FE0
F03C7FE0
F03C03E0
F03C07C0
F03C0F80
F03C1F00
F03C3E00
F0787C00
F0F8F800
FFE0FFE0
FF80FFE0
ENDCHAR
STARTCHAR 01F3
ENCODING 499
SWIDTH 1285 0
DWIDTH 27 0
BBX 25 16 1 0
BITMAP
00700000
00700000
00700000
00700000
00700000
1E71FF80
7F71FF80
78F00780
F0F00F00
F0701E00
F0703E00
F0707C00
F0F0F800
78F1F000
7F71FF80
1E71FF80
ENDCHAR
STARTCHAR 01F4
ENCODING 500
SWIDTH 809 0
DWIDTH 17 0
BBX 15 20 1 0
BITMAP
01C0
0180
0300
0000
0000
07F8
1FFC
3E04
7800
7800
F000
F07E
F07E
F01E
F01E
781E
781E
3E1E
1FFE
07F8
ENDCHAR
STARTCHAR 01F5
ENCODING 501
SWIDTH 714 0
DWIDTH 15 0
BBX 12 21 1 -4
BITMAP
01C0
0380
0700
0600
0000
0000
1E70
7F70
78F0
F0F0
F070
F070
F070
F0F0
78F0
7F70
1E70
00F0
41F0
7FE0
1F80
ENDCHAR
STARTCHAR 01F6
ENCODING 502
SWIDTH 1285 0
DWIDTH 27 0
BBX 23 15 2 0
BITMAP
F03C00
F03C00
F03C00
F03C00
F03C1E
F03C1E
FFFC1E
FFFC1E
FFFC1E
F03C1E
F03C1E
F03C3E
F03FFC
F01FF8
F00FF0
ENDCHAR
STARTCHAR 01F7
ENCODING 503
SWIDTH 809 0
DWIDTH 17 0
BBX 13 20 2 -4
BITMAP
00C0
F7F0
FFF8
FCF8
F878
F078
F078
F078
F0F0
F1E0
F3C0
FF80
FF00
FC00
F800
F000
F000
F000
F000
F000
ENDCHAR
STARTCHAR 01F8
ENCODING 504
SWIDTH 857 0
DWIDTH 18 0
BBX 14 20 2 0
BITMAP
0700
0300
0180
0000
0000
F83C
F83C
FC3C
FC3C
FE3C
FE3C
F73C
F73C
F3BC
F3BC
F1FC
F1FC
F0FC
F0FC
F07C
ENDCHAR
STARTCHAR 01F9
ENCODING 505
SWIDTH 714 0
DWIDTH 15 0
BBX 11 17 2 0
BITMAP
1C00
0E00
0600
0300
0000
0000
E7C0
EFE0
F1E0
F0E0
E0E0
E0E0
E0E0
E0E0
E0E0
E0E0
E0E0
ENDCHAR
STARTCHAR 01FA
ENCODING 506
SWIDTH 761 0
DWIDTH 16 0
BBX 16 20 0 0
BITMAP
01C7
03EE
066C
0660
0660
03E0
07E0
07E0
0FF0
0F70
0E78
1E78
1E38
1C3C
3FFC
3FFC
781E
780E
700F
F00F
ENDCHAR
STARTCHAR 01FB
ENCODING 507
SWIDTH 666 0
DWIDTH 14 0
BBX 13 20 1 0
BITMAP
0018
0730
0FE0
1980
1980
0F80
0700
0000
0000
3F80
7FE0
41E0
00E0
3FF0
7FF0
F0F0
F0F0
F1F0
7EF0
3CF0
ENDCHAR
STARTCHAR 01FC
ENCODING 508
SWIDTH 1095 0
DWIDTH 23 0
BBX 21 20 0 0
BITMAP
000700
000E00
000C00
000000
000000
03FFF8
03FFF8
07BC00
07BC00
0F3C00
0F3C00
0E3FF8
1E3FF8
1E3C00
3FFC00
3FFC00
783C00
783C00
703FF8
F03FF8
ENDCHAR
STARTCHAR 01FD
ENCODING 509
SWIDTH 1047 0
DWIDTH 22 0
BBX 20 17 1 0
BITMAP
007000
006000
00C000
018000
000000
000000
3F0F80
7FBFC0
41F9E0
00F0F0
3FF0F0
7FFFF0
F0FFF0
F0F000
F1F020
FF7FE0
3E1FC0
ENDCHAR
STARTCHAR 01FE
ENCODING 510
SWIDTH 857 0
DWIDTH 18 0
BBX 16 20 1 0
BITMAP
01C0
0180
0300
0000
0000
07F3
1FFE
3C3E
783E
787E
F06F
F0CF
F18F
F30F
F60F
FC1E
781E
7C3C
7FF8
CFE0
ENDCHAR
STARTCHAR 01FF
ENCODING 511
SWIDTH 666 0
DWIDTH 14 0
BBX 13 17 1 -1
BITMAP
0300
0600
0E00
1C00
0000
0010
1FB0
3FE0
78F0
F1F0
F370
F678
FC70
F8F0
78F0
7FE0
DF80
ENDCHAR
STARTCHAR 0200
ENCODING 512
SWIDTH 761 0
DWIDTH 16 0
BBX 16 20 0 0
BITMAP
1DC0
0EE0
0760
0000
0000
03E0
07E0
07E0
0FF0
0F70
0E78
1E78
1E38
1C3C
3FFC
3FFC
781E
780E
700F
F00F
ENDCHAR
STARTCHAR 0201
ENCODING 513
SWIDTH 666 0
DWIDTH 14 0
BBX 12 17 1 0
BITMAP
7600
3300
1980
0D80
0000
0000
3F80
7FE0
41E0
00E0
3FF0
7FF0
F0F0
F0F0
F1F0
7EF0
3CF0
ENDCHAR
STARTCHAR 0202
ENCODING 514
SWIDTH 761 0
DWIDTH 16 0
BBX 16 20 0 0
BITMAP
0180
07E0
0430
0000
0000
03E0
07E0
07E0
0FF0
0F70
0E78
1E78
1E38
1C3C
3FFC
3FFC
781E
780E
700F
F00F
ENDCHAR
STARTCHAR 0203
ENCODING 515
SWIDTH 666 0
DWIDTH 14 0
BBX 12 16 1 0
BITMAP
0F80
18C0
10C0
0000
0000
3F80
7FE0
41E0
00E0
3FF0
7FF0
F0F0
F0F0
F1F0
7EF0
3CF0
ENDCHAR
STARTCHAR 0204
ENCODING 516
SWIDTH 666 0
DWIDTH 14 0
BBX 11 20 2 0
BITMAP
7700
3300
1980
0000
0000
FFE0
FFE0
F000
F000
F000
F000
FFC0
FFC0
F000
F000
F000
F000
F000
FFE0
FFE0
ENDCHAR
STARTCHAR 0205
ENCODING 517
SWIDTH 666 0
DWIDTH 14 0
BBX 12 17 1 0
BITMAP
3300
1B00
1980
0C80
0000
0000
1F80
3FC0
78E0
F0F0
F0F0
FFF0
FFF0
F000
7830
3FF0
1FC0
ENDCHAR
STARTCHAR 0206
ENCODING 518
SWIDTH 666 0
DWIDTH 14 0
BBX 11 20 2 0
BITMAP
0E00
1F00
3180
0000
0000
FFE0
FFE0
F000
F000
F000
F000
FFC0
FFC0
F000
F000
F000
F000
F000
FFE0
FFE0
ENDCHAR
STARTCHAR 0207
ENCODING 519
SWIDTH 666 0
DWIDTH 14 0
BBX 12 16 1 0
BITMAP
0F80
18C0
1840
0000
0000
1F80
3FC0
78E0
F0F0
F0F0
FFF0
FFF0
F000
7830
3FF0
1FC0
ENDCHAR
STARTCHAR 0208
ENCODING 520
SWIDTH 380 0
DWIDTH 8 0
BBX 8 20 -1 0
BITMAP
EE
77
3B
00
00
1E
1E
1E
1E
1E
1E
1E
1E
1E
1E
1E
1E
1E
1E
1E
ENDCHAR
STARTCHAR 0209
ENCODING 521
SWIDTH 333 0
DWIDTH 7 0
BBX 8 17 0 0
BITMAP
CC
66
36
33
00
00
38
38
38
38
38
38
38
38
38
38
38
ENDCHAR
STARTCHAR 020A
ENCODING 522
SWIDTH 380 0
DWIDTH 8 0
BBX 6 20 1 0
BITMAP
30
FC
84
00
00
78
78
78
78
78
78
78
78
78
78
78
78
78
78
78
ENDCHAR
STARTCHAR 020B
ENCODING 523
SWIDTH 333 0
DWIDTH 7 0
BBX 7 16 0 0
BITMAP
7C
C6
C2
00
00
38
38
38
38
38
38
38
38
38
38
38
ENDCHAR
STARTCHAR 020C
ENCODING 524
SWIDTH 857 0
DWIDTH 18 0
BBX 16 20 1 0
BITMAP
1DC0
0EC0
0660
0000
0000
07E0
1FF8
3C3C
781E
781E
F00F
F00F
F00F
F00F
F00F
781E
781E
3C3C
1FF8
07E0
ENDCHAR
STARTCHAR 020D
ENCODING 525
SWIDTH 666 0
DWIDTH 14 0
BBX 13 17 1 0
BITMAP
3700
3300
1980
0D80
0000
0000
1F80
3FE0
78F0
F0F0
F070
F078
F070
F0F0
78F0
3FE0
1F80
ENDCHAR
STARTCHAR 020E
ENCODING 526
SWIDTH 857 0
DWIDTH 18 0
BBX 16 20 1 0
BITMAP
0180
07E0
0420
0000
0000
07E0
1FF8
3C3C
781E
781E
F00F
F00F
F00F
F00F
F00F
781E
781E
3C3C
1FF8
07E0
ENDCHAR
STARTCHAR 020F
ENCODING 527
SWIDTH 666 0
DWIDTH 14 0
BBX 13 16 1 0
BITMAP
0F80
18C0
10C0
0000
0000
1F80
3FE0
78F0
F0F0
F070
F078
F070
F0F0
78F0
3FE0
1F80
ENDCHAR
STARTCHAR 0210
ENCODING 528
SWIDTH 761 0
DWIDTH 16 0
BBX 13 20 2 0
BITMAP
EE00
3700
1B80
0000
0000
FF80
FFE0
F1E0
F0F0
F0F0
F0F0
F0F0
F1E0
FFC0
FFC0
F1E0
F0F0
F0F0
F078
F078
ENDCHAR
STARTCHAR 0211
ENCODING 529
SWIDTH 476 0
DWIDTH 10 0
BBX 9 17 1 0
BITMAP
EC00
6600
3200
1300
0000
0000
7380
7780
7C00
7800
7000
7000
7000
7000
7000
7000
7000
ENDCHAR
STARTCHAR 0212
ENCODING 530
SWIDTH 761 0
DWIDTH 16 0
BBX 13 20 2 0
BITMAP
0C00
3F00
2100
0000
0000
FF80
FFE0
F1E0
F0F0
F0F0
F0F0
F0F0
F1E0
FFC0
FFC0
F1E0
F0F0
F0F0
F078
F078
ENDCHAR
STARTCHAR 0213
ENCODING 531
SWIDTH 476 0
DWIDTH 10 0
BBX 8 16 2 0
BITMAP
3E
63
43
00
00
E7
EF
F8
F0
E0
E0
E0
E0
E0
E0
E0
ENDCHAR
STARTCHAR 0214
ENCODING 532
SWIDTH 809 0
DWIDTH 17 0
BBX 13 20 2 0
BITMAP
3B80
1D80
0CC0
0000
0000
F078
F078
F078
F078
F078
F078
F078
F078
F078
F078
F078
F078
78F0
7FF0
1FC0
ENDCHAR
STARTCHAR 0215
ENCODING 533
SWIDTH 714 0
DWIDTH 15 0
BBX 11 17 2 0
BITMAP
6600
7600
3300
1900
0000
0000
E0E0
E0E0
E0E0
E0E0
E0E0
E0E0
E1E0
E1E0
F1E0
FEE0
7CE0
ENDCHAR
STARTCHAR 0216
ENCODING 534
SWIDTH 809 0
DWIDTH 17 0
BBX 13 20 2 0
BITMAP
0700
0F80
18C0
0000
0000
F078
F078
F078
F078
F078
F078
F078
F078
F078
F078
F078
F078
78F0
7FF0
1FC0
ENDCHAR
STARTCHAR 0217
ENCODING 535
SWIDTH 714 0
DWIDTH 15 0
BBX 11 16 2 0
BITMAP
1F00
3180
3080
0000
0000
E0E0
E0E0
E0E0
E0E0
E0E0
E0E0
E1E0
E1E0
F1E0
FEE0
7CE0
ENDCHAR
STARTCHAR 0218
ENCODING 536
SWIDTH 714 0
DWIDTH 15 0
BBX 13 20 1 -5
BITMAP
1FE0
3FF0
7870
7010
7000
7800
7F80
3FE0
1FF0
01F8
0078
8070
60F0
7FF0
3FC0
0000
0000
0700
0E00
0C00
ENDCHAR
STARTCHAR 0219
ENCODING 537
SWIDTH 619 0
DWIDTH 13 0
BBX 10 16 1 -5
BITMAP
3F00
7FC0
F0C0
E000
FF00
7FC0
1FC0
01C0
C1C0
FFC0
3F00
0000
0000
0E00
0C00
1800
ENDCHAR
STARTCHAR 021A
ENCODING 538
SWIDTH 666 0
DWIDTH 14 0
BBX 14 20 0 -5
BITMAP
FFFC
FFFC
0780
0780
0780
0780
0780
0780
0780
0780
0780
0780
0780
0780
0780
0000
0000
0700
0700
0600
ENDCHAR
STARTCHAR 021B
ENCODING 539
SWIDTH 476 0
DWIDTH 10 0
BBX 10 20 0 -5
BITMAP
3C00
3C00
3C00
3C00
FFC0
FFC0
3C00
3C00
3C00
3C00
3C00
3C00
3C00
3F80
1F80
0000
0000
0E00
1C00
1800
ENDCHAR
STARTCHAR 021C
ENCODING 540
SWIDTH 714 0
DWIDTH 15 0
BBX 12 20 1 -4
BITMAP
0600
3FC0
7FE0
61E0
00F0
00F0
01E0
03E0
0FC0
3FC0
3FE0
31F0
00F0
00F0
01F0
03E0
0FC0
FF80
FC00
F000
ENDCHAR
STARTCHAR 021D
ENCODING 541
SWIDTH 619 0
DWIDTH 13 0
BBX 10 16 1 -4
BITMAP
1E00
7F80
77C0
03C0
01C0
03C0
0F80
3F00
3FC0
03C0
01C0
03C0
07C0
3F00
FE00
F000
ENDCHAR
STARTCHAR 021E
ENCODING 542
SWIDTH 857 0
DWIDTH 18 0
BBX 14 20 2 0
BITMAP
18C0
0D80
0780
0000
0000
F03C
F03C
F03C
F03C
F03C
F03C
FFFC
FFFC
F03C
F03C
F03C
F03C
F03C
F03C
F03C
ENDCHAR
STARTCHAR 021F
ENCODING 543
SWIDTH 714 0
DWIDTH 15 0
BBX 13 20 0 0
BITMAP
C600
6C00
3C00
0000
3800
3800
3800
3800
3800
39F0
3BF8
3C78
3C38
3838
3838
3838
3838
3838
3838
3838
ENDCHAR
STARTCHAR 0220
ENCODING 544
SWIDTH 857 0
DWIDTH 18 0
BBX 13 19 2 -4
BITMAP
F3E0
FFF0
F878
F078
F038
F038
F038
F038
F038
F038
F038
F038
F038
F038
F038
0038
0038
0038
0038
ENDCHAR
STARTCHAR 0221
ENCODING 545
SWIDTH 857 0
DWIDTH 18 0
BBX 16 17 1 -2
BITMAP
0070
0070
0070
0070
1C70
3F70
7FF0
F8F0
F0F0
F070
F07F
F0FF
F0FF
79FB
7FFF
3FBE
0060
ENDCHAR
STARTCHAR 0222
ENCODING 546
SWIDTH 809 0
DWIDTH 17 0
BBX 15 16 1 0
BITMAP
0080
00F8
1E7C
7E1C
701C
703C
7C7C
1FF0
3FF8
783C
F01E
F01E
F01E
7C7C
7FFC
1FF0
ENDCHAR
STARTCHAR 0223
ENCODING 547
SWIDTH 666 0
DWIDTH 14 0
BBX 12 13 1 1
BITMAP
F0F0
F0F0
F0E0
79E0
3FC0
3FC0
79E0
F0F0
F0F0
F0F0
F9F0
7FE0
3FC0
ENDCHAR
STARTCHAR 0224
ENCODING 548
SWIDTH 714 0
DWIDTH 15 0
BBX 13 20 1 -5
BITMAP
FFF8
FFF8
FFF8
01F0
01E0
03C0
0780
0F80
1F00
1E00
3C00
7800
FFF8
FFF8
FFF8
0038
0078
03F8
03F0
03C0
ENDCHAR
STARTCHAR 0225
ENCODING 549
SWIDTH 571 0
DWIDTH 12 0
BBX 10 16 1 -5
BITMAP
FFC0
FFC0
03C0
0780
0F00
1E00
3C00
7800
FFC0
FFC0
FFC0
01C0
03C0
1FC0
1F80
1C00
ENDCHAR
STARTCHAR 0226
ENCODING 550
SWIDTH 761 0
DWIDTH 16 0
BBX 16 20 0 0
BITMAP
01C0
01C0
01C0
0000
0000
03E0
07E0
07E0
0FF0
0F70
0E78
1E78
1E38
1C3C
3FFC
3FFC
781E
780E
700F
F00F
ENDCHAR
STARTCHAR 0227
ENCODING 551
SWIDTH 666 0
DWIDTH 14 0
BBX 12 17 1 0
BITMAP
0F00
0F00
0F00
0F00
0000
0000
3F80
7FE0
41E0
00E0
3FF0
7FF0
F0F0
F0F0
F1F0
7EF0
3CF0
ENDCHAR
STARTCHAR 0228
ENCODING 552
SWIDTH 666 0
DWIDTH 14 0
BBX 11 19 2 -4
BITMAP
FFE0
FFE0
F000
F000
F000
F000
FFC0
FFC0
F000
F000
F000
F000
F000
FFE0
FFE0
0400
0600
3E00
3C00
ENDCHAR
STARTCHAR 0229
ENCODING 553
SWIDTH 666 0
DWIDTH 14 0
BBX 12 15 1 -4
BITMAP
1F80
3FC0
78E0
F0F0
F0F0
FFF0
FFF0
F000
7830
3FF0
1FC0
0200
0300
1F00
1E00
ENDCHAR
STARTCHAR 022A
ENCODING 554
SWIDTH 857 0
DWIDTH 18 0
BBX 16 22 1 0
BITMAP
0FE0
0FE0
0E60
0E60
0E60
0000
0000
07E0
1FF8
3C3C
781E
781E
F00F
F00F
F00F
F00F
F00F
781E
781E
3C3C
1FF8
07E0
ENDCHAR
STARTCHAR 022B
ENCODING 555
SWIDTH 666 0
DWIDTH 14 0
BBX 13 19 1 0
BITMAP
1FC0
1FC0
0000
1980
1980
1980
0000
0000
1F80
3FE0
78F0
F0F0
F070
F078
F070
F0F0
78F0
3FE0
1F80
ENDCHAR
STARTCHAR 022C
ENCODING 556
SWIDTH 857 0
DWIDTH 18 0
BBX 16 22 1 0
BITMAP
07E0
07E0
0000
0720
07E0
0CE0
0000
07E0
1FF8
3C3C
781E
781E
F00F
F00F
F00F
F00F
F00F
781E
781E
3C3C
1FF8
07E0
ENDCHAR
STARTCHAR 022D
ENCODING 557
SWIDTH 666 0
DWIDTH 14 0
BBX 13 19 1 0
BITMAP
1F80
1F80
0000
1CC0
1FC0
1380
0000
0000
1F80
3FE0
78F0
F0F0
F070
F078
F070
F0F0
78F0
3FE0
1F80
ENDCHAR
STARTCHAR 022E
ENCODING 558
SWIDTH 857 0
DWIDTH 18 0
BBX 16 20 1 0
BITMAP
0180
0180
0180
0000
0000
07E0
1FF8
3C3C
781E
781E
F00F
F00F
F00F
F00F
F00F
781E
781E
3C3C
1FF8
07E0
ENDCHAR
STARTCHAR 022F
ENCODING 559
SWIDTH 666 0
DWIDTH 14 0
BBX 13 17 1 0
BITMAP
0F00
0F00
0F00
0F00
0000
0000
1F80
3FE0
78F0
F0F0
F070
F078
F070
F0F0
78F0
3FE0
1F80
ENDCHAR
STARTCHAR 0230
ENCODING 560
SWIDTH 857 0
DWIDTH 18 0
BBX 16 22 1 0
BITMAP
07E0
07E0
01C0
01C0
01C0
0000
0000
07E0
1FF8
3C3C
781E
781E
F00F
F00F
F00F
F00F
F00F
781E
781E
3C3C
1FF8
07E0
ENDCHAR
STARTCHAR 0231
ENCODING 561
SWIDTH 666 0
DWIDTH 14 0
BBX 13 19 1 0
BITMAP
1F80
1F80
0F00
0F00
0F00
0F00
0000
0000
1F80
3FE0
78F0
F0F0
F070
F078
F070
F0F0
78F0
3FE0
1F80
ENDCHAR
STARTCHAR 0232
ENCODING 562
SWIDTH 714 0
DWIDTH 15 0
BBX 15 19 0 0
BITMAP
0FE0
0FE0
0000
0000
F01E
783C
7C7C
3C78
1EF0
1FF0
0FE0
07C0
07C0
03C0
03C0
03C0
03C0
03C0
03C0
ENDCHAR
STARTCHAR 0233
ENCODING 563
SWIDTH 666 0
DWIDTH 14 0
BBX 13 20 0 -4
BITMAP
0FC0
0FC0
0000
0000
0000
F078
7878
7870
38F0
3CF0
1CE0
1FE0
0FC0
0FC0
0780
0780
0780
0700
3F00
3E00
ENDCHAR
STARTCHAR 0234
ENCODING 564
SWIDTH 476 0
DWIDTH 10 0
BBX 7 17 2 -2
BITMAP
E0
E0
E0
E0
E0
E0
E0
E0
E0
E0
EE
FE
FA
F6
FE
7C
C0
ENDCHAR
STARTCHAR 0235
ENCODING 565
SWIDTH 857 0
DWIDTH 18 0
BBX 15 13 2 -2
BITMAP
0380
EFC0
FFE0
F1E0
F0E0
E0E0
E0EE
E0FE
E0FA
E0F6
E0FE
E07C
00C0
ENDCHAR
STARTCHAR 0236
ENCODING 566
SWIDTH 523 0
DWIDTH 11 0
BBX 10 16 0 -2
BITMAP
3C00
3C00
3C00
3C00
FFC0
FFC0
3C00
3C00
3C00
3F80
3FC0
3EC0
3FC0
1FC0
1F80
1800
ENDCHAR
STARTCHAR 0237
ENCODING 567
SWIDTH 333 0
DWIDTH 7 0
BBX 6 15 -1 -4
BITMAP
1C
1C
1C
1C
1C
1C
1C
1C
1C
1C
1C
1C
3C
FC
F8
ENDCHAR
STARTCHAR 0238
ENCODING 568
SWIDTH 1095 0
DWIDTH 23 0
BBX 21 16 1 0
BITMAP
007000
007000
007000
007000
1C73C0
3F77E0
7FFFF0
F8F8F0
F0F878
F07078
F07078
F0F078
F0F878
79FCF0
7F7FF0
3E77E0
ENDCHAR
STARTCHAR 0239
ENCODING 569
SWIDTH 1095 0
DWIDTH 23 0
BBX 21 16 1 -4
BITMAP
1C03C0
3F77E0
7FFFF0
F8F8F0
F0F878
F07078
F07078
F0F078
F0F878
79FCF0
7F7FF0
3E77E0
007000
007000
007000
007000
ENDCHAR
STARTCHAR 023A
ENCODING 570
SWIDTH 761 0
DWIDTH 16 0
BBX 16 16 0 -1
BITMAP
0001
07E3
07E6
07FC
0FF8
0F70
0E78
1EF8
1FB8
1F3C
3FFC
3FFC
7FFE
781E
780F
F00F
ENDCHAR
STARTCHAR 023B
ENCODING 571
SWIDTH 714 0
DWIDTH 15 0
BBX 17 17 -1 -1
BITMAP
007180
03FF80
0FFF00
1F8E00
1E1C00
3E3800
3C7000
3CE000
3DC000
3F8000
3F0000
1E0000
1F0200
3FFE00
77FE00
E3FC00
400000
ENDCHAR
STARTCHAR 023C
ENCODING 572
SWIDTH 571 0
DWIDTH 12 0
BBX 13 13 0 -1
BITMAP
07D8
1FF0
3FE0
7CE0
7980
7B00
7E00
7C00
7800
3E60
7FE0
CFE0
8000
ENDCHAR
STARTCHAR 023D
ENCODING 573
SWIDTH 619 0
DWIDTH 13 0
BBX 13 15 0 0
BITMAP
3C00
3C00
3C00
3C00
3C00
3C00
FF00
FF00
3C00
3C00
3C00
3C00
3C00
3FF8
3FF8
ENDCHAR
STARTCHAR 023E
ENCODING 574
SWIDTH 666 0
DWIDTH 14 0
BBX 16 16 -1 -1
BITMAP
0001
7FFF
7FFE
7FFE
03D8
03F0
03E0
03C0
03C0
03C0
07C0
0FC0
1BC0
33C0
63C0
C3C0
ENDCHAR
STARTCHAR 023F
ENCODING 575
SWIDTH 619 0
DWIDTH 13 0
BBX 12 17 1 -5
BITMAP
1F00
7FC0
FFC0
E040
F000
FF80
7FC0
07C0
01C0
C1C0
FFC0
FF80
3C00
1E00
0F80
03F0
01F0
ENDCHAR
STARTCHAR 0240
ENCODING 576
SWIDTH 571 0
DWIDTH 12 0
BBX 12 16 1 -5
BITMAP
FFC0
FFC0
03C0
0780
0F00
1E00
3C00
7800
F000
E000
F000
7C00
1E00
0F80
03F0
01F0
ENDCHAR
STARTCHAR 0241
ENCODING 577
SWIDTH 761 0
DWIDTH 16 0
BBX 15 15 1 0
BITMAP
7FF0
FFFC
FFFC
C03C
003E
003E
003C
0FFC
0FF8
0FE0
0F00
0F00
0F00
0F00
0F00
ENDCHAR
STARTCHAR 0242
ENCODING 578
SWIDTH 619 0
DWIDTH 13 0
BBX 11 12 1 0
BITMAP
1E00
7F80
FFC0
F3E0
E1E0
01E0
01E0
1FE0
1FC0
1F80
1E00
1E00
ENDCHAR
STARTCHAR 0243
ENCODING 579
SWIDTH 761 0
DWIDTH 16 0
BBX 15 15 0 0
BITMAP
3FF0
3FF8
3C7C
3C3C
3C3C
3C7C
3FF8
3FF8
3C3C
FF3C
FF1E
3C3C
3C3C
3FFC
3FF0
ENDCHAR
STARTCHAR 0244
ENCODING 580
SWIDTH 809 0
DWIDTH 17 0
BBX 17 15 0 0
BITMAP
3C1E00
3C1E00
3C1E00
3C1E00
3C1E00
3C1E00
FFFF80
FFFF80
3C1E00
3C1E00
3C1E00
3C1E00
1E3C00
0FFC00
07F000
ENDCHAR
STARTCHAR 0245
ENCODING 581
SWIDTH 761 0
DWIDTH 16 0
BBX 16 15 0 0
BITMAP
03E0
07E0
07E0
0FF0
0FF0
0E78
1E78
1E38
1C3C
3C3C
3C1C
781E
781E
780F
F00F
ENDCHAR
STARTCHAR 0246
ENCODING 582
SWIDTH 666 0
DWIDTH 14 0
BBX 11 19 2 -2
BITMAP
00C0
00C0
FFE0
FFE0
FFE0
F180
F100
F300
FFC0
FFC0
FFC0
F600
F600
F400
FFE0
FFE0
FFE0
1800
1800
ENDCHAR
STARTCHAR 0247
ENCODING 583
SWIDTH 666 0
DWIDTH 14 0
BBX 12 15 1 -2
BITMAP
0040
0FC0
3FC0
7FE0
F1F0
F3F0
FFF0
FFF0
F400
FC00
7870
7FF0
1FE0
3000
2000
ENDCHAR
STARTCHAR 0248
ENCODING 584
SWIDTH 380 0
DWIDTH 8 0
BBX 9 19 -1 -4
BITMAP
1E00
1E00
1E00
1E00
1E00
1E00
7F80
7F80
7F80
1E00
1E00
1E00
1E00
1E00
1E00
1E00
3C00
FC00
F000
ENDCHAR
STARTCHAR 0249
ENCODING 585
SWIDTH 333 0
DWIDTH 7 0
BBX 9 20 -1 -4
BITMAP
1C00
1C00
1C00
1C00
0000
1C00
1C00
1C00
1C00
1C00
7F80
7F80
1C00
1C00
1C00
1C00
1C00
3C00
FC00
F800
ENDCHAR
STARTCHAR 024A
ENCODING 586
SWIDTH 857 0
DWIDTH 18 0
BBX 18 20 1 -4
BITMAP
020000
1FDE00
3FFE00
7C7E00
783E00
F81E00
F01E00
F01E00
F01E00
F01E00
F01E00
F81E00
783E00
7FFE00
3FFE00
1FDE00
000F00
000FC0
0007C0
0003C0
ENDCHAR
STARTCHAR 024B
ENCODING 587
SWIDTH 809 0
DWIDTH 17 0
BBX 16 17 1 -5
BITMAP
1C00
3F70
7FF0
F8F0
F0F0
F070
F070
F0F0
F0F0
79F0
7F70
3E70
0070
0078
007F
003F
000F
ENDCHAR
STARTCHAR 024C
ENCODING 588
SWIDTH 761 0
DWIDTH 16 0
BBX 15 15 0 0
BITMAP
3FE0
3FF8
3C78
3C3C
3C3C
3C3C
3C3C
3C78
FFF0
FFF0
3C78
3C3C
3C3C
3C1E
3C1E
ENDCHAR
STARTCHAR 024D
ENCODING 589
SWIDTH 476 0
DWIDTH 10 0
BBX 10 11 0 0
BITMAP
39C0
3BC0
3E00
3C00
FF00
FF00
3800
3800
3800
3800
3800
ENDCHAR
STARTCHAR 024E
ENCODING 590
SWIDTH 714 0
DWIDTH 15 0
BBX 15 15 0 0
BITMAP
F81E
783C
FFFE
FFFE
1EF0
0FF0
0FE0
07C0
03C0
03C0
03C0
03C0
03C0
03C0
03C0
ENDCHAR
STARTCHAR 024F
ENCODING 591
SWIDTH 666 0
DWIDTH 14 0
BBX 14 16 0 -5
BITMAP
7078
7878
3870
3CF0
FFFC
FFFC
1FE0
0FC0
0FC0
0780
0780
0780
0700
3F00
3E00
3800
ENDCHAR
STARTCHAR 0250
ENCODING 592
SWIDTH 666 0
DWIDTH 14 0
BBX 11 11 2 0
BITMAP
E780
EFE0
F1E0
F0E0
E1E0
FFE0
FF80
E000
F040
7FC0
3F80
ENDCHAR
STARTCHAR 0251
ENCODING 593
SWIDTH 714 0
DWIDTH 15 0
BBX 12 11 1 0
BITMAP
1E70
7F70
78F0
F0F0
F070
F070
F070
F0F0
78F0
7F70
1E70
ENDCHAR
STARTCHAR 0252
ENCODING 594
SWIDTH 714 0
DWIDTH 15 0
BBX 12 11 2 0
BITMAP
E780
EFE0
F1E0
F0F0
F0F0
E0F0
F0F0
F0F0
F1E0
EFE0
E780
ENDCHAR
STARTCHAR 0253
ENCODING 595
SWIDTH 714 0
DWIDTH 15 0
BBX 12 16 2 0
BITMAP
3E00
7E00
F000
F000
E000
E780
EFE0
F1E0
F0F0
F0F0
E0F0
F0F0
F0F0
F1E0
EFE0
E780
ENDCHAR
STARTCHAR 0254
ENCODING 596
SWIDTH 571 0
DWIDTH 12 0
BBX 10 11 1 0
BITMAP
7E00
FF00
8780
03C0
03C0
03C0
03C0
03C0
8780
FF00
7E00
ENDCHAR
STARTCHAR 0255
ENCODING 597
SWIDTH 571 0
DWIDTH 12 0
BBX 10 12 1 -1
BITMAP
1F80
3FC0
7840
F000
F000
F000
F780
FFC0
7CC0
3FC0
1F80
0C00
ENDCHAR
STARTCHAR 0256
ENCODING 598
SWIDTH 714 0
DWIDTH 15 0
BBX 15 20 1 -4
BITMAP
0070
0070
0070
0070
0070
1E70
7F70
78F0
F0F0
F070
F070
F070
F0F0
78F0
7F70
1E70
0070
0078
007E
001E
ENDCHAR
STARTCHAR 0257
ENCODING 599
SWIDTH 809 0
DWIDTH 17 0
BBX 16 16 1 0
BITMAP
001F
003F
0078
0070
0070
1E70
7F70
78F0
F0F0
F070
F070
F070
F0F0
78F0
7F70
1E70
ENDCHAR
STARTCHAR 0258
ENCODING 600
SWIDTH 666 0
DWIDTH 14 0
BBX 12 12 1 0
BITMAP
0F00
3FC0
7FE0
F0F0
F0F0
FFF0
FFF0
00F0
80F0
E1E0
FFE0
7F80
ENDCHAR
STARTCHAR 0259
ENCODING 601
SWIDTH 666 0
DWIDTH 14 0
BBX 12 11 1 0
BITMAP
3F80
FFE0
C0E0
00F0
FFF0
FFF0
F0F0
F0F0
79E0
3FE0
1F80
ENDCHAR
STARTCHAR 025A
ENCODING 602
SWIDTH 857 0
DWIDTH 18 0
BBX 18 12 1 0
BITMAP
1F0000
FFCE00
FFFE00
C0FE00
01F600
03F700
0FF3C0
3EF0C0
F8F000
79E000
7FE000
1F8000
ENDCHAR
STARTCHAR 025B
ENCODING 603
SWIDTH 571 0
DWIDTH 12 0
BBX 9 11 1 0
BITMAP
3F00
7F80
F080
7000
7E00
7E00
F000
E000
F080
7F80
3F00
ENDCHAR
STARTCHAR 025C
ENCODING 604
SWIDTH 523 0
DWIDTH 11 0
BBX 9 12 1 0
BITMAP
3E00
7F00
7F80
0380
0780
3F00
3F00
0780
0380
8780
FF80
FF00
ENDCHAR
STARTCHAR 025D
ENCODING 605
SWIDTH 809 0
DWIDTH 17 0
BBX 15 12 1 0
BITMAP
3E00
7F38
7FF8
03F8
0798
3F1C
3F0E
0782
0380
8780
FF80
FF00
ENDCHAR
STARTCHAR 025E
ENCODING 606
SWIDTH 714 0
DWIDTH 15 0
BBX 13 12 1 0
BITMAP
07C0
3FF0
7FF8
7878
F070
F3E0
F3F0
F078
F038
7878
3FF0
1FE0
ENDCHAR
STARTCHAR 025F
ENCODING 607
SWIDTH 333 0
DWIDTH 7 0
BBX 9 16 -1 -5
BITMAP
1C00
1C00
1C00
1C00
1C00
7F80
7F80
1C00
1C00
1C00
1C00
1C00
3C00
FC00
F800
E000
ENDCHAR
STARTCHAR 0260
ENCODING 608
SWIDTH 809 0
DWIDTH 17 0
BBX 16 20 1 -4
BITMAP
001F
003F
0078
0070
0070
1E70
7F70
78F0
F0F0
F070
F070
F070
F0F0
78F0
7F70
1E70
00F0
41F0
7FE0
1F80
ENDCHAR
STARTCHAR 0261
ENCODING 609
SWIDTH 714 0
DWIDTH 15 0
BBX 12 16 1 -5
BITMAP
3FF0
7FF0
F870
F070
F070
F070
F0F0
F0F0
7FF0
7F70
1E70
00F0
40F0
7FE0
7FC0
0400
ENDCHAR
STARTCHAR 0262
ENCODING 610
SWIDTH 619 0
DWIDTH 13 0
BBX 10 11 1 0
BITMAP
3FC0
7FC0
F000
E000
E000
E7C0
E7C0
E0C0
70C0
7FC0
1FC0
ENDCHAR
STARTCHAR 0263
ENCODING 611
SWIDTH 666 0
DWIDTH 14 0
BBX 12 15 1 -4
BITMAP
F0F0
F1E0
79E0
7BC0
3F80
1F80
1F00
0F00
1F80
3F80
3F80
3BC0
3BC0
3F80
1F00
ENDCHAR
STARTCHAR 0264
ENCODING 612
SWIDTH 619 0
DWIDTH 13 0
BBX 11 11 1 0
BITMAP
F1E0
79C0
3FC0
1F80
1F00
1F00
3F80
3BC0
3BC0
3FC0
1F80
ENDCHAR
STARTCHAR 0265
ENCODING 613
SWIDTH 714 0
DWIDTH 15 0
BBX 11 15 2 -4
BITMAP
E0E0
E0E0
E0E0
E0E0
E0E0
E0E0
E1E0
E1E0
F1E0
FEE0
7CE0
00E0
00E0
00E0
00E0
ENDCHAR
STARTCHAR 0266
ENCODING 614
SWIDTH 714 0
DWIDTH 15 0
BBX 11 16 2 0
BITMAP
3E00
7E00
F800
F000
E380
EFC0
FFE0
F1E0
F0E0
E0E0
E0E0
E0E0
E0E0
E0E0
E0E0
E0E0
ENDCHAR
STARTCHAR 0267
ENCODING 615
SWIDTH 714 0
DWIDTH 15 0
BBX 11 21 2 -5
BITMAP
3E00
7E00
F800
F000
E380
EFC0
FFE0
F1E0
F0E0
E0E0
E0E0
E0E0
E0E0
E0E0
E0E0
E0E0
00E0
01E0
0FE0
0FC0
0F00
ENDCHAR
STARTCHAR 0268
ENCODING 616
SWIDTH 523 0
DWIDTH 11 0
BBX 8 16 2 0
BITMAP
3C
3C
3C
3C
00
3C
3C
3C
3C
3C
FF
FF
3C
3C
3C
3C
ENDCHAR
STARTCHAR 0269
ENCODING 617
SWIDTH 428 0
DWIDTH 9 0
BBX 5 11 2 0
BITMAP
E0
E0
E0
E0
E0
E0
E0
E0
F0
F8
38
ENDCHAR
STARTCHAR 026A
ENCODING 618
SWIDTH 523 0
DWIDTH 11 0
BBX 8 11 2 0
BITMAP
FF
FF
3C
3C
3C
3C
3C
3C
3C
FF
FF
ENDCHAR
STARTCHAR 026B
ENCODING 619
SWIDTH 571 0
DWIDTH 12 0
BBX 8 16 2 0
BITMAP
3C
3C
3C
3C
3C
3C
3C
FF
FF
3C
3C
3C
3C
3C
3C
3C
ENDCHAR
STARTCHAR 026C
ENCODING 620
SWIDTH 714 0
DWIDTH 15 0
BBX 11 16 2 0
BITMAP
0780
0780
0780
0780
7F80
FF80
CF80
C780
FFE0
7FE0
0780
0780
0780
0780
0780
0780
ENDCHAR
STARTCHAR 026D
ENCODING 621
SWIDTH 333 0
DWIDTH 7 0
BBX 7 21 2 -5
BITMAP
E0
E0
E0
E0
E0
E0
E0
E0
E0
E0
E0
E0
E0
E0
E0
E0
E0
F0
FE
7E
0E
ENDCHAR
STARTCHAR 026E
ENCODING 622
SWIDTH 857 0
DWIDTH 18 0
BBX 15 21 2 -5
BITMAP
E000
E000
E000
E000
E000
FFF8
FFF8
E078
E0F0
E1E0
E3C0
E780
E7F8
E7FC
E03C
E01E
001E
187C
1FFC
1FF8
0180
ENDCHAR
STARTCHAR 026F
ENCODING 623
SWIDTH 1047 0
DWIDTH 22 0
BBX 18 11 2 0
BITMAP
E1E3C0
E1E3C0
E1E3C0
E1E3C0
E1E3C0
E1E3C0
E1E3C0
E1E3C0
FFF7C0
FEFFC0
7C7BC0
ENDCHAR
STARTCHAR 0270
ENCODING 624
SWIDTH 1047 0
DWIDTH 22 0
BBX 18 15 2 -4
BITMAP
E1E3C0
E1E3C0
E1E3C0
E1E3C0
E1E3C0
E1E3C0
E1E3C0
E1E3C0
FFF7C0
FEFFC0
7C7BC0
0003C0
0003C0
0003C0
0003C0
ENDCHAR
STARTCHAR 0271
ENCODING 625
SWIDTH 1047 0
DWIDTH 22 0
BBX 18 17 2 -5
BITMAP
070700
EFDF80
FFFFC0
F1F3C0
F1E3C0
E1E1C0
E1E1C0
E1E1C0
E1E1C0
E1E1C0
E1E1C0
E1E1C0
0001C0
0003C0
001FC0
001F80
001E00
ENDCHAR
STARTCHAR 0272
ENCODING 626
SWIDTH 714 0
DWIDTH 15 0
BBX 14 15 -1 -4
BITMAP
1CF8
1DFC
1E3C
1E1C
1C1C
1C1C
1C1C
1C1C
1C1C
1C1C
1C1C
1C00
3C00
FC00
F800
ENDCHAR
STARTCHAR 0273
ENCODING 627
SWIDTH 809 0
DWIDTH 17 0
BBX 15 17 2 -5
BITMAP
0380
EFC0
FFE0
F1E0
F0E0
E0E0
E0E0
E0E0
E0E0
E0E0
E0E0
E0E0
00E0
00F0
00FE
007E
001E
ENDCHAR
STARTCHAR 0274
ENCODING 628
SWIDTH 714 0
DWIDTH 15 0
BBX 11 11 2 0
BITMAP
F1E0
F9E0
F9E0
FDE0
FDE0
FFE0
FFE0
F7E0
F7E0
F3E0
F3E0
ENDCHAR
STARTCHAR 0275
ENCODING 629
SWIDTH 666 0
DWIDTH 14 0
BBX 13 11 1 0
BITMAP
1F80
3FE0
78F0
F0F0
FFF0
FFF8
F070
F0F0
78F0
3FE0
1F80
ENDCHAR
STARTCHAR 0276
ENCODING 630
SWIDTH 904 0
DWIDTH 19 0
BBX 16 11 1 1
BITMAP
3FFF
7FFF
78F0
F0F0
F0FF
F0FF
F0F0
F0F0
78F0
3FFF
1FFF
ENDCHAR
STARTCHAR 0277
ENCODING 631
SWIDTH 666 0
DWIDTH 14 0
BBX 12 12 1 0
BITMAP
1F80
3FC0
7FE0
70F0
F0F0
F0F0
F6F0
F6F0
F6F0
FFF0
7DE0
39E0
ENDCHAR
STARTCHAR 0278
ENCODING 632
SWIDTH 809 0
DWIDTH 17 0
BBX 14 20 1 -4
BITMAP
0780
0780
0780
0780
0FC0
3FF8
7FF8
7FBC
F7BC
F79C
F79C
F79C
7FBC
7FFC
3FF8
1FE0
0780
0780
0780
0780
ENDCHAR
STARTCHAR 0279
ENCODING 633
SWIDTH 523 0
DWIDTH 11 0
BBX 8 11 2 0
BITMAP
07
07
07
07
07
07
0F
0F
FF
F7
E7
ENDCHAR
STARTCHAR 027A
ENCODING 634
SWIDTH 523 0
DWIDTH 11 0
BBX 8 16 2 0
BITMAP
07
07
07
07
07
07
07
07
07
07
07
0F
0F
FF
F7
E7
ENDCHAR
STARTCHAR 027B
ENCODING 635
SWIDTH 666 0
DWIDTH 14 0
BBX 12 16 2 -5
BITMAP
0700
0700
0700
0700
0700
0700
0F00
0F00
FF00
F700
E700
0700
0780
07F0
03F0
00F0
ENDCHAR
STARTCHAR 027C
ENCODING 636
SWIDTH 476 0
DWIDTH 10 0
BBX 8 16 2 -4
BITMAP
03
EF
FF
F8
F0
F0
E0
E0
E0
E0
E0
E0
E0
E0
E0
E0
ENDCHAR
STARTCHAR 027D
ENCODING 637
SWIDTH 476 0
DWIDTH 10 0
BBX 8 15 2 -3
BITMAP
E7
EF
F8
F0
E0
E0
E0
E0
E0
E0
E0
E0
F0
7E
3E
ENDCHAR
STARTCHAR 027E
ENCODING 638
SWIDTH 619 0
DWIDTH 13 0
BBX 9 11 2 0
BITMAP
1F80
3F80
3C00
3C00
3C00
3C00
3C00
3C00
3C00
FF00
FF00
ENDCHAR
STARTCHAR 027F
ENCODING 639
SWIDTH 619 0
DWIDTH 13 0
BBX 9 11 2 0
BITMAP
FC00
FC00
1E00
1E00
1E00
1E00
1E00
1E00
1E00
7F80
7F80
ENDCHAR
STARTCHAR 0280
ENCODING 640
SWIDTH 619 0
DWIDTH 13 0
BBX 11 11 1 0
BITMAP
FF80
FFC0
F3C0
F3C0
F780
FF00
FF80
F3C0
F3C0
F1E0
F1E0
ENDCHAR
STARTCHAR 0281
ENCODING 641
SWIDTH 619 0
DWIDTH 13 0
BBX 11 11 1 0
BITMAP
F1E0
F1C0
F3C0
F780
FF00
FF80
F3C0
F3C0
F3C0
FF80
FF00
ENDCHAR
STARTCHAR 0282
ENCODING 642
SWIDTH 619 0
DWIDTH 13 0
BBX 10 17 1 -5
BITMAP
1F00
7FC0
FFC0
E040
F000
FF80
7FC0
07C0
01C0
C1C0
FFC0
FF80
F000
F000
7E00
3E00
0E00
ENDCHAR
STARTCHAR 0283
ENCODING 643
SWIDTH 428 0
DWIDTH 9 0
BBX 10 20 -1 -4
BITMAP
07C0
0FC0
1E00
1C00
1C00
1C00
1C00
1C00
1C00
1C00
1C00
1C00
1C00
1C00
1C00
1C00
1C00
3C00
FC00
F000
ENDCHAR
STARTCHAR 0284
ENCODING 644
SWIDTH 428 0
DWIDTH 9 0
BBX 9 21 0 -5
BITMAP
0F80
1F80
3E00
3C00
3C00
FC00
FC00
3C00
3C00
3C00
FF00
FF00
3C00
3C00
3C00
3C00
3C00
3C00
F800
F800
C000
ENDCHAR
STARTCHAR 0285
ENCODING 645
SWIDTH 619 0
DWIDTH 13 0
BBX 9 17 2 -5
BITMAP
F800
FC00
FE00
1E00
1E00
1E00
1E00
1E00
1E00
1E00
1E00
1E00
1E00
1E00
0F80
0F80
0180
ENDCHAR
STARTCHAR 0286
ENCODING 646
SWIDTH 571 0
DWIDTH 12 0
BBX 13 21 -1 -5
BITMAP
01F8
03F8
03C0
0380
0380
0380
0380
0380
0380
0380
0380
0380
0380
0380
0380
7FE0
FFE0
C780
FF80
7F00
1C00
ENDCHAR
STARTCHAR 0287
ENCODING 647
SWIDTH 476 0
DWIDTH 10 0
BBX 10 14 0 -3
BITMAP
7E00
7E00
0F00
0F00
0F00
0F00
0F00
0F00
FFC0
FFC0
FFC0
0F00
0F00
0F00
ENDCHAR
STARTCHAR 0288
ENCODING 648
SWIDTH 476 0
DWIDTH 10 0
BBX 10 19 0 -4
BITMAP
3C00
3C00
3C00
3C00
FFC0
FFC0
3C00
3C00
3C00
3C00
3C00
3C00
3C00
3C00
3C00
3C00
3C00
1F00
0F00
ENDCHAR
STARTCHAR 0289
ENCODING 649
SWIDTH 904 0
DWIDTH 19 0
BBX 16 11 2 0
BITMAP
3C3C
3C3C
3C3C
3C3C
3C3C
FFFF
FFFF
3C3C
3C7C
1FBC
0F3C
ENDCHAR
STARTCHAR 028A
ENCODING 650
SWIDTH 761 0
DWIDTH 16 0
BBX 13 11 2 0
BITMAP
F9F8
F9F8
79E0
78F0
F0F0
F070
F070
F0F0
78F0
7FE0
1F80
ENDCHAR
STARTCHAR 028B
ENCODING 651
SWIDTH 666 0
DWIDTH 14 0
BBX 11 11 2 0
BITMAP
E380
E3C0
E1E0
E1E0
E1E0
E1E0
E1E0
E1E0
F7C0
7F80
3F00
ENDCHAR
STARTCHAR 028C
ENCODING 652
SWIDTH 666 0
DWIDTH 14 0
BBX 12 11 1 0
BITMAP
0F00
1F00
1F80
3F80
3BC0
39C0
79E0
71E0
F0E0
F0F0
E070
ENDCHAR
STARTCHAR 028D
ENCODING 653
SWIDTH 904 0
DWIDTH 19 0
BBX 18 11 1 0
BITMAP
1E3E00
3E3E00
3E3E00
3F3F00
7B7700
7B7700
736700
73E780
F1E780
F1E380
E1C3C0
ENDCHAR
STARTCHAR 028E
ENCODING 654
SWIDTH 666 0
DWIDTH 14 0
BBX 13 16 0 0
BITMAP
01E0
03E0
0780
0700
0700
0F80
0F80
0FC0
1DC0
1DE0
3DE0
38E0
38F0
7870
7078
F078
ENDCHAR
STARTCHAR 028F
ENCODING 655
SWIDTH 714 0
DWIDTH 15 0
BBX 11 11 2 0
BITMAP
F1E0
79C0
7BC0
3F80
1F00
0F00
0E00
0E00
0E00
0E00
0E00
ENDCHAR
STARTCHAR 0290
ENCODING 656
SWIDTH 714 0
DWIDTH 15 0
BBX 14 16 1 -5
BITMAP
FFC0
FFC0
03C0
0780
0F00
1E00
3C00
7800
FFC0
FFC0
FFC0
01C0
01C0
01FC
00FC
003C
ENDCHAR
STARTCHAR 0291
ENCODING 657
SWIDTH 666 0
DWIDTH 14 0
BBX 12 12 1 -1
BITMAP
FFC0
FFC0
03C0
0780
0F00
1E00
3DF0
7BF0
FFF0
FFF0
FFE0
0300
ENDCHAR
STARTCHAR 0292
ENCODING 658
SWIDTH 619 0
DWIDTH 13 0
BBX 11 16 1 -5
BITMAP
FFC0
FFC0
03C0
0780
0F00
1E00
3C00
3FC0
3FE0
01E0
01E0
01E0
C3E0
FFE0
FF80
0800
ENDCHAR
STARTCHAR 0293
ENCODING 659
SWIDTH 619 0
DWIDTH 13 0
BBX 11 15 1 -5
BITMAP
FFC0
FFC0
03C0
0780
0F00
1E00
3C00
3FC0
3FE0
1DE0
7FE0
7FE0
E3E0
7FE0
7FC0
ENDCHAR
STARTCHAR 0294
ENCODING 660
SWIDTH 571 0
DWIDTH 12 0
BBX 10 16 1 0
BITMAP
FC00
FF00
FF80
07C0
03C0
03C0
03C0
03C0
3F80
3F80
3E00
3800
3800
3800
3800
3800
ENDCHAR
STARTCHAR 0295
ENCODING 661
SWIDTH 571 0
DWIDTH 12 0
BBX 10 16 1 0
BITMAP
0F80
3FC0
7FC0
F840
F000
E000
E000
F000
FF00
7F00
1F00
0F00
0F00
0F00
0F00
0F00
ENDCHAR
STARTCHAR 0296
ENCODING 662
SWIDTH 571 0
DWIDTH 12 0
BBX 10 16 1 0
BITMAP
3800
3800
3800
3800
3800
3E00
3F80
3F80
03C0
03C0
03C0
03C0
07C0
FF80
FF00
FC00
ENDCHAR
STARTCHAR 0297
ENCODING 663
SWIDTH 571 0
DWIDTH 12 0
BBX 10 20 1 -4
BITMAP
0F80
3FC0
7FC0
F840
F000
E000
E000
E000
E000
E000
E000
E000
E000
E000
E000
E000
F000
7FC0
7FC0
1FC0
ENDCHAR
STARTCHAR 0298
ENCODING 664
SWIDTH 857 0
DWIDTH 18 0
BBX 16 16 1 0
BITMAP
0380
1FF0
3FFC
7E7E
781E
F81E
F00F
F18F
F18F
F18F
F01F
781E
783E
3FFC
3FF8
0FF0
ENDCHAR
STARTCHAR 0299
ENCODING 665
SWIDTH 619 0
DWIDTH 13 0
BBX 10 11 2 0
BITMAP
FF00
FFC0
E3C0
E3C0
FF80
FF80
E1C0
E1C0
E1C0
FFC0
FF80
ENDCHAR
STARTCHAR 029A
ENCODING 666
SWIDTH 714 0
DWIDTH 15 0
BBX 13 12 1 0
BITMAP
1F00
7FE0
7FF0
F0F0
7078
3E78
7E78
F078
E078
F0F0
7FE0
3FC0
ENDCHAR
STARTCHAR 029B
ENCODING 667
SWIDTH 666 0
DWIDTH 14 0
BBX 14 16 1 0
BITMAP
00FC
01FC
01E0
03C0
03C0
3FC0
7FC0
F000
E000
E000
E7C0
E7C0
E0C0
78C0
3FC0
1F80
ENDCHAR
STARTCHAR 029C
ENCODING 668
SWIDTH 714 0
DWIDTH 15 0
BBX 11 11 2 0
BITMAP
E1E0
E1E0
E1E0
E1E0
FFE0
FFE0
E1E0
E1E0
E1E0
E1E0
E1E0
ENDCHAR
STARTCHAR 029D
ENCODING 669
SWIDTH 333 0
DWIDTH 7 0
BBX 11 21 -4 -5
BITMAP
0380
0380
0380
0000
0000
0380
0380
0380
0380
0380
0380
0380
0380
0380
0380
7FE0
7FE0
E780
7F80
7F00
1C00
ENDCHAR
STARTCHAR 029E
ENCODING 670
SWIDTH 714 0
DWIDTH 15 0
BBX 12 15 2 -4
BITMAP
F870
3C70
1E70
0F70
07F0
03F0
07F0
0F70
1E70
3C70
7870
0070
0070
0070
0070
ENDCHAR
STARTCHAR 029F
ENCODING 671
SWIDTH 523 0
DWIDTH 11 0
BBX 8 11 2 0
BITMAP
E0
E0
E0
E0
E0
E0
E0
E0
FF
FF
FF
ENDCHAR
STARTCHAR 02A0
ENCODING 672
SWIDTH 809 0
DWIDTH 17 0
BBX 16 20 1 -4
BITMAP
001F
003F
007C
0070
1C70
3F70
7FF0
F8F0
F0F0
F070
F070
F0F0
F0F0
79F0
7F70
3E70
0070
0070
0070
0070
ENDCHAR
STARTCHAR 02A1
ENCODING 673
SWIDTH 571 0
DWIDTH 12 0
BBX 10 16 1 0
BITMAP
FC00
FF00
FF80
07C0
03C0
03C0
03C0
03C0
3F80
3F80
3E00
3800
FF00
FF00
3800
3800
ENDCHAR
STARTCHAR 02A2
ENCODING 674
SWIDTH 571 0
DWIDTH 12 0
BBX 10 16 1 0
BITMAP
0F80
3FC0
7FC0
F840
F000
E000
E000
F000
FF00
7F00
1F00
0F00
3FC0
3FC0
0F00
0F00
ENDCHAR
STARTCHAR 02A3
ENCODING 675
SWIDTH 1142 0
DWIDTH 24 0
BBX 22 16 1 0
BITMAP
007000
007000
007000
007000
1C7000
3F7FFC
7FFFFC
F8F03C
F0F078
F070F0
F071E0
F0F3C0
F0F780
79FFFC
7F7FFC
3E7FFC
ENDCHAR
STARTCHAR 02A4
ENCODING 676
SWIDTH 1238 0
DWIDTH 26 0
BBX 23 21 1 -5
BITMAP
007000
007000
007000
007000
1C7000
3F7FFC
7FFFFC
F8F03C
F0F078
F070F0
F071E0
F0F3C0
F0F3FC
79F3FE
7F701E
3E700E
00001E
000C3E
000FFE
000FF8
000080
ENDCHAR
STARTCHAR 02A5
ENCODING 677
SWIDTH 1142 0
DWIDTH 24 0
BBX 22 17 1 -1
BITMAP
007000
007000
007000
007000
1C7000
3F7FFC
7FFFFC
F8F03C
F0F078
F070F0
F071FC
F0F3FC
F0F7BC
79FFFC
7F7FFC
3E7FF8
000060
ENDCHAR
STARTCHAR 02A6
ENCODING 678
SWIDTH 952 0
DWIDTH 20 0
BBX 19 15 0 0
BITMAP
3C0000
3C0000
3C0000
3C0F80
FFFFE0
FFFFE0
3C7020
3C7800
3C7FC0
3C3FE0
3C03E0
3C00E0
3FFFE0
1FFFE0
0FFFC0
ENDCHAR
STARTCHAR 02A7
ENCODING 679
SWIDTH 761 0
DWIDTH 16 0
BBX 16 21 0 -5
BITMAP
001F
3C3F
3C7C
3C78
3C78
FFF8
FFF8
3C78
3C78
3C78
3C78
3C78
3C78
3FF8
1FF8
0FF8
0078
0078
01F0
01F0
0180
ENDCHAR
STARTCHAR 02A8
ENCODING 680
SWIDTH 952 0
DWIDTH 20 0
BBX 19 16 0 -1
BITMAP
3C0000
3C0000
3C0000
3C0780
FFDFE0
FFFFE0
3C7820
3C7800
3CF000
3CF380
3CF7C0
3C7EC0
3FFCC0
1FBFC0
0F9FC0
000C00
ENDCHAR
STARTCHAR 02A9
ENCODING 681
SWIDTH 1047 0
DWIDTH 22 0
BBX 21 21 0 -5
BITMAP
0F8000
1F8000
3E0000
3C0000
3C01C0
FFFFF0
FFFFF0
3C7CF0
3C7878
3C7878
3C7878
3C7878
3C7878
3C7878
3C7878
3C7878
000078
000070
0007F0
0007E0
000780
ENDCHAR
STARTCHAR 02AA
ENCODING 682
SWIDTH 857 0
DWIDTH 18 0
BBX 15 16 2 0
BITMAP
E000
E000
E000
E000
E1F8
E3FC
E7FC
E700
E700
E7F8
E3FE
E07E
E00E
FFFE
FFFE
FFF8
ENDCHAR
STARTCHAR 02AB
ENCODING 683
SWIDTH 761 0
DWIDTH 16 0
BBX 13 16 2 0
BITMAP
E000
E000
E000
E000
E000
FFF8
FFF8
E078
E0F0
E1E0
E3C0
E780
EF00
FFF8
FFF8
FFF8
ENDCHAR
STARTCHAR 02AC
ENCODING 684
SWIDTH 571 0
DWIDTH 12 0
BBX 11 13 1 0
BITMAP
CCE0
CEC0
FEC0
7AC0
7380
7380
0000
CCE0
CEC0
FEC0
7AC0
7380
7380
ENDCHAR
STARTCHAR 02AD
ENCODING 685
SWIDTH 428 0
DWIDTH 9 0
BBX 7 11 0 2
BITMAP
FE
C2
C2
C2
00
00
00
FE
C2
C2
C2
ENDCHAR
STARTCHAR 02AE
ENCODING 686
SWIDTH 666 0
DWIDTH 14 0
BBX 15 20 -2 -4
BITMAP
F800
FC00
3E00
0E00
0E00
0E0E
0E0E
0E0E
0E0E
0E0E
0E0E
0E1E
0F1E
0FFE
0FEE
07CE
000E
000E
000E
000E
ENDCHAR
STARTCHAR 02AF
ENCODING 687
SWIDTH 809 0
DWIDTH 17 0
BBX 19 21 -2 -5
BITMAP
F80000
FC0000
3E0000
0E0000
0E0000
0E0E00
0E0E00
0E0E00
0E0E00
0E0E00
0E0E00
0E1E00
0F1E00
0FFE00
0FEE00
07CE00
000E00
000E00
000FE0
0007E0
0001E0
ENDCHAR
STARTCHAR 02B0
ENCODING 688
SWIDTH 476 0
DWIDTH 10 0
BBX 8 9 1 7
BITMAP
C0
C0
C0
DE
E6
E7
C7
C7
C7
ENDCHAR
STARTCHAR 02B1
ENCODING 689
SWIDTH 476 0
DWIDTH 10 0
BBX 8 9 1 7
BITMAP
78
F8
E0
DE
E6
E7
C7
C7
C7
ENDCHAR
STARTCHAR 02B2
ENCODING 690
SWIDTH 238 0
DWIDTH 5 0
BBX 3 12 0 4
BITMAP
60
60
00
60
60
60
60
60
60
60
E0
C0
ENDCHAR
STARTCHAR 02B3
ENCODING 691
SWIDTH 333 0
DWIDTH 7 0
BBX 6 6 1 7
BITMAP
DC
E0
E0
C0
C0
C0
ENDCHAR
STARTCHAR 02B4
ENCODING 692
SWIDTH 333 0
DWIDTH 7 0
BBX 6 6 1 7
BITMAP
1C
1C
1C
1C
3C
FC
ENDCHAR
STARTCHAR 02B5
ENCODING 693
SWIDTH 333 0
DWIDTH 7 0
BBX 8 9 1 4
BITMAP
1C
1C
1C
1C
3C
FC
1C
0F
07
ENDCHAR
STARTCHAR 02B6
ENCODING 694
SWIDTH 428 0
DWIDTH 9 0
BBX 7 6 0 7
BITMAP
E6
EC
FC
EC
EE
FC
ENDCHAR
STARTCHAR 02B7
ENCODING 695
SWIDTH 571 0
DWIDTH 12 0
BBX 11 6 1 7
BITMAP
CCE0
CEC0
FEC0
7AC0
73C0
7380
ENDCHAR
STARTCHAR 02B8
ENCODING 696
SWIDTH 428 0
DWIDTH 9 0
BBX 7 9 1 4
BITMAP
C6
CE
6C
6C
38
38
38
F0
E0
ENDCHAR
STARTCHAR 02B9
ENCODING 697
SWIDTH 285 0
DWIDTH 6 0
BBX 3 5 2 12
BITMAP
E0
C0
C0
C0
C0
ENDCHAR
STARTCHAR 02BA
ENCODING 698
SWIDTH 523 0
DWIDTH 11 0
BBX 7 5 2 12
BITMAP
E6
C6
C6
CC
CC
ENDCHAR
STARTCHAR 02BB
ENCODING 699
SWIDTH 380 0
DWIDTH 8 0
BBX 5 7 2 8
BITMAP
38
30
70
F0
F0
F0
F0
ENDCHAR
STARTCHAR 02BC
ENCODING 700
SWIDTH 380 0
DWIDTH 8 0
BBX 5 7 1 8
BITMAP
78
78
78
78
70
60
E0
ENDCHAR
STARTCHAR 02BD
ENCODING 701
SWIDTH 380 0
DWIDTH 8 0
BBX 3 5 3 13
BITMAP
C0
C0
E0
E0
60
ENDCHAR
STARTCHAR 02BE
ENCODING 702
SWIDTH 380 0
DWIDTH 8 0
BBX 3 6 2 10
BITMAP
C0
E0
20
20
E0
C0
ENDCHAR
STARTCHAR 02BF
ENCODING 703
SWIDTH 380 0
DWIDTH 8 0
BBX 3 6 2 10
BITMAP
20
60
C0
C0
60
20
ENDCHAR
STARTCHAR 02C0
ENCODING 704
SWIDTH 333 0
DWIDTH 7 0
BBX 7 9 0 7
BITMAP
78
FC
0E
06
0E
3C
30
30
30
ENDCHAR
STARTCHAR 02C1
ENCODING 705
SWIDTH 333 0
DWIDTH 7 0
BBX 7 9 0 7
BITMAP
1E
7E
60
E0
60
7C
1C
1C
1C
ENDCHAR
STARTCHAR 02C2
ENCODING 706
SWIDTH 523 0
DWIDTH 11 0
BBX 5 7 3 11
BITMAP
08
38
F0
C0
E0
78
18
ENDCHAR
STARTCHAR 02C3
ENCODING 707
SWIDTH 523 0
DWIDTH 11 0
BBX 5 6 3 12
BITMAP
C0
70
18
78
E0
80
ENDCHAR
STARTCHAR 02C4
ENCODING 708
SWIDTH 523 0
DWIDTH 11 0
BBX 6 5 2 12
BITMAP
30
38
68
4C
C4
ENDCHAR
STARTCHAR 02C5
ENCODING 709
SWIDTH 523 0
DWIDTH 11 0
BBX 7 5 2 12
BITMAP
C6
CC
6C
78
38
ENDCHAR
STARTCHAR 02C6
ENCODING 710
SWIDTH 523 0
DWIDTH 11 0
BBX 7 4 2 13
BITMAP
38
78
CC
C6
ENDCHAR
STARTCHAR 02C7
ENCODING 711
SWIDTH 523 0
DWIDTH 11 0
BBX 7 4 2 13
BITMAP
C6
CC
78
38
ENDCHAR
STARTCHAR 02C8
ENCODING 712
SWIDTH 285 0
DWIDTH 6 0
BBX 2 6 2 10
BITMAP
C0
C0
C0
C0
C0
C0
ENDCHAR
STARTCHAR 02C9
ENCODING 713
SWIDTH 523 0
DWIDTH 11 0
BBX 6 2 2 14
BITMAP
FC
FC
ENDCHAR
STARTCHAR 02CA
ENCODING 714
SWIDTH 523 0
DWIDTH 11 0
BBX 5 4 4 13
BITMAP
38
30
60
C0
ENDCHAR
STARTCHAR 02CB
ENCODING 715
SWIDTH 523 0
DWIDTH 11 0
BBX 5 4 1 13
BITMAP
E0
70
38
18
ENDCHAR
STARTCHAR 02CC
ENCODING 716
SWIDTH 285 0
DWIDTH 6 0
BBX 2 6 2 -2
BITMAP
C0
C0
C0
C0
C0
C0
ENDCHAR
STARTCHAR 02CD
ENCODING 717
SWIDTH 523 0
DWIDTH 11 0
BBX 6 2 2 -4
BITMAP
FC
FC
ENDCHAR
STARTCHAR 02CE
ENCODING 718
SWIDTH 523 0
DWIDTH 11 0
BBX 5 4 1 -5
BITMAP
E0
70
38
18
ENDCHAR
STARTCHAR 02CF
ENCODING 719
SWIDTH 523 0
DWIDTH 11 0
BBX 5 4 4 -5
BITMAP
38
30
60
C0
ENDCHAR
STARTCHAR 02D0
ENCODING 720
SWIDTH 333 0
DWIDTH 7 0
BBX 4 11 1 0
BITMAP
F0
60
20
00
00
00
00
00
60
60
F0
ENDCHAR
STARTCHAR 02D1
ENCODING 721
SWIDTH 333 0
DWIDTH 7 0
BBX 4 3 1 8
BITMAP
F0
60
20
ENDCHAR
STARTCHAR 02D2
ENCODING 722
SWIDTH 380 0
DWIDTH 8 0
BBX 3 6 2 6
BITMAP
C0
E0
20
20
E0
C0
ENDCHAR
STARTCHAR 02D3
ENCODING 723
SWIDTH 380 0
DWIDTH 8 0
BBX 3 6 2 6
BITMAP
20
60
C0
C0
60
20
ENDCHAR
STARTCHAR 02D4
ENCODING 724
SWIDTH 523 0
DWIDTH 11 0
BBX 5 5 3 5
BITMAP
60
60
60
F8
F8
ENDCHAR
STARTCHAR 02D5
ENCODING 725
SWIDTH 523 0
DWIDTH 11 0
BBX 5 5 3 5
BITMAP
F8
F8
60
60
60
ENDCHAR
STARTCHAR 02D6
ENCODING 726
SWIDTH 428 0
DWIDTH 9 0
BBX 7 7 1 2
BITMAP
30
30
FE
FE
30
30
30
ENDCHAR
STARTCHAR 02D7
ENCODING 727
SWIDTH 333 0
DWIDTH 7 0
BBX 5 2 1 5
BITMAP
F8
F8
ENDCHAR
STARTCHAR 02D8
ENCODING 728
SWIDTH 523 0
DWIDTH 11 0
BBX 7 3 2 13
BITMAP
C6
FC
78
ENDCHAR
STARTCHAR 02D9
ENCODING 729
SWIDTH 523 0
DWIDTH 11 0
BBX 3 3 4 13
BITMAP
E0
E0
E0
ENDCHAR
STARTCHAR 02DA
ENCODING 730
SWIDTH 523 0
DWIDTH 11 0
BBX 6 6 2 13
BITMAP
38
7C
CC
CC
7C
38
ENDCHAR
STARTCHAR 02DB
ENCODING 731
SWIDTH 523 0
DWIDTH 11 0
BBX 4 4 4 -4
BITMAP
C0
80
F0
F0
ENDCHAR
STARTCHAR 02DC
ENCODING 732
SWIDTH 523 0
DWIDTH 11 0
BBX 7 4 2 13
BITMAP
66
F6
9C
8C
ENDCHAR
STARTCHAR 02DD
ENCODING 733
SWIDTH 523 0
DWIDTH 11 0
BBX 8 4 2 13
BITMAP
37
66
6C
CC
ENDCHAR
STARTCHAR 02DE
ENCODING 734
SWIDTH 333 0
DWIDTH 7 0
BBX 8 7 0 4
BITMAP
38
78
F8
D8
1C
0F
03
ENDCHAR
STARTCHAR 02DF
ENCODING 735
SWIDTH 523 0
DWIDTH 11 0
BBX 5 4 3 13
BITMAP
D8
70
70
D8
ENDCHAR
STARTCHAR 02E0
ENCODING 736
SWIDTH 428 0
DWIDTH 9 0
BBX 7 9 1 4
BITMAP
CE
EC
7C
38
38
78
6C
7C
30
ENDCHAR
STARTCHAR 02E1
ENCODING 737
SWIDTH 238 0
DWIDTH 5 0
BBX 2 9 1 7
BITMAP
C0
C0
C0
C0
C0
C0
C0
C0
C0
ENDCHAR
STARTCHAR 02E2
ENCODING 738
SWIDTH 380 0
DWIDTH 8 0
BBX 6 6 1 7
BITMAP
FC
C0
F8
3C
0C
FC
ENDCHAR
STARTCHAR 02E3
ENCODING 739
SWIDTH 428 0
DWIDTH 9 0
BBX 7 6 1 7
BITMAP
CE
7C
38
78
6C
CE
ENDCHAR
STARTCHAR 02E4
ENCODING 740
SWIDTH 333 0
DWIDTH 7 0
BBX 7 9 0 7
BITMAP
1E
7E
60
E0
60
7C
1C
1C
1C
ENDCHAR
STARTCHAR 02E5
ENCODING 741
SWIDTH 523 0
DWIDTH 11 0
BBX 6 15 2 0
BITMAP
FC
FC
04
04
04
04
04
04
04
04
04
04
04
04
04
ENDCHAR
STARTCHAR 02E6
ENCODING 742
SWIDTH 523 0
DWIDTH 11 0
BBX 6 15 2 0
BITMAP
04
04
04
FC
FC
04
04
04
04
04
04
04
04
04
04
ENDCHAR
STARTCHAR 02E7
ENCODING 743
SWIDTH 523 0
DWIDTH 11 0
BBX 6 15 2 0
BITMAP
04
04
04
04
04
04
FC
FC
04
04
04
04
04
04
04
ENDCHAR
STARTCHAR 02E8
ENCODING 744
SWIDTH 523 0
DWIDTH 11 0
BBX 6 15 2 0
BITMAP
04
04
04
04
04
04
04
04
04
FC
FC
04
04
04
04
ENDCHAR
STARTCHAR 02E9
ENCODING 745
SWIDTH 523 0
DWIDTH 11 0
BBX 6 15 2 0
BITMAP
04
04
04
04
04
04
04
04
04
04
04
04
04
FC
FC
ENDCHAR
STARTCHAR 02EC
ENCODING 748
SWIDTH 523 0
DWIDTH 11 0
BBX 7 5 2 -5
BITMAP
C6
CC
6C
78
38
ENDCHAR
STARTCHAR 02ED
ENCODING 749
SWIDTH 523 0
DWIDTH 11 0
BBX 6 4 2 13
BITMAP
FC
FC
FC
FC
ENDCHAR
STARTCHAR 02EE
ENCODING 750
SWIDTH 666 0
DWIDTH 14 0
BBX 10 7 2 8
BITMAP
73C0
73C0
73C0
7380
7380
E300
C700
ENDCHAR
STARTCHAR 02F3
ENCODING 755
SWIDTH 523 0
DWIDTH 11 0
BBX 6 6 2 -5
BITMAP
38
7C
CC
CC
7C
38
ENDCHAR
STARTCHAR 02F7
ENCODING 759
SWIDTH 523 0
DWIDTH 11 0
BBX 7 2 2 -4
BITMAP
F6
9C
ENDCHAR
STARTCHAR 0300
ENCODING 768
SWIDTH 0 0
DWIDTH 0 0
BBX 5 4 -9 13
BITMAP
E0
60
30
18
ENDCHAR
STARTCHAR 0301
ENCODING 769
SWIDTH 0 0
DWIDTH 0 0
BBX 4 4 -6 13
BITMAP
30
70
E0
C0
ENDCHAR
STARTCHAR 0302
ENCODING 770
SWIDTH 0 0
DWIDTH 0 0
BBX 7 4 -9 13
BITMAP
38
3C
6E
C6
ENDCHAR
STARTCHAR 0303
ENCODING 771
SWIDTH 0 0
DWIDTH 0 0
BBX 7 4 -9 13
BITMAP
62
F2
DE
CC
ENDCHAR
STARTCHAR 0304
ENCODING 772
SWIDTH 0 0
DWIDTH 0 0
BBX 7 2 -9 14
BITMAP
FE
FE
ENDCHAR
STARTCHAR 0305
ENCODING 773
SWIDTH 0 0
DWIDTH 0 0
BBX 11 2 -11 14
BITMAP
FFE0
FFE0
ENDCHAR
STARTCHAR 0306
ENCODING 774
SWIDTH 0 0
DWIDTH 0 0
BBX 7 3 -9 13
BITMAP
C2
7E
3C
ENDCHAR
STARTCHAR 0307
ENCODING 775
SWIDTH 0 0
DWIDTH 0 0
BBX 4 4 -7 13
BITMAP
F0
F0
F0
F0
ENDCHAR
STARTCHAR 0308
ENCODING 776
SWIDTH 0 0
DWIDTH 0 0
BBX 6 3 -8 13
BITMAP
CC
CC
CC
ENDCHAR
STARTCHAR 0309
ENCODING 777
SWIDTH 0 0
DWIDTH 0 0
BBX 5 5 -8 13
BITMAP
70
98
08
18
30
ENDCHAR
STARTCHAR 030A
ENCODING 778
SWIDTH 0 0
DWIDTH 0 0
BBX 6 6 -8 13
BITMAP
70
F8
CC
CC
F8
70
ENDCHAR
STARTCHAR 030B
ENCODING 779
SWIDTH 0 0
DWIDTH 0 0
BBX 7 4 -8 13
BITMAP
66
6E
CC
D8
ENDCHAR
STARTCHAR 030C
ENCODING 780
SWIDTH 0 0
DWIDTH 0 0
BBX 7 4 -9 13
BITMAP
C6
66
3C
38
ENDCHAR
STARTCHAR 030D
ENCODING 781
SWIDTH 0 0
DWIDTH 0 0
BBX 2 4 -6 13
BITMAP
C0
C0
C0
C0
ENDCHAR
STARTCHAR 030E
ENCODING 782
SWIDTH 0 0
DWIDTH 0 0
BBX 6 4 -8 13
BITMAP
CC
CC
CC
CC
ENDCHAR
STARTCHAR 030F
ENCODING 783
SWIDTH 0 0
DWIDTH 0 0
BBX 8 4 -10 13
BITMAP
CC
66
76
33
ENDCHAR
STARTCHAR 0310
ENCODING 784
SWIDTH 0 0
DWIDTH 0 0
BBX 7 5 -9 13
BITMAP
38
38
FA
7E
3C
ENDCHAR
STARTCHAR 0311
ENCODING 785
SWIDTH 0 0
DWIDTH 0 0
BBX 7 3 -9 13
BITMAP
7E
46
C2
ENDCHAR
STARTCHAR 0312
ENCODING 786
SWIDTH 0 0
DWIDTH 0 0
BBX 3 3 -5 9
BITMAP
60
E0
E0
ENDCHAR
STARTCHAR 0313
ENCODING 787
SWIDTH 0 0
DWIDTH 0 0
BBX 3 6 -6 12
BITMAP
E0
E0
E0
20
E0
80
ENDCHAR
STARTCHAR 0314
ENCODING 788
SWIDTH 0 0
DWIDTH 0 0
BBX 3 5 -6 12
BITMAP
E0
E0
E0
C0
60
ENDCHAR
STARTCHAR 0315
ENCODING 789
SWIDTH 0 0
DWIDTH 0 0
BBX 4 4 -2 13
BITMAP
70
60
E0
C0
ENDCHAR
STARTCHAR 0316
ENCODING 790
SWIDTH 0 0
DWIDTH 0 0
BBX 5 4 -9 -6
BITMAP
E0
60
30
18
ENDCHAR
STARTCHAR 0317
ENCODING 791
SWIDTH 0 0
DWIDTH 0 0
BBX 4 4 -6 -6
BITMAP
30
70
E0
C0
ENDCHAR
STARTCHAR 0318
ENCODING 792
SWIDTH 0 0
DWIDTH 0 0
BBX 4 5 -8 -5
BITMAP
30
30
F0
30
30
ENDCHAR
STARTCHAR 0319
ENCODING 793
SWIDTH 0 0
DWIDTH 0 0
BBX 3 5 -6 -5
BITMAP
C0
C0
E0
C0
C0
ENDCHAR
STARTCHAR 031A
ENCODING 794
SWIDTH 0 0
DWIDTH 0 0
BBX 6 6 -5 14
BITMAP
FC
FC
0C
0C
0C
0C
ENDCHAR
STARTCHAR 031B
ENCODING 795
SWIDTH 0 0
DWIDTH 0 0
BBX 4 5 -4 8
BITMAP
10
10
90
F0
20
ENDCHAR
STARTCHAR 031C
ENCODING 796
SWIDTH 0 0
DWIDTH 0 0
BBX 2 5 -7 -5
BITMAP
40
C0
C0
C0
40
ENDCHAR
STARTCHAR 031D
ENCODING 797
SWIDTH 0 0
DWIDTH 0 0
BBX 6 4 -8 -5
BITMAP
30
30
FC
FC
ENDCHAR
STARTCHAR 031E
ENCODING 798
SWIDTH 0 0
DWIDTH 0 0
BBX 6 4 -8 -5
BITMAP
FC
FC
30
30
ENDCHAR
STARTCHAR 031F
ENCODING 799
SWIDTH 0 0
DWIDTH 0 0
BBX 5 5 -8 -5
BITMAP
30
30
F8
30
30
ENDCHAR
STARTCHAR 0320
ENCODING 800
SWIDTH 0 0
DWIDTH 0 0
BBX 6 2 -8 -4
BITMAP
FC
FC
ENDCHAR
STARTCHAR 0321
ENCODING 801
SWIDTH 0 0
DWIDTH 0 0
BBX 7 7 -9 -5
BITMAP
0E
0E
0E
1E
FE
FC
F0
ENDCHAR
STARTCHAR 0322
ENCODING 802
SWIDTH 0 0
DWIDTH 0 0
BBX 7 7 -9 -5
BITMAP
F0
F0
F0
F0
7E
7E
0E
ENDCHAR
STARTCHAR 0323
ENCODING 803
SWIDTH 0 0
DWIDTH 0 0
BBX 4 3 -7 -4
BITMAP
F0
F0
F0
ENDCHAR
STARTCHAR 0324
ENCODING 804
SWIDTH 0 0
DWIDTH 0 0
BBX 6 3 -8 -5
BITMAP
CC
CC
CC
ENDCHAR
STARTCHAR 0325
ENCODING 805
SWIDTH 0 0
DWIDTH 0 0
BBX 5 5 -8 -5
BITMAP
30
78
C8
F8
70
ENDCHAR
STARTCHAR 0326
ENCODING 806
SWIDTH 0 0
DWIDTH 0 0
BBX 4 3 -7 -5
BITMAP
70
60
C0
ENDCHAR
STARTCHAR 0327
ENCODING 807
SWIDTH 0 0
DWIDTH 0 0
BBX 5 4 -8 -4
BITMAP
10
18
F8
F0
ENDCHAR
STARTCHAR 0328
ENCODING 808
SWIDTH 0 0
DWIDTH 0 0
BBX 4 4 -7 -4
BITMAP
40
C0
F0
70
ENDCHAR
STARTCHAR 0329
ENCODING 809
SWIDTH 0 0
DWIDTH 0 0
BBX 2 4 -6 -5
BITMAP
C0
C0
C0
C0
ENDCHAR
STARTCHAR 032A
ENCODING 810
SWIDTH 0 0
DWIDTH 0 0
BBX 7 4 -9 -5
BITMAP
FE
FE
C6
C6
ENDCHAR
STARTCHAR 032B
ENCODING 811
SWIDTH 0 0
DWIDTH 0 0
BBX 8 3 -9 -5
BITMAP
9B
FF
FE
ENDCHAR
STARTCHAR 032C
ENCODING 812
SWIDTH 0 0
DWIDTH 0 0
BBX 7 4 -9 -5
BITMAP
C6
66
3C
38
ENDCHAR
STARTCHAR 032D
ENCODING 813
SWIDTH 0 0
DWIDTH 0 0
BBX 7 4 -9 -5
BITMAP
38
3C
6E
C6
ENDCHAR
STARTCHAR 032E
ENCODING 814
SWIDTH 0 0
DWIDTH 0 0
BBX 7 3 -9 -5
BITMAP
C2
7E
3C
ENDCHAR
STARTCHAR 032F
ENCODING 815
SWIDTH 0 0
DWIDTH 0 0
BBX 7 3 -9 -5
BITMAP
3C
7E
C2
ENDCHAR
STARTCHAR 0330
ENCODING 816
SWIDTH 0 0
DWIDTH 0 0
BBX 7 4 -9 -5
BITMAP
62
F2
DE
CC
ENDCHAR
STARTCHAR 0331
ENCODING 817
SWIDTH 0 0
DWIDTH 0 0
BBX 7 2 -9 -4
BITMAP
FE
FE
ENDCHAR
STARTCHAR 0332
ENCODING 818
SWIDTH 0 0
DWIDTH 0 0
BBX 11 2 -11 -5
BITMAP
FFE0
FFE0
ENDCHAR
STARTCHAR 0333
ENCODING 819
SWIDTH 0 0
DWIDTH 0 0
BBX 11 5 -11 -5
BITMAP
FFE0
FFE0
0000
FFE0
FFE0
ENDCHAR
STARTCHAR 0334
ENCODING 820
SWIDTH 0 0
DWIDTH 0 0
BBX 13 3 -13 4
BITMAP
7E08
FFF8
C3F0
ENDCHAR
STARTCHAR 0335
ENCODING 821
SWIDTH 0 0
DWIDTH 0 0
BBX 8 2 -10 4
BITMAP
FF
FF
ENDCHAR
STARTCHAR 0336
ENCODING 822
SWIDTH 0 0
DWIDTH 0 0
BBX 16 2 -18 4
BITMAP
FFFF
FFFF
ENDCHAR
STARTCHAR 0337
ENCODING 823
SWIDTH 0 0
DWIDTH 0 0
BBX 12 13 -13 -1
BITMAP
0030
0060
00C0
0180
0300
0600
0C00
1C00
3800
3000
6000
C000
8000
ENDCHAR
STARTCHAR 0338
ENCODING 824
SWIDTH 0 0
DWIDTH 0 0
BBX 16 16 -17 -1
BITMAP
0001
0003
0006
000C
0018
0030
0060
00C0
0180
0300
0600
0C00
1800
3000
6000
C000
ENDCHAR
STARTCHAR 0339
ENCODING 825
SWIDTH 0 0
DWIDTH 0 0
BBX 2 5 -6 -5
BITMAP
80
C0
40
C0
C0
ENDCHAR
STARTCHAR 033A
ENCODING 826
SWIDTH 0 0
DWIDTH 0 0
BBX 7 4 -9 -5
BITMAP
C6
C6
FE
FE
ENDCHAR
STARTCHAR 033B
ENCODING 827
SWIDTH 0 0
DWIDTH 0 0
BBX 5 5 -7 -5
BITMAP
F8
F8
88
88
F8
ENDCHAR
STARTCHAR 033C
ENCODING 828
SWIDTH 0 0
DWIDTH 0 0
BBX 8 3 -9 -5
BITMAP
FE
FF
9B
ENDCHAR
STARTCHAR 033D
ENCODING 829
SWIDTH 0 0
DWIDTH 0 0
BBX 5 6 -8 12
BITMAP
40
F8
78
78
F8
40
ENDCHAR
STARTCHAR 033E
ENCODING 830
SWIDTH 0 0
DWIDTH 0 0
BBX 3 6 -6 12
BITMAP
60
C0
60
20
E0
80
ENDCHAR
STARTCHAR 033F
ENCODING 831
SWIDTH 0 0
DWIDTH 0 0
BBX 11 5 -11 11
BITMAP
FFE0
FFE0
0000
FFE0
FFE0
ENDCHAR
STARTCHAR 0340
ENCODING 832
SWIDTH 0 0
DWIDTH 0 0
BBX 5 4 -9 13
BITMAP
E0
60
30
18
ENDCHAR
STARTCHAR 0341
ENCODING 833
SWIDTH 0 0
DWIDTH 0 0
BBX 5 4 -6 13
BITMAP
38
70
E0
C0
ENDCHAR
STARTCHAR 0342
ENCODING 834
SWIDTH 0 0
DWIDTH 0 0
BBX 7 4 -9 13
BITMAP
62
72
DE
CC
ENDCHAR
STARTCHAR 0343
ENCODING 835
SWIDTH 0 0
DWIDTH 0 0
BBX 3 6 -6 12
BITMAP
E0
E0
E0
20
E0
80
ENDCHAR
STARTCHAR 0344
ENCODING 836
SWIDTH 0 0
DWIDTH 0 0
BBX 6 8 -8 13
BITMAP
0C
18
30
70
00
CC
CC
CC
ENDCHAR
STARTCHAR 0345
ENCODING 837
SWIDTH 0 0
DWIDTH 0 0
BBX 2 3 -6 -4
BITMAP
C0
C0
C0
ENDCHAR
STARTCHAR 0346
ENCODING 838
SWIDTH 0 0
DWIDTH 0 0
BBX 6 4 -8 13
BITMAP
FC
FC
8C
8C
ENDCHAR
STARTCHAR 0347
ENCODING 839
SWIDTH 0 0
DWIDTH 0 0
BBX 5 4 -8 -5
BITMAP
F8
00
F8
F8
ENDCHAR
STARTCHAR 0348
ENCODING 840
SWIDTH 0 0
DWIDTH 0 0
BBX 5 4 -8 -5
BITMAP
D8
D8
D8
D8
ENDCHAR
STARTCHAR 0349
ENCODING 841
SWIDTH 0 0
DWIDTH 0 0
BBX 5 5 -8 -5
BITMAP
F8
F8
18
18
18
ENDCHAR
STARTCHAR 034A
ENCODING 842
SWIDTH 0 0
DWIDTH 0 0
BBX 7 4 -9 13
BITMAP
08
7A
DE
F4
ENDCHAR
STARTCHAR 034B
ENCODING 843
SWIDTH 0 0
DWIDTH 0 0
BBX 7 6 -9 12
BITMAP
0C
0C
72
DE
C4
30
ENDCHAR
STARTCHAR 034C
ENCODING 844
SWIDTH 0 0
DWIDTH 0 0
BBX 7 6 -9 12
BITMAP
72
FE
DE
72
FE
CC
ENDCHAR
STARTCHAR 034D
ENCODING 845
SWIDTH 0 0
DWIDTH 0 0
BBX 8 4 -9 -5
BITMAP
C6
FF
C2
46
ENDCHAR
STARTCHAR 034E
ENCODING 846
SWIDTH 0 0
DWIDTH 0 0
BBX 5 4 -8 -5
BITMAP
20
78
E8
20
ENDCHAR
STARTCHAR 034F
ENCODING 847
SWIDTH 0 0
DWIDTH 0 0
BBX 0 0 0 0
BITMAP
ENDCHAR
STARTCHAR 0351
ENCODING 849
SWIDTH 0 0
DWIDTH 0 0
BBX 3 6 -7 13
BITMAP
20
60
C0
C0
60
60
ENDCHAR
STARTCHAR 0352
ENCODING 850
SWIDTH 0 0
DWIDTH 0 0
BBX 7 5 -9 13
BITMAP
7E
46
FA
38
38
ENDCHAR
STARTCHAR 0353
ENCODING 851
SWIDTH 0 0
DWIDTH 0 0
BBX 5 5 -8 -5
BITMAP
40
F8
70
78
50
ENDCHAR
STARTCHAR 0357
ENCODING 855
SWIDTH 0 0
DWIDTH 0 0
BBX 3 6 -7 13
BITMAP
80
E0
60
20
60
C0
ENDCHAR
STARTCHAR 0358
ENCODING 856
SWIDTH 0 0
DWIDTH 0 0
BBX 3 3 -3 13
BITMAP
E0
E0
E0
ENDCHAR
STARTCHAR 035A
ENCODING 858
SWIDTH 0 0
DWIDTH 0 0
BBX 8 5 -9 -5
BITMAP
6E
FF
93
FB
7E
ENDCHAR
STARTCHAR 035C
ENCODING 860
SWIDTH 0 0
DWIDTH 0 0
BBX 19 3 -9 -5
BITMAP
E001E0
7FFFC0
0FFC00
ENDCHAR
STARTCHAR 035D
ENCODING 861
SWIDTH 0 0
DWIDTH 0 0
BBX 19 3 -9 17
BITMAP
E001E0
7FFFC0
0FFC00
ENDCHAR
STARTCHAR 035E
ENCODING 862
SWIDTH 0 0
DWIDTH 0 0
BBX 18 2 -9 17
BITMAP
FFFFC0
FFFFC0
ENDCHAR
STARTCHAR 035F
ENCODING 863
SWIDTH 0 0
DWIDTH 0 0
BBX 18 2 -9 -4
BITMAP
FFFFC0
FFFFC0
ENDCHAR
STARTCHAR 0360
ENCODING 864
SWIDTH 0 0
DWIDTH 0 0
BBX 16 3 -8 16
BITMAP
1E03
7FFE
E0FC
ENDCHAR
STARTCHAR 0361
ENCODING 865
SWIDTH 0 0
DWIDTH 0 0
BBX 18 3 -9 16
BITMAP
3FFF00
FE1FC0
800040
ENDCHAR
STARTCHAR 0362
ENCODING 866
SWIDTH 0 0
DWIDTH 0 0
BBX 18 4 -9 -5
BITMAP
000080
FFFFC0
0000C0
000180
ENDCHAR
STARTCHAR 0370
ENCODING 880
SWIDTH 714 0
DWIDTH 15 0
BBX 11 15 2 0
BITMAP
F000
F000
F000
F000
F000
F000
FFE0
FFE0
FFE0
F000
F000
F000
F000
F000
F000
ENDCHAR
STARTCHAR 0371
ENCODING 881
SWIDTH 571 0
DWIDTH 12 0
BBX 8 11 2 0
BITMAP
E0
E0
E0
E0
FF
FF
E0
E0
E0
E0
E0
ENDCHAR
STARTCHAR 0372
ENCODING 882
SWIDTH 1000 0
DWIDTH 21 0
BBX 18 15 2 0
BITMAP
FFFFC0
FFFFC0
FFFFC0
F1E3C0
F1E3C0
F1E3C0
F1E3C0
F1E3C0
01E000
01E000
01E000
01E000
01E000
01E000
01E000
ENDCHAR
STARTCHAR 0373
ENCODING 883
SWIDTH 857 0
DWIDTH 18 0
BBX 14 15 2 0
BITMAP
FFFC
FFFC
FFFC
E7BC
E7BC
E7BC
E7BC
E7BC
0780
0780
0780
0780
0780
0780
0780
ENDCHAR
STARTCHAR 0374
ENCODING 884
SWIDTH 285 0
DWIDTH 6 0
BBX 3 5 2 12
BITMAP
E0
C0
C0
C0
C0
ENDCHAR
STARTCHAR 0375
ENCODING 885
SWIDTH 285 0
DWIDTH 6 0
BBX 3 5 2 -4
BITMAP
60
C0
C0
C0
C0
ENDCHAR
STARTCHAR 0376
ENCODING 886
SWIDTH 857 0
DWIDTH 18 0
BBX 14 15 2 0
BITMAP
F07C
F0FC
F0FC
F1FC
F1FC
F3BC
F3BC
F73C
F73C
FE3C
FE3C
FC3C
FC3C
F83C
F83C
ENDCHAR
STARTCHAR 0377
ENCODING 887
SWIDTH 714 0
DWIDTH 15 0
BBX 11 11 2 0
BITMAP
E1E0
E3E0
E3E0
E7E0
EFE0
EFE0
FDE0
FDE0
F9E0
F9E0
F1E0
ENDCHAR
STARTCHAR 037A
ENCODING 890
SWIDTH 523 0
DWIDTH 11 0
BBX 3 3 4 -4
BITMAP
C0
C0
E0
ENDCHAR
STARTCHAR 037B
ENCODING 891
SWIDTH 571 0
DWIDTH 12 0
BBX 10 11 1 0
BITMAP
7E00
FF00
8780
03C0
03C0
03C0
03C0
03C0
8780
FF00
7E00
ENDCHAR
STARTCHAR 037C
ENCODING 892
SWIDTH 571 0
DWIDTH 12 0
BBX 10 11 1 0
BITMAP
1F80
3FC0
7840
F000
F780
F780
F780
F780
7840
3FC0
1F80
ENDCHAR
STARTCHAR 037D
ENCODING 893
SWIDTH 571 0
DWIDTH 12 0
BBX 10 11 1 0
BITMAP
7E00
FF00
8780
03C0
7BC0
7BC0
7BC0
7BC0
8780
FF00
7E00
ENDCHAR
STARTCHAR 037E
ENCODING 894
SWIDTH 380 0
DWIDTH 8 0
BBX 5 14 1 -3
BITMAP
78
78
78
78
00
00
00
78
78
78
78
70
60
E0
ENDCHAR
STARTCHAR 037F
ENCODING 895
SWIDTH 380 0
DWIDTH 8 0
BBX 7 19 -1 -4
BITMAP
1E
1E
1E
1E
1E
1E
1E
1E
1E
1E
1E
1E
1E
1E
1E
1E
3C
FC
F0
ENDCHAR
STARTCHAR 0384
ENCODING 900
SWIDTH 428 0
DWIDTH 9 0
BBX 5 4 4 13
BITMAP
38
70
60
C0
ENDCHAR
STARTCHAR 0385
ENCODING 901
SWIDTH 523 0
DWIDTH 11 0
BBX 7 8 2 13
BITMAP
0E
1C
18
30
00
CC
CC
CC
ENDCHAR
STARTCHAR 0386
ENCODING 902
SWIDTH 809 0
DWIDTH 17 0
BBX 15 17 1 0
BITMAP
3800
7000
67C0
C7E0
0FE0
0FE0
0EF0
1EF0
1C70
3C78
3C38
3FFC
7FFC
701C
701E
F01E
F00E
ENDCHAR
STARTCHAR 0387
ENCODING 903
SWIDTH 380 0
DWIDTH 8 0
BBX 4 4 2 5
BITMAP
F0
F0
F0
F0
ENDCHAR
STARTCHAR 0388
ENCODING 904
SWIDTH 857 0
DWIDTH 18 0
BBX 16 17 0 0
BITMAP
3800
7000
67FF
C7FF
0780
0780
0780
0780
07FF
07FF
0780
0780
0780
0780
0780
07FF
07FF
ENDCHAR
STARTCHAR 0389
ENCODING 905
SWIDTH 1000 0
DWIDTH 21 0
BBX 19 17 0 0
BITMAP
380000
700000
6781E0
C781E0
0781E0
0781E0
0781E0
0781E0
07FFE0
07FFE0
0781E0
0781E0
0781E0
0781E0
0781E0
0781E0
0781E0
ENDCHAR
STARTCHAR 038A
ENCODING 906
SWIDTH 571 0
DWIDTH 12 0
BBX 9 17 0 0
BITMAP
3800
7000
6780
C780
0780
0780
0780
0780
0780
0780
0780
0780
0780
0780
0780
0780
0780
ENDCHAR
STARTCHAR 038C
ENCODING 908
SWIDTH 904 0
DWIDTH 19 0
BBX 18 17 0 0
BITMAP
380000
700000
63F800
CFFE00
1F0F00
1E0780
3C0780
3C0780
3C07C0
3C07C0
3C07C0
3C0780
3C0780
1E0780
1F0F00
0FFE00
03F800
ENDCHAR
STARTCHAR 038E
ENCODING 910
SWIDTH 1000 0
DWIDTH 21 0
BBX 20 17 0 0
BITMAP
380000
700000
63C0F0
C3E0F0
01E1E0
00F3C0
00F3C0
007F80
003F00
003F00
001E00
001E00
001E00
001E00
001E00
001E00
001E00
ENDCHAR
STARTCHAR 038F
ENCODING 911
SWIDTH 904 0
DWIDTH 19 0
BBX 18 17 0 0
BITMAP
380000
700000
E1F800
C7FE00
0F0F00
1E0780
1E0780
3C0780
3C03C0
3C03C0
3C03C0
3C07C0
3E0780
1E0F80
0F0F00
7F9FC0
7F9FC0
ENDCHAR
STARTCHAR 0390
ENCODING 912
SWIDTH 380 0
DWIDTH 8 0
BBX 7 21 0 0
BITMAP
06
0C
18
38
00
E6
E6
E6
00
00
38
38
38
38
38
38
38
38
3C
3E
1E
ENDCHAR
STARTCHAR 0391
ENCODING 913
SWIDTH 761 0
DWIDTH 16 0
BBX 16 15 0 0
BITMAP
03E0
07E0
07E0
0FF0
0F70
0E78
1E78
1E38
1C3C
3FFC
3FFC
781E
780E
700F
F00F
ENDCHAR
STARTCHAR 0392
ENCODING 914
SWIDTH 761 0
DWIDTH 16 0
BBX 13 15 2 0
BITMAP
FFC0
FFE0
F1F0
F0F0
F0F0
F1F0
FFE0
FFE0
F0F0
F0F0
F078
F0F0
F0F0
FFF0
FFC0
ENDCHAR
STARTCHAR 0393
ENCODING 915
SWIDTH 619 0
DWIDTH 13 0
BBX 11 15 2 0
BITMAP
FFE0
FFE0
F000
F000
F000
F000
F000
F000
F000
F000
F000
F000
F000
F000
F000
ENDCHAR
STARTCHAR 0394
ENCODING 916
SWIDTH 761 0
DWIDTH 16 0
BBX 16 15 0 0
BITMAP
03E0
07E0
07E0
0FF0
0FF0
0E78
1E78
1E78
1E3C
3C3C
3C3C
7C1E
781E
7FFF
FFFF
ENDCHAR
STARTCHAR 0395
ENCODING 917
SWIDTH 666 0
DWIDTH 14 0
BBX 11 15 2 0
BITMAP
FFE0
FFE0
F000
F000
F000
F000
FFC0
FFC0
F000
F000
F000
F000
F000
FFE0
FFE0
ENDCHAR
STARTCHAR 0396
ENCODING 918
SWIDTH 714 0
DWIDTH 15 0
BBX 13 15 1 0
BITMAP
FFF8
FFF8
00F8
01F0
03E0
07E0
07C0
0F80
1F00
3F00
7E00
7C00
F800
FFF8
FFF8
ENDCHAR
STARTCHAR 0397
ENCODING 919
SWIDTH 857 0
DWIDTH 18 0
BBX 14 15 2 0
BITMAP
F03C
F03C
F03C
F03C
F03C
F03C
FFFC
FFFC
F03C
F03C
F03C
F03C
F03C
F03C
F03C
ENDCHAR
STARTCHAR 0398
ENCODING 920
SWIDTH 857 0
DWIDTH 18 0
BBX 16 15 1 0
BITMAP
07E0
1FF8
3C3C
781E
781E
F00F
F7EF
F7EF
F00F
F00F
781E
781E
3C3C
1FF8
07E0
ENDCHAR
STARTCHAR 0399
ENCODING 921
SWIDTH 380 0
DWIDTH 8 0
BBX 4 15 2 0
BITMAP
F0
F0
F0
F0
F0
F0
F0
F0
F0
F0
F0
F0
F0
F0
F0
ENDCHAR
STARTCHAR 039A
ENCODING 922
SWIDTH 761 0
DWIDTH 16 0
BBX 14 15 2 0
BITMAP
F07C
F0F8
F1F0
F3E0
F780
FF00
FE00
FE00
FF00
FF80
F7C0
F3E0
F1F0
F0F8
F07C
ENDCHAR
STARTCHAR 039B
ENCODING 923
SWIDTH 761 0
DWIDTH 16 0
BBX 16 15 0 0
BITMAP
03E0
07E0
07E0
0FF0
0FF0
0E78
1E78
1E38
1C3C
3C3C
3C1C
781E
781E
780F
F00F
ENDCHAR
STARTCHAR 039C
ENCODING 924
SWIDTH 1000 0
DWIDTH 21 0
BBX 17 15 2 0
BITMAP
F80F80
FC1F80
FC1F80
FC3F80
FE3F80
FE3F80
F77780
F77780
F3E780
F3E780
F1C780
F1C780
F00780
F00780
F00780
ENDCHAR
STARTCHAR 039D
ENCODING 925
SWIDTH 857 0
DWIDTH 18 0
BBX 14 15 2 0
BITMAP
F83C
F83C
FC3C
FC3C
FE3C
FE3C
F73C
F73C
F3BC
F3BC
F1FC
F1FC
F0FC
F0FC
F07C
ENDCHAR
STARTCHAR 039E
ENCODING 926
SWIDTH 619 0
DWIDTH 13 0
BBX 10 15 2 0
BITMAP
FFC0
FFC0
0000
0000
0000
0000
7F00
7F00
0000
0000
0000
0000
0000
FFC0
FFC0
ENDCHAR
STARTCHAR 039F
ENCODING 927
SWIDTH 857 0
DWIDTH 18 0
BBX 16 15 1 0
BITMAP
07E0
1FF8
3C3C
781E
781E
F00F
F00F
F00F
F00F
F00F
781E
781E
3C3C
1FF8
07E0
ENDCHAR
STARTCHAR 03A0
ENCODING 928
SWIDTH 857 0
DWIDTH 18 0
BBX 14 15 2 0
BITMAP
FFFC
FFFC
F03C
F03C
F03C
F03C
F03C
F03C
F03C
F03C
F03C
F03C
F03C
F03C
F03C
ENDCHAR
STARTCHAR 03A1
ENCODING 929
SWIDTH 714 0
DWIDTH 15 0
BBX 13 15 2 0
BITMAP
FFC0
FFE0
F0F0
F0F0
F0F8
F0F8
F0F0
F0F0
FFE0
FFC0
F000
F000
F000
F000
F000
ENDCHAR
STARTCHAR 03A3
ENCODING 931
SWIDTH 666 0
DWIDTH 14 0
BBX 11 15 2 0
BITMAP
FFE0
FFE0
F000
7800
3C00
1E00
0F00
0F00
0E00
1E00
3C00
7800
F000
FFE0
FFE0
ENDCHAR
STARTCHAR 03A4
ENCODING 932
SWIDTH 666 0
DWIDTH 14 0
BBX 14 15 0 0
BITMAP
FFFC
FFFC
0780
0780
0780
0780
0780
0780
0780
0780
0780
0780
0780
0780
0780
ENDCHAR
STARTCHAR 03A5
ENCODING 933
SWIDTH 714 0
DWIDTH 15 0
BBX 15 15 0 0
BITMAP
F01E
783C
7C7C
3C78
1EF0
1FF0
0FE0
07C0
07C0
03C0
03C0
03C0
03C0
03C0
03C0
ENDCHAR
STARTCHAR 03A6
ENCODING 934
SWIDTH 857 0
DWIDTH 18 0
BBX 16 15 1 0
BITMAP
03C0
03C0
0FF0
3FFC
7BDE
FBDE
F3CF
F3CF
F3CF
FBDE
7BDE
3FFC
0FF0
03C0
03C0
ENDCHAR
STARTCHAR 03A7
ENCODING 935
SWIDTH 761 0
DWIDTH 16 0
BBX 14 15 1 0
BITMAP
F03C
787C
7878
3CF0
1FE0
1FE0
0FC0
07C0
0FC0
1FE0
1EF0
3CF0
7878
F83C
F03C
ENDCHAR
STARTCHAR 03A8
ENCODING 936
SWIDTH 857 0
DWIDTH 18 0
BBX 16 15 1 0
BITMAP
F3CF
F3CF
F3CF
F3CF
F3CF
F3CF
F3CE
73CE
7BDE
3BDC
1FF8
0FF0
03C0
03C0
03C0
ENDCHAR
STARTCHAR 03A9
ENCODING 937
SWIDTH 857 0
DWIDTH 18 0
BBX 16 15 1 0
BITMAP
07E0
1FF8
3C3C
781E
781E
F00F
F00F
F00F
F00F
F01F
781E
781E
3C3C
FE7F
FE7F
ENDCHAR
STARTCHAR 03AA
ENCODING 938
SWIDTH 380 0
DWIDTH 8 0
BBX 6 20 1 0
BITMAP
CC
CC
CC
00
00
78
78
78
78
78
78
78
78
78
78
78
78
78
78
78
ENDCHAR
STARTCHAR 03AB
ENCODING 939
SWIDTH 714 0
DWIDTH 15 0
BBX 15 20 0 0
BITMAP
0EE0
0EE0
0EE0
0000
0000
F01E
783C
7C7C
3C78
1EF0
1FF0
0FE0
07C0
07C0
03C0
03C0
03C0
03C0
03C0
03C0
ENDCHAR
STARTCHAR 03AC
ENCODING 940
SWIDTH 666 0
DWIDTH 14 0
BBX 13 17 1 0
BITMAP
0180
0300
0600
0E00
0000
0000
1F70
7FF0
F9F0
F1E0
F1E0
F1E0
F1E0
F1E0
73E0
7FF8
3F78
ENDCHAR
STARTCHAR 03AD
ENCODING 941
SWIDTH 571 0
DWIDTH 12 0
BBX 9 17 1 0
BITMAP
0380
0700
0E00
0C00
0000
0000
3F00
7F80
F080
7000
7E00
7E00
F000
E000
F080
7F80
3F00
ENDCHAR
STARTCHAR 03AE
ENCODING 942
SWIDTH 714 0
DWIDTH 15 0
BBX 11 21 2 -4
BITMAP
0380
0700
0600
0C00
0000
0000
E7C0
EFE0
F1E0
F0E0
E0E0
E0E0
E0E0
E0E0
E0E0
E0E0
E0E0
00E0
00E0
00E0
00E0
ENDCHAR
STARTCHAR 03AF
ENCODING 943
SWIDTH 380 0
DWIDTH 8 0
BBX 5 17 2 0
BITMAP
38
70
60
C0
00
00
E0
E0
E0
E0
E0
E0
E0
E0
E0
F8
F8
ENDCHAR
STARTCHAR 03B0
ENCODING 944
SWIDTH 666 0
DWIDTH 14 0
BBX 11 21 2 0
BITMAP
0300
0600
0C00
1C00
0000
7300
7300
7300
0000
0000
E180
E1C0
E1E0
E0E0
E0E0
E0E0
E0E0
E1E0
F3C0
FFC0
7F00
ENDCHAR
STARTCHAR 03B1
ENCODING 945
SWIDTH 666 0
DWIDTH 14 0
BBX 13 11 1 0
BITMAP
1F70
7FF0
F9F0
F1E0
F1E0
F1E0
F1E0
F1E0
73E0
7FF8
3F78
ENDCHAR
STARTCHAR 03B2
ENCODING 946
SWIDTH 714 0
DWIDTH 15 0
BBX 12 20 2 -4
BITMAP
1F00
3F80
71C0
F1C0
E1C0
E1C0
E3C0
E780
E7E0
E1E0
E0F0
F0F0
F0F0
F1F0
EFE0
E7C0
E000
E000
E000
E000
ENDCHAR
STARTCHAR 03B3
ENCODING 947
SWIDTH 666 0
DWIDTH 14 0
BBX 14 15 0 -4
BITMAP
F03C
F838
3C78
1C78
1C70
1EF0
0EE0
0FE0
07C0
07C0
07C0
0380
0380
0380
0380
ENDCHAR
STARTCHAR 03B4
ENCODING 948
SWIDTH 666 0
DWIDTH 14 0
BBX 13 16 1 0
BITMAP
1FC0
3FE0
7820
7800
7800
3F80
3FE0
78F0
F0F0
F070
F078
F070
F0F0
78F0
3FE0
1F80
ENDCHAR
STARTCHAR 03B5
ENCODING 949
SWIDTH 571 0
DWIDTH 12 0
BBX 9 11 1 0
BITMAP
3F00
7F80
F080
7000
7E00
7E00
F000
E000
F080
7F80
3F00
ENDCHAR
STARTCHAR 03B6
ENCODING 950
SWIDTH 571 0
DWIDTH 12 0
BBX 10 20 1 -4
BITMAP
FFC0
FFC0
0380
0F00
1E00
3C00
7800
7000
F000
F000
F000
F000
F000
7800
7F80
1FC0
00C0
00C0
01C0
0180
ENDCHAR
STARTCHAR 03B7
ENCODING 951
SWIDTH 714 0
DWIDTH 15 0
BBX 11 15 2 -4
BITMAP
E7C0
EFE0
F1E0
F0E0
E0E0
E0E0
E0E0
E0E0
E0E0
E0E0
E0E0
00E0
00E0
00E0
00E0
ENDCHAR
STARTCHAR 03B8
ENCODING 952
SWIDTH 666 0
DWIDTH 14 0
BBX 13 16 1 0
BITMAP
1F80
3FE0
79E0
78F0
F0F0
F070
F070
FFF8
FFF8
F070
F070
F0F0
70F0
79E0
3FE0
1F80
ENDCHAR
STARTCHAR 03B9
ENCODING 953
SWIDTH 380 0
DWIDTH 8 0
BBX 5 11 2 0
BITMAP
E0
E0
E0
E0
E0
E0
E0
E0
E0
F8
F8
ENDCHAR
STARTCHAR 03BA
ENCODING 954
SWIDTH 714 0
DWIDTH 15 0
BBX 11 11 2 0
BITMAP
E3E0
E780
EF00
FE00
FE00
FF00
FF80
E780
E3C0
E3E0
E1E0
ENDCHAR
STARTCHAR 03BB
ENCODING 955
SWIDTH 619 0
DWIDTH 13 0
BBX 11 16 1 0
BITMAP
F800
FC00
1E00
1E00
0E00
0F00
0F00
1F00
1F80
3F80
3BC0
3BC0
79C0
71E0
F1E0
E0E0
ENDCHAR
STARTCHAR 03BC
ENCODING 956
SWIDTH 714 0
DWIDTH 15 0
BBX 13 15 2 -4
BITMAP
E0E0
E0E0
E0E0
E0E0
E0E0
E0E0
E0E0
F0E0
F1E0
FFF8
EF78
E000
E000
E000
E000
ENDCHAR
STARTCHAR 03BD
ENCODING 957
SWIDTH 666 0
DWIDTH 14 0
BBX 12 11 1 0
BITMAP
E0E0
E0F0
F070
7070
7870
38F0
38F0
3DE0
1DC0
1F80
0F00
ENDCHAR
STARTCHAR 03BE
ENCODING 958
SWIDTH 571 0
DWIDTH 12 0
BBX 10 20 1 -4
BITMAP
FFC0
FFC0
3C00
7800
7800
7800
3C00
0F80
7F80
F800
F000
F000
F000
F800
7F80
1FC0
00C0
00C0
01C0
0180
ENDCHAR
STARTCHAR 03BF
ENCODING 959
SWIDTH 666 0
DWIDTH 14 0
BBX 13 11 1 0
BITMAP
1F80
3FE0
78F0
F0F0
F070
F078
F070
F0F0
78F0
3FE0
1F80
ENDCHAR
STARTCHAR 03C0
ENCODING 960
SWIDTH 809 0
DWIDTH 17 0
BBX 14 11 1 0
BITMAP
FFFC
FFFC
3C70
3C70
3C70
3C70
3C70
3C70
3C78
3C7C
3C3C
ENDCHAR
STARTCHAR 03C1
ENCODING 961
SWIDTH 714 0
DWIDTH 15 0
BBX 12 15 2 -4
BITMAP
1F80
3FE0
71E0
F0F0
F0F0
E0F0
F0F0
F0F0
F1E0
EFE0
E780
E000
E000
E000
E000
ENDCHAR
STARTCHAR 03C2
ENCODING 962
SWIDTH 571 0
DWIDTH 12 0
BBX 10 15 1 -4
BITMAP
1F80
3FC0
7840
F000
F000
F000
F000
F000
7800
7F80
1FC0
00C0
00C0
03C0
0380
ENDCHAR
STARTCHAR 03C3
ENCODING 963
SWIDTH 761 0
DWIDTH 16 0
BBX 14 11 1 0
BITMAP
1FFC
7FFC
78F0
F0F0
F070
F078
F070
F0F0
78F0
3FE0
1F80
ENDCHAR
STARTCHAR 03C4
ENCODING 964
SWIDTH 619 0
DWIDTH 13 0
BBX 13 11 0 0
BITMAP
FFF8
FFF8
0700
0700
0700
0700
0700
0700
0780
07C0
03C0
ENDCHAR
STARTCHAR 03C5
ENCODING 965
SWIDTH 666 0
DWIDTH 14 0
BBX 11 11 2 0
BITMAP
E180
E1C0
E1E0
E0E0
E0E0
E0E0
E0E0
E1E0
F3C0
FFC0
7F00
ENDCHAR
STARTCHAR 03C6
ENCODING 966
SWIDTH 761 0
DWIDTH 16 0
BBX 14 15 1 -4
BITMAP
19E0
3BF8
7BBC
73BC
F79C
F79C
F7BC
77BC
7FBC
3FF8
1FE0
0780
0780
0780
0780
ENDCHAR
STARTCHAR 03C7
ENCODING 967
SWIDTH 666 0
DWIDTH 14 0
BBX 12 15 1 -4
BITMAP
F0F0
F9E0
39E0
3FC0
1F80
1F80
0F00
0F00
1F00
1F00
3F80
3B80
7BC0
F1F0
F0F0
ENDCHAR
STARTCHAR 03C8
ENCODING 968
SWIDTH 809 0
DWIDTH 17 0
BBX 14 15 1 -4
BITMAP
F79C
F79C
F79C
F79C
F79C
F79C
F7BC
77BC
7FB8
3FF8
1FE0
0780
0780
0780
0780
ENDCHAR
STARTCHAR 03C9
ENCODING 969
SWIDTH 857 0
DWIDTH 18 0
BBX 16 11 1 0
BITMAP
381E
700E
700F
F00F
F3CF
F3C7
F3C7
F3CF
F3CF
7F7E
3E3C
ENDCHAR
STARTCHAR 03CA
ENCODING 970
SWIDTH 380 0
DWIDTH 8 0
BBX 7 16 0 0
BITMAP
EE
EE
EE
00
00
38
38
38
38
38
38
38
38
3C
3E
1E
ENDCHAR
STARTCHAR 03CB
ENCODING 971
SWIDTH 666 0
DWIDTH 14 0
BBX 11 16 2 0
BITMAP
3300
3300
3300
0000
0000
E180
E1C0
E1E0
E0E0
E0E0
E0E0
E0E0
E1E0
F3C0
FFC0
7F00
ENDCHAR
STARTCHAR 03CC
ENCODING 972
SWIDTH 666 0
DWIDTH 14 0
BBX 13 17 1 0
BITMAP
0380
0300
0600
0C00
0000
0000
1F80
3FE0
78F0
F0F0
F070
F078
F070
F0F0
78F0
3FE0
1F80
ENDCHAR
STARTCHAR 03CD
ENCODING 973
SWIDTH 666 0
DWIDTH 14 0
BBX 11 17 2 0
BITMAP
0380
0700
0E00
0C00
0000
0000
E180
E1C0
E1E0
E0E0
E0E0
E0E0
E0E0
E1E0
F3C0
FFC0
7F00
ENDCHAR
STARTCHAR 03CE
ENCODING 974
SWIDTH 857 0
DWIDTH 18 0
BBX 16 17 1 0
BITMAP
0070
00E0
00C0
0180
0000
0000
381E
700E
700F
F00F
F3CF
F3C7
F3C7
F3CF
F3CF
7F7E
3E3C
ENDCHAR
STARTCHAR 03CF
ENCODING 975
SWIDTH 761 0
DWIDTH 16 0
BBX 14 19 2 -4
BITMAP
F07C
F0F0
F1E0
F3C0
F780
FF00
FE00
FE00
FF00
FF80
F7C0
F3E0
F1F0
F0F8
F07C
003C
0038
0070
00E0
ENDCHAR
STARTCHAR 03D0
ENCODING 976
SWIDTH 666 0
DWIDTH 14 0
BBX 12 16 1 0
BITMAP
1F80
3FC0
7DC0
71E0
F0E0
F1E0
F7C0
FFC0
FFE0
F0E0
F0F0
70F0
70E0
7DE0
3FE0
1FC0
ENDCHAR
STARTCHAR 03D1
ENCODING 977
SWIDTH 666 0
DWIDTH 14 0
BBX 12 16 1 0
BITMAP
1F80
3FC0
3DE0
78E0
78F0
3870
3C70
1FF0
0FF0
F0F0
F0F0
F0E0
70E0
79E0
3FC0
1F80
ENDCHAR
STARTCHAR 03D2
ENCODING 978
SWIDTH 761 0
DWIDTH 16 0
BBX 15 15 0 1
BITMAP
F83E
FC7E
FEFE
0EE6
07E0
07C0
07C0
03C0
03C0
03C0
03C0
03C0
03C0
03C0
03C0
ENDCHAR
STARTCHAR 03D3
ENCODING 979
SWIDTH 1000 0
DWIDTH 21 0
BBX 20 17 0 0
BITMAP
380000
700000
67C1F0
C7E3F0
07F7F0
007730
003F00
003E00
003E00
001E00
001E00
001E00
001E00
001E00
001E00
001E00
001E00
ENDCHAR
STARTCHAR 03D4
ENCODING 980
SWIDTH 761 0
DWIDTH 16 0
BBX 15 20 0 0
BITMAP
0EE0
0EE0
0EE0
0000
0000
F83E
FC7E
FEFE
0EE6
07E0
07C0
07C0
03C0
03C0
03C0
03C0
03C0
03C0
03C0
03C0
ENDCHAR
STARTCHAR 03D5
ENCODING 981
SWIDTH 809 0
DWIDTH 17 0
BBX 14 20 1 -4
BITMAP
0780
0780
0780
0780
0FC0
3FF8
7FF8
7FBC
F7BC
F79C
F79C
F79C
7FBC
7FFC
3FF8
1FE0
0780
0780
0780
0780
ENDCHAR
STARTCHAR 03D6
ENCODING 982
SWIDTH 857 0
DWIDTH 18 0
BBX 18 11 0 0
BITMAP
FFFFC0
FFFFC0
780780
780780
79E380
79E380
79E780
79E780
7FFF80
3FFF00
1F3E00
ENDCHAR
STARTCHAR 03D7
ENCODING 983
SWIDTH 761 0
DWIDTH 16 0
BBX 13 15 1 -3
BITMAP
FC78
FC78
9EF8
1FF0
1FF0
1FC0
3FC0
7DC0
F9E8
F9F8
F0F8
0038
0370
03F0
03E0
ENDCHAR
STARTCHAR 03D8
ENCODING 984
SWIDTH 857 0
DWIDTH 18 0
BBX 16 20 1 -4
BITMAP
0380
1FF0
3FFC
7E7E
781E
F81E
F00F
F00F
F00F
F00F
F01F
781E
783E
3FFC
3FF8
0FF0
03C0
03C0
03C0
03C0
ENDCHAR
STARTCHAR 03D9
ENCODING 985
SWIDTH 666 0
DWIDTH 14 0
BBX 13 16 1 -4
BITMAP
0F00
3FC0
7FE0
F8F0
F0F0
F070
F078
F070
F0F0
79F0
7FE0
1FC0
0F00
0F00
0F00
0F00
ENDCHAR
STARTCHAR 03DA
ENCODING 986
SWIDTH 714 0
DWIDTH 15 0
BBX 13 19 1 -4
BITMAP
0FF8
3FF8
3FF8
7800
7800
F000
F000
F000
F000
F000
7800
7C00
3F80
1FC0
0FE0
0060
0060
00E0
00C0
ENDCHAR
STARTCHAR 03DB
ENCODING 987
SWIDTH 571 0
DWIDTH 12 0
BBX 10 15 1 -4
BITMAP
3FC0
7FC0
F800
F000
F000
F000
F000
F000
7E00
7F00
1F80
0180
0180
0380
0300
ENDCHAR
STARTCHAR 03DC
ENCODING 988
SWIDTH 666 0
DWIDTH 14 0
BBX 11 15 2 0
BITMAP
FFE0
FFE0
F000
F000
F000
F000
FFC0
FFC0
F000
F000
F000
F000
F000
F000
F000
ENDCHAR
STARTCHAR 03DD
ENCODING 989
SWIDTH 476 0
DWIDTH 10 0
BBX 10 20 -1 -4
BITMAP
07C0
0FC0
1F40
1E00
1E00
1E00
1E00
1F80
1F80
1E00
1E00
1E00
1E00
1E00
1E00
1E00
1E00
3C00
FC00
F800
ENDCHAR
STARTCHAR 03DE
ENCODING 990
SWIDTH 714 0
DWIDTH 15 0
BBX 13 15 1 0
BITMAP
F800
FC00
3C00
3808
3830
39F0
3FF0
7FE0
7FE0
7DE0
61C0
01C0
01F0
01F0
00F0
ENDCHAR
STARTCHAR 03DF
ENCODING 991
SWIDTH 666 0
DWIDTH 14 0
BBX 10 16 2 0
BITMAP
1C00
3800
3800
3800
7000
7000
7000
FFC0
FF80
FF80
0380
0700
0700
0700
0E00
0E00
ENDCHAR
STARTCHAR 03E0
ENCODING 992
SWIDTH 904 0
DWIDTH 19 0
BBX 17 20 1 -4
BITMAP
070000
3FE000
FFF800
F8FC00
B83E00
387E00
38FF00
39EF00
39C700
01C780
03C780
03C780
03C780
03C780
03C780
03C700
000F00
000F00
000E00
001C00
ENDCHAR
STARTCHAR 03E1
ENCODING 993
SWIDTH 619 0
DWIDTH 13 0
BBX 10 16 1 -4
BITMAP
C000
F800
FC00
3E00
0F00
0F80
0F80
1B80
3BC0
77C0
6FC0
CDC0
00C0
00C0
00C0
00C0
ENDCHAR
STARTCHAR 03E2
ENCODING 994
SWIDTH 1095 0
DWIDTH 23 0
BBX 21 19 1 -4
BITMAP
1C01C0
3801E0
7800F0
7800F0
7000F0
F00078
F07078
F07078
F07078
F0F078
F0F8F8
78F8F0
7FDFF0
3FDFF0
1F8FE0
0001C0
000780
003E00
007800
ENDCHAR
STARTCHAR 03E3
ENCODING 995
SWIDTH 857 0
DWIDTH 18 0
BBX 15 15 1 -4
BITMAP
701C
701E
700E
F00E
F38E
F38E
F38E
F3DE
7FFE
7EFC
3E7C
0038
00F0
03E0
0F80
ENDCHAR
STARTCHAR 03E4
ENCODING 996
SWIDTH 809 0
DWIDTH 17 0
BBX 15 20 1 -4
BITMAP
0200
1E1E
3E1E
7C1E
781E
F81E
F01E
F01E
F01E
F01E
F03E
F83E
787E
7FFE
3FDE
1F9E
001E
001E
001E
001E
ENDCHAR
STARTCHAR 03E5
ENCODING 997
SWIDTH 714 0
DWIDTH 15 0
BBX 12 16 1 -4
BITMAP
0C00
3C70
7C70
F870
F070
F070
F070
F0F0
F0F0
79F0
7F70
3E70
0070
0070
0070
0070
ENDCHAR
STARTCHAR 03E6
ENCODING 998
SWIDTH 904 0
DWIDTH 19 0
BBX 16 19 2 -4
BITMAP
F000
F000
F000
F1E0
F7FC
FFFE
FC3E
F81F
F00F
F00F
F007
F00F
F00F
F00F
F01E
007C
01F8
0FF0
0780
ENDCHAR
STARTCHAR 03E7
ENCODING 999
SWIDTH 761 0
DWIDTH 16 0
BBX 13 12 1 0
BITMAP
0F18
3FF8
7FF8
70F0
71F0
7FF8
3F38
0038
0038
7078
FFF0
DFE0
ENDCHAR
STARTCHAR 03E8
ENCODING 1000
SWIDTH 714 0
DWIDTH 15 0
BBX 14 20 1 -4
BITMAP
0780
1FE0
3FF0
78F8
F078
003C
003C
0078
0078
00F0
01E0
03C0
0780
1F00
3E00
7C00
FC18
7FF8
3FF8
0FE0
ENDCHAR
STARTCHAR 03E9
ENCODING 1001
SWIDTH 666 0
DWIDTH 14 0
BBX 12 16 1 -4
BITMAP
0F00
3FC0
7FE0
70F0
00F0
00F0
00E0
01C0
0780
0F00
1E00
3C00
F800
7830
3FF0
1FC0
ENDCHAR
STARTCHAR 03EA
ENCODING 1002
SWIDTH 809 0
DWIDTH 17 0
BBX 14 16 1 0
BITMAP
600C
F83C
F87C
FC7C
1EF0
1FE0
0FE0
07C0
0FC0
0FE0
1FE0
3EF0
3C78
FFFC
FFFC
FFFC
ENDCHAR
STARTCHAR 03EB
ENCODING 1003
SWIDTH 666 0
DWIDTH 14 0
BBX 12 12 1 0
BITMAP
E070
F9F0
F9F0
3FC0
1F80
0F00
0F80
1F80
3FC0
79E0
FFF0
FFF0
ENDCHAR
STARTCHAR 03EC
ENCODING 1004
SWIDTH 761 0
DWIDTH 16 0
BBX 14 16 1 0
BITMAP
000C
0FFC
3FF0
7C00
79C0
F7F0
FFF8
F878
F07C
F03C
F03C
F07C
F878
7CF8
3FF0
1FE0
ENDCHAR
STARTCHAR 03ED
ENCODING 1005
SWIDTH 714 0
DWIDTH 15 0
BBX 12 16 2 0
BITMAP
0030
1FF0
3FC0
7800
F380
EFE0
FFE0
F0F0
F0F0
E0F0
E0F0
F0F0
F0F0
79E0
7FE0
1FC0
ENDCHAR
STARTCHAR 03EE
ENCODING 1006
SWIDTH 666 0
DWIDTH 14 0
BBX 13 19 1 -4
BITMAP
0F00
0F00
0F00
0F00
FFF8
FFF8
FFF8
CF38
0F00
0F00
0F00
0F00
0F00
0F00
0F00
0F00
0F00
0F00
0F00
ENDCHAR
STARTCHAR 03EF
ENCODING 1007
SWIDTH 571 0
DWIDTH 12 0
BBX 11 19 1 -4
BITMAP
1E00
1E00
1E00
1E00
FFE0
FFE0
9E60
1E00
1E00
1E00
1E00
1E00
1E00
1E00
1E00
1E00
1E00
1E00
1E00
ENDCHAR
STARTCHAR 03F0
ENCODING 1008
SWIDTH 761 0
DWIDTH 16 0
BBX 13 11 1 1
BITMAP
FC78
FC78
9EF8
1FF0
1FF0
1FC0
3FC0
7DC0
F9E8
F8F8
F078
ENDCHAR
STARTCHAR 03F1
ENCODING 1009
SWIDTH 714 0
DWIDTH 15 0
BBX 12 17 2 -5
BITMAP
0F00
3FC0
7FE0
F1F0
F0F0
E0F0
E0F0
F0F0
F0F0
F9E0
EFE0
E7C0
E000
F000
FFE0
7FE0
0FE0
ENDCHAR
STARTCHAR 03F2
ENCODING 1010
SWIDTH 571 0
DWIDTH 12 0
BBX 10 11 1 0
BITMAP
1F80
3FC0
7840
F000
F000
F000
F000
F000
7840
3FC0
1F80
ENDCHAR
STARTCHAR 03F3
ENCODING 1011
SWIDTH 333 0
DWIDTH 7 0
BBX 6 20 -1 -4
BITMAP
1C
1C
1C
1C
00
1C
1C
1C
1C
1C
1C
1C
1C
1C
1C
1C
1C
3C
FC
F8
ENDCHAR
STARTCHAR 03F4
ENCODING 1012
SWIDTH 857 0
DWIDTH 18 0
BBX 16 15 1 0
BITMAP
07E0
1FF8
3C3C
783E
781E
F81F
F01F
FFFF
FFFF
F00F
701E
781E
3C3C
1FF8
07E0
ENDCHAR
STARTCHAR 03F5
ENCODING 1013
SWIDTH 666 0
DWIDTH 14 0
BBX 11 12 1 0
BITMAP
07C0
1FE0
3FE0
7800
7000
FFE0
FFE0
7000
7800
7C20
3FE0
1FE0
ENDCHAR
STARTCHAR 03F6
ENCODING 1014
SWIDTH 666 0
DWIDTH 14 0
BBX 10 12 2 0
BITMAP
7C00
FF00
FF80
0780
03C0
FFC0
FFC0
03C0
03C0
0780
FF00
FE00
ENDCHAR
STARTCHAR 03F7
ENCODING 1015
SWIDTH 761 0
DWIDTH 16 0
BBX 13 15 2 0
BITMAP
F000
F000
FFC0
FFE0
F0F0
F0F0
F0F8
F0F8
F0F0
F0F0
FFE0
FFC0
F000
F000
F000
ENDCHAR
STARTCHAR 03F8
ENCODING 1016
SWIDTH 714 0
DWIDTH 15 0
BBX 12 20 2 -4
BITMAP
E000
E000
E000
E000
E000
E780
EFE0
F1E0
F0F0
F0F0
E0F0
F0F0
F0F0
F1E0
EFE0
E780
E000
E000
E000
E000
ENDCHAR
STARTCHAR 03F9
ENCODING 1017
SWIDTH 714 0
DWIDTH 15 0
BBX 13 15 1 0
BITMAP
07F0
1FF8
3E08
7800
7800
F000
F000
F000
F000
F000
7800
7800
3E08
1FF8
07F0
ENDCHAR
STARTCHAR 03FA
ENCODING 1018
SWIDTH 1000 0
DWIDTH 21 0
BBX 17 15 2 0
BITMAP
FC1F80
FC3F80
FE3F80
FF7F80
FFFF80
F7F780
F3E780
F1C780
F00780
F00780
F00780
F00780
F00780
F00780
F00780
ENDCHAR
STARTCHAR 03FB
ENCODING 1019
SWIDTH 714 0
DWIDTH 15 0
BBX 12 15 2 -4
BITMAP
F9F0
FBF0
FFF0
FFF0
EEF0
E0F0
E0F0
E0F0
E0F0
E0F0
E0F0
E000
E000
E000
E000
ENDCHAR
STARTCHAR 03FC
ENCODING 1020
SWIDTH 714 0
DWIDTH 15 0
BBX 13 16 1 -4
BITMAP
0780
1FE0
3FF0
78F8
7878
7078
7078
7878
7878
7CF0
77F0
73E0
7000
FF00
FF00
7000
ENDCHAR
STARTCHAR 03FD
ENCODING 1021
SWIDTH 714 0
DWIDTH 15 0
BBX 13 16 1 0
BITMAP
1C00
FF80
FFC0
C3E0
01F0
00F0
00F8
0078
0078
0078
00F0
00F0
81F0
FFE0
FFC0
FF00
ENDCHAR
STARTCHAR 03FE
ENCODING 1022
SWIDTH 714 0
DWIDTH 15 0
BBX 13 15 1 0
BITMAP
07F0
1FF8
3E08
7800
7800
F000
F1E0
F1E0
F1E0
F1E0
7800
7800
3E08
1FF8
07F0
ENDCHAR
STARTCHAR 03FF
ENCODING 1023
SWIDTH 714 0
DWIDTH 15 0
BBX 13 16 1 0
BITMAP
1C00
FF80
FFC0
C3E0
01F0
00F0
00F8
3C78
3C78
3C78
3CF0
00F0
81F0
FFE0
FFC0
FF00
ENDCHAR
STARTCHAR 0400
ENCODING 1024
SWIDTH 666 0
DWIDTH 14 0
BBX 11 20 2 0
BITMAP
0C00
0E00
0700
0000
0000
FFE0
FFE0
F000
F000
F000
F000
FFC0
FFC0
F000
F000
F000
F000
F000
FFE0
FFE0
ENDCHAR
STARTCHAR 0401
ENCODING 1025
SWIDTH 666 0
DWIDTH 14 0
BBX 11 20 2 0
BITMAP
3300
3300
3300
0000
0000
FFE0
FFE0
F000
F000
F000
F000
FFC0
FFC0
F000
F000
F000
F000
F000
FFE0
FFE0
ENDCHAR
STARTCHAR 0402
ENCODING 1026
SWIDTH 857 0
DWIDTH 18 0
BBX 17 19 0 -4
BITMAP
FFF000
FFF000
FFF000
1E0000
1E0000
1E0000
1FFE00
1FFF00
1FFF80
1E0780
1E0780
1E0780
1E0780
1E0780
1E0780
000F80
003F00
003E00
003C00
ENDCHAR
STARTCHAR 0403
ENCODING 1027
SWIDTH 619 0
DWIDTH 13 0
BBX 11 20 2 0
BITMAP
0700
0600
0C00
0000
0000
FFE0
FFE0
F000
F000
F000
F000
F000
F000
F000
F000
F000
F000
F000
F000
F000
ENDCHAR
STARTCHAR 0404
ENCODING 1028
SWIDTH 714 0
DWIDTH 15 0
BBX 13 15 1 0
BITMAP
07F0
1FF8
3C08
7800
7800
F000
FFE0
FFE0
F000
F800
7800
7C00
3E08
1FF8
07F0
ENDCHAR
STARTCHAR 0405
ENCODING 1029
SWIDTH 714 0
DWIDTH 15 0
BBX 13 15 1 0
BITMAP
1FE0
3FF0
7870
7010
7000
7800
7F80
3FE0
1FF0
01F8
0078
8070
60F0
7FF0
3FC0
ENDCHAR
STARTCHAR 0406
ENCODING 1030
SWIDTH 380 0
DWIDTH 8 0
BBX 4 15 2 0
BITMAP
F0
F0
F0
F0
F0
F0
F0
F0
F0
F0
F0
F0
F0
F0
F0
ENDCHAR
STARTCHAR 0407
ENCODING 1031
SWIDTH 380 0
DWIDTH 8 0
BBX 6 20 1 0
BITMAP
CC
CC
CC
00
00
78
78
78
78
78
78
78
78
78
78
78
78
78
78
78
ENDCHAR
STARTCHAR 0408
ENCODING 1032
SWIDTH 380 0
DWIDTH 8 0
BBX 7 19 -1 -4
BITMAP
1E
1E
1E
1E
1E
1E
1E
1E
1E
1E
1E
1E
1E
1E
1E
1E
3C
FC
F0
ENDCHAR
STARTCHAR 0409
ENCODING 1033
SWIDTH 1142 0
DWIDTH 24 0
BBX 22 15 1 0
BITMAP
0FFE00
0FFE00
0FFE00
0F1E00
0F1E00
0F1E00
0E1FF0
1E1FF8
1E1FFC
1E1E3C
1E1E3C
3E1E3C
FC1FFC
F81FF8
E01FE0
ENDCHAR
STARTCHAR 040A
ENCODING 1034
SWIDTH 1142 0
DWIDTH 24 0
BBX 20 15 2 0
BITMAP
F07800
F07800
F07800
F07800
F07800
F07800
FFFFC0
FFFFE0
FFFFF0
F078F0
F078F0
F078F0
F07FF0
F07FE0
F07F80
ENDCHAR
STARTCHAR 040B
ENCODING 1035
SWIDTH 857 0
DWIDTH 18 0
BBX 17 15 0 0
BITMAP
FFF000
FFF000
FFF000
1E0000
1E0000
1E0000
1FFE00
1FFF00
1FFF80
1E0780
1E0780
1E0780
1E0780
1E0780
1E0780
ENDCHAR
STARTCHAR 040C
ENCODING 1036
SWIDTH 809 0
DWIDTH 17 0
BBX 14 20 2 0
BITMAP
0180
0300
0600
0000
0000
F03C
F078
F0F0
F1E0
F3C0
F780
FF80
FF80
FFC0
F9E0
F1F0
F0F0
F078
F07C
F03C
ENDCHAR
STARTCHAR 040D
ENCODING 1037
SWIDTH 857 0
DWIDTH 18 0
BBX 14 20 2 0
BITMAP
0E00
0700
0300
0000
0000
F07C
F0FC
F0FC
F1FC
F1FC
F3BC
F3BC
F73C
F73C
FE3C
FE3C
FC3C
FC3C
F83C
F83C
ENDCHAR
STARTCHAR 040E
ENCODING 1038
SWIDTH 761 0
DWIDTH 16 0
BBX 14 20 1 0
BITMAP
0860
0CC0
0780
0000
0000
F03C
F03C
7878
7878
3CF0
3CF0
1FE0
1FE0
0FC0
0FC0
0FC0
0780
0780
3F00
3C00
ENDCHAR
STARTCHAR 040F
ENCODING 1039
SWIDTH 857 0
DWIDTH 18 0
BBX 14 18 2 -3
BITMAP
F03C
F03C
F03C
F03C
F03C
F03C
F03C
F03C
F03C
F03C
F03C
F03C
FFFC
FFFC
FFFC
0700
0700
0700
ENDCHAR
STARTCHAR 0410
ENCODING 1040
SWIDTH 761 0
DWIDTH 16 0
BBX 16 15 0 0
BITMAP
03E0
07E0
07E0
0FF0
0F70
0E78
1E78
1E38
1C3C
3FFC
3FFC
781E
780E
700F
F00F
ENDCHAR
STARTCHAR 0411
ENCODING 1041
SWIDTH 761 0
DWIDTH 16 0
BBX 13 15 2 0
BITMAP
FFF0
FFF0
F000
F000
F000
F000
FFC0
FFE0
F0F0
F0F0
F078
F0F0
F0F0
FFE0
FFC0
ENDCHAR
STARTCHAR 0412
ENCODING 1042
SWIDTH 761 0
DWIDTH 16 0
BBX 13 15 2 0
BITMAP
FFC0
FFE0
F1F0
F0F0
F0F0
F1F0
FFE0
FFE0
F0F0
F0F0
F078
F0F0
F0F0
FFF0
FFC0
ENDCHAR
STARTCHAR 0413
ENCODING 1043
SWIDTH 619 0
DWIDTH 13 0
BBX 11 15 2 0
BITMAP
FFE0
FFE0
F000
F000
F000
F000
F000
F000
F000
F000
F000
F000
F000
F000
F000
ENDCHAR
STARTCHAR 0414
ENCODING 1044
SWIDTH 904 0
DWIDTH 19 0
BBX 16 18 1 -3
BITMAP
1FFC
1FFC
1E3C
1E3C
1E3C
1E3C
1E3C
1E3C
1E3C
1E3C
1E3C
1C3C
3C3C
FFFF
FFFF
E007
E007
E007
ENDCHAR
STARTCHAR 0415
ENCODING 1045
SWIDTH 666 0
DWIDTH 14 0
BBX 11 15 2 0
BITMAP
FFE0
FFE0
F000
F000
F000
F000
FFC0
FFC0
F000
F000
F000
F000
F000
FFE0
FFE0
ENDCHAR
STARTCHAR 0416
ENCODING 1046
SWIDTH 1238 0
DWIDTH 26 0
BBX 24 15 1 0
BITMAP
F83C1E
783C3C
3C3C78
1E3CF0
0F3DF0
07BFE0
07FFC0
07FFE0
0FFFF0
1E7EF8
3E3C78
3C3C3C
783C3E
F83C1E
F03C0F
ENDCHAR
STARTCHAR 0417
ENCODING 1047
SWIDTH 714 0
DWIDTH 15 0
BBX 13 15 1 0
BITMAP
3F80
7FE0
40F0
00F0
00F0
00F0
1FC0
1FE0
00F0
00F0
0078
00F0
C0F0
FFE0
3F80
ENDCHAR
STARTCHAR 0418
ENCODING 1048
SWIDTH 857 0
DWIDTH 18 0
BBX 14 15 2 0
BITMAP
F07C
F0FC
F0FC
F1FC
F1FC
F3BC
F3BC
F73C
F73C
FE3C
FE3C
FC3C
FC3C
F83C
F83C
ENDCHAR
STARTCHAR 0419
ENCODING 1049
SWIDTH 857 0
DWIDTH 18 0
BBX 14 20 2 0
BITMAP
18C0
1880
0F00
0000
0000
F07C
F0FC
F0FC
F1FC
F1FC
F3BC
F3BC
F73C
F73C
FE3C
FE3C
FC3C
FC3C
F83C
F83C
ENDCHAR
STARTCHAR 041A
ENCODING 1050
SWIDTH 809 0
DWIDTH 17 0
BBX 14 15 2 0
BITMAP
F03C
F078
F0F0
F1E0
F3C0
F780
FF80
FF80
FFC0
F9E0
F1F0
F0F0
F078
F07C
F03C
ENDCHAR
STARTCHAR 041B
ENCODING 1051
SWIDTH 809 0
DWIDTH 17 0
BBX 15 15 1 0
BITMAP
0FFE
0FFE
0F1E
0F1E
0F1E
0F1E
0E1E
0E1E
1E1E
1E1E
1E1E
1E1E
3C1E
F81E
E01E
ENDCHAR
STARTCHAR 041C
ENCODING 1052
SWIDTH 1000 0
DWIDTH 21 0
BBX 17 15 2 0
BITMAP
F80F80
FC1F80
FC1F80
FC3F80
FE3F80
FE3F80
F77780
F77780
F3E780
F3E780
F1C780
F1C780
F00780
F00780
F00780
ENDCHAR
STARTCHAR 041D
ENCODING 1053
SWIDTH 857 0
DWIDTH 18 0
BBX 14 15 2 0
BITMAP
F03C
F03C
F03C
F03C
F03C
F03C
FFFC
FFFC
F03C
F03C
F03C
F03C
F03C
F03C
F03C
ENDCHAR
STARTCHAR 041E
ENCODING 1054
SWIDTH 857 0
DWIDTH 18 0
BBX 16 15 1 0
BITMAP
07E0
1FF8
3C3C
781E
781E
F00F
F00F
F00F
F00F
F00F
781E
781E
3C3C
1FF8
07E0
ENDCHAR
STARTCHAR 041F
ENCODING 1055
SWIDTH 857 0
DWIDTH 18 0
BBX 14 15 2 0
BITMAP
FFFC
FFFC
F03C
F03C
F03C
F03C
F03C
F03C
F03C
F03C
F03C
F03C
F03C
F03C
F03C
ENDCHAR
STARTCHAR 0420
ENCODING 1056
SWIDTH 714 0
DWIDTH 15 0
BBX 13 15 2 0
BITMAP
FFC0
FFE0
F0F0
F0F0
F0F8
F0F8
F0F0
F0F0
FFE0
FFC0
F000
F000
F000
F000
F000
ENDCHAR
STARTCHAR 0421
ENCODING 1057
SWIDTH 714 0
DWIDTH 15 0
BBX 13 15 1 0
BITMAP
07F0
1FF8
3E08
7800
7800
F000
F000
F000
F000
F000
7800
7800
3E08
1FF8
07F0
ENDCHAR
STARTCHAR 0422
ENCODING 1058
SWIDTH 666 0
DWIDTH 14 0
BBX 14 15 0 0
BITMAP
FFFC
FFFC
0780
0780
0780
0780
0780
0780
0780
0780
0780
0780
0780
0780
0780
ENDCHAR
STARTCHAR 0423
ENCODING 1059
SWIDTH 761 0
DWIDTH 16 0
BBX 14 15 1 0
BITMAP
F03C
F03C
7878
7878
3CF0
3CF0
1FE0
1FE0
0FC0
0FC0
0FC0
0780
0780
3F00
3C00
ENDCHAR
STARTCHAR 0424
ENCODING 1060
SWIDTH 1000 0
DWIDTH 21 0
BBX 19 15 1 0
BITMAP
01E000
01E000
0FFE00
3FFF80
7DE7C0
F9E3C0
F1E1E0
F1E1E0
F1E1E0
F9E3C0
7DE7C0
3FFF80
0FFE00
01E000
01E000
ENDCHAR
STARTCHAR 0425
ENCODING 1061
SWIDTH 761 0
DWIDTH 16 0
BBX 14 15 1 0
BITMAP
F03C
787C
7878
3CF0
1FE0
1FE0
0FC0
07C0
0FC0
1FE0
1EF0
3CF0
7878
F83C
F03C
ENDCHAR
STARTCHAR 0426
ENCODING 1062
SWIDTH 904 0
DWIDTH 19 0
BBX 16 18 2 -3
BITMAP
F03C
F03C
F03C
F03C
F03C
F03C
F03C
F03C
F03C
F03C
F03C
F03C
F03C
FFFF
FFFF
0007
0007
0007
ENDCHAR
STARTCHAR 0427
ENCODING 1063
SWIDTH 809 0
DWIDTH 17 0
BBX 13 15 2 0
BITMAP
F078
F078
F078
F078
F078
F078
FFF8
7FF8
0078
0078
0078
0078
0078
0078
0078
ENDCHAR
STARTCHAR 0428
ENCODING 1064
SWIDTH 1238 0
DWIDTH 26 0
BBX 22 15 2 0
BITMAP
F0783C
F0783C
F0783C
F0783C
F0783C
F0783C
F0783C
F0783C
F0783C
F0783C
F0783C
F0783C
F0783C
FFFFFC
FFFFFC
ENDCHAR
STARTCHAR 0429
ENCODING 1065
SWIDTH 1333 0
DWIDTH 28 0
BBX 25 18 2 -3
BITMAP
F0783C00
F0783C00
F0783C00
F0783C00
F0783C00
F0783C00
F0783C00
F0783C00
F0783C00
F0783C00
F0783C00
F0783C00
F0783C00
FFFFFF80
FFFFFF80
00000380
00000380
00000380
ENDCHAR
STARTCHAR 042A
ENCODING 1066
SWIDTH 952 0
DWIDTH 20 0
BBX 18 15 1 0
BITMAP
FF8000
FF8000
FF8000
078000
078000
078000
07FF00
07FF80
07FF80
0783C0
0783C0
0787C0
07FF80
07FF80
07FE00
ENDCHAR
STARTCHAR 042B
ENCODING 1067
SWIDTH 1047 0
DWIDTH 22 0
BBX 18 15 2 0
BITMAP
F003C0
F003C0
F003C0
F003C0
F003C0
F003C0
FFC3C0
FFE3C0
F0F3C0
F0F3C0
F07BC0
F0F3C0
F0F3C0
FFE3C0
FFC3C0
ENDCHAR
STARTCHAR 042C
ENCODING 1068
SWIDTH 761 0
DWIDTH 16 0
BBX 13 15 2 0
BITMAP
F000
F000
F000
F000
F000
F000
FFC0
FFE0
F0F0
F0F0
F078
F0F0
F0F0
FFE0
FFC0
ENDCHAR
STARTCHAR 042D
ENCODING 1069
SWIDTH 714 0
DWIDTH 15 0
BBX 13 16 1 0
BITMAP
0E00
FFC0
FFE0
E3F0
80F8
0078
0078
3FF8
3FF8
3FF8
0078
00F8
80F0
FFF0
FFE0
7F80
ENDCHAR
STARTCHAR 042E
ENCODING 1070
SWIDTH 1190 0
DWIDTH 25 0
BBX 21 15 2 0
BITMAP
F03F80
F0FFE0
F1F1F0
F1E0F8
F3C078
F3C078
FFC078
FFC078
F3C078
F3C078
F3C078
F1E0F8
F0F1F0
F07FE0
F03F80
ENDCHAR
STARTCHAR 042F
ENCODING 1071
SWIDTH 761 0
DWIDTH 16 0
BBX 12 15 2 0
BITMAP
1FF0
7FF0
F8F0
F0F0
F0F0
F0F0
70F0
38F0
1FF0
1FF0
3EF0
7CF0
78F0
F8F0
F0F0
ENDCHAR
STARTCHAR 0430
ENCODING 1072
SWIDTH 666 0
DWIDTH 14 0
BBX 12 11 1 0
BITMAP
3F80
7FE0
41E0
00E0
3FF0
7FF0
F0F0
F0F0
F1F0
7EF0
3CF0
ENDCHAR
STARTCHAR 0431
ENCODING 1073
SWIDTH 714 0
DWIDTH 15 0
BBX 13 16 1 0
BITMAP
07E0
3FE0
7000
6000
E000
FF80
FFE0
F8F0
F070
F078
F078
F078
F070
78F0
3FE0
1F80
ENDCHAR
STARTCHAR 0432
ENCODING 1074
SWIDTH 619 0
DWIDTH 13 0
BBX 10 11 2 0
BITMAP
FF00
FFC0
E3C0
E3C0
FF80
FF80
E1C0
E1C0
E1C0
FFC0
FF80
ENDCHAR
STARTCHAR 0433
ENCODING 1075
SWIDTH 523 0
DWIDTH 11 0
BBX 8 11 2 0
BITMAP
FF
FF
E0
E0
E0
E0
E0
E0
E0
E0
E0
ENDCHAR
STARTCHAR 0434
ENCODING 1076
SWIDTH 809 0
DWIDTH 17 0
BBX 15 14 1 -3
BITMAP
1FF8
1FF8
1E78
1E78
1E78
1C78
1C78
3C78
3C78
FFFE
FFFE
E00E
E00E
E00E
ENDCHAR
STARTCHAR 0435
ENCODING 1077
SWIDTH 666 0
DWIDTH 14 0
BBX 12 11 1 0
BITMAP
1F80
3FC0
78E0
F0F0
F0F0
FFF0
FFF0
F000
7830
3FF0
1FC0
ENDCHAR
STARTCHAR 0436
ENCODING 1078
SWIDTH 1000 0
DWIDTH 21 0
BBX 19 11 1 0
BITMAP
F0E1E0
78E3C0
3CEF80
1EFE00
0FFC00
0FFE00
1FFF00
3CE780
78E3C0
70E1C0
E0E1E0
ENDCHAR
STARTCHAR 0437
ENCODING 1079
SWIDTH 571 0
DWIDTH 12 0
BBX 10 11 1 0
BITMAP
3F00
7F80
83C0
0380
3F80
3F80
03C0
01C0
83C0
FF80
7F00
ENDCHAR
STARTCHAR 0438
ENCODING 1080
SWIDTH 714 0
DWIDTH 15 0
BBX 11 11 2 0
BITMAP
E1E0
E3E0
E3E0
E7E0
EFE0
EFE0
FDE0
FDE0
F9E0
F9E0
F1E0
ENDCHAR
STARTCHAR 0439
ENCODING 1081
SWIDTH 714 0
DWIDTH 15 0
BBX 11 16 2 0
BITMAP
3180
3F00
1E00
0000
0000
E1E0
E3E0
E3E0
E7E0
EFE0
EFE0
FDE0
FDE0
F9E0
F9E0
F1E0
ENDCHAR
STARTCHAR 043A
ENCODING 1082
SWIDTH 666 0
DWIDTH 14 0
BBX 12 11 2 0
BITMAP
E1E0
E3C0
E780
EF00
FE00
FE00
F700
E780
E3C0
E1E0
E0F0
ENDCHAR
STARTCHAR 043B
ENCODING 1083
SWIDTH 714 0
DWIDTH 15 0
BBX 13 11 1 0
BITMAP
1FF8
1FF8
1C78
1C78
1C78
1C78
1C78
3C78
7C78
F878
E078
ENDCHAR
STARTCHAR 043C
ENCODING 1084
SWIDTH 809 0
DWIDTH 17 0
BBX 13 11 2 0
BITMAP
F078
F8F8
F8F8
FDF8
FDF8
EFB8
EFB8
E738
E738
E038
E038
ENDCHAR
STARTCHAR 043D
ENCODING 1085
SWIDTH 714 0
DWIDTH 15 0
BBX 11 11 2 0
BITMAP
E1E0
E1E0
E1E0
E1E0
FFE0
FFE0
E1E0
E1E0
E1E0
E1E0
E1E0
ENDCHAR
STARTCHAR 043E
ENCODING 1086
SWIDTH 666 0
DWIDTH 14 0
BBX 13 11 1 0
BITMAP
1F80
3FE0
78F0
F0F0
F070
F078
F070
F0F0
78F0
3FE0
1F80
ENDCHAR
STARTCHAR 043F
ENCODING 1087
SWIDTH 714 0
DWIDTH 15 0
BBX 11 11 2 0
BITMAP
FFE0
FFE0
E1E0
E1E0
E1E0
E1E0
E1E0
E1E0
E1E0
E1E0
E1E0
ENDCHAR
STARTCHAR 0440
ENCODING 1088
SWIDTH 714 0
DWIDTH 15 0
BBX 12 15 2 -4
BITMAP
E780
EFE0
F1E0
F0F0
F0F0
E0F0
F0F0
F0F0
F1E0
EFE0
E780
E000
E000
E000
E000
ENDCHAR
STARTCHAR 0441
ENCODING 1089
SWIDTH 571 0
DWIDTH 12 0
BBX 10 11 1 0
BITMAP
1F80
3FC0
7840
F000
F000
F000
F000
F000
7840
3FC0
1F80
ENDCHAR
STARTCHAR 0442
ENCODING 1090
SWIDTH 571 0
DWIDTH 12 0
BBX 12 11 0 0
BITMAP
FFF0
FFF0
0F00
0F00
0F00
0F00
0F00
0F00
0F00
0F00
0F00
ENDCHAR
STARTCHAR 0443
ENCODING 1091
SWIDTH 666 0
DWIDTH 14 0
BBX 13 15 0 -4
BITMAP
F078
7878
7870
38F0
3CF0
1CE0
1FE0
0FC0
0FC0
0780
0780
0780
0700
3F00
3E00
ENDCHAR
STARTCHAR 0444
ENCODING 1092
SWIDTH 1000 0
DWIDTH 21 0
BBX 19 20 1 -4
BITMAP
00E000
00E000
00E000
00E000
00E000
1CEF00
3EEF80
79F3C0
F0E1C0
F0E1E0
F0E1E0
F0E1E0
F0E1C0
79F3C0
3EEF80
1CEF00
00E000
00E000
00E000
00E000
ENDCHAR
STARTCHAR 0445
ENCODING 1093
SWIDTH 666 0
DWIDTH 14 0
BBX 12 11 1 0
BITMAP
F0F0
71E0
7BC0
3F80
1F80
0F00
1F80
3FC0
7BC0
F1E0
F0F0
ENDCHAR
STARTCHAR 0446
ENCODING 1094
SWIDTH 761 0
DWIDTH 16 0
BBX 13 14 2 -3
BITMAP
E1E0
E1E0
E1E0
E1E0
E1E0
E1E0
E1E0
E1E0
E1E0
FFF8
FFF8
0038
0038
0038
ENDCHAR
STARTCHAR 0447
ENCODING 1095
SWIDTH 666 0
DWIDTH 14 0
BBX 11 11 1 0
BITMAP
F1E0
F1E0
F1E0
F1E0
7FE0
3FE0
01E0
01E0
01E0
01E0
01E0
ENDCHAR
STARTCHAR 0448
ENCODING 1096
SWIDTH 1047 0
DWIDTH 22 0
BBX 18 11 2 0
BITMAP
E1E1C0
E1E1C0
E1E1C0
E1E1C0
E1E1C0
E1E1C0
E1E1C0
E1E1C0
E1E1C0
FFFFC0
FFFFC0
ENDCHAR
STARTCHAR 0449
ENCODING 1097
SWIDTH 1095 0
DWIDTH 23 0
BBX 20 14 2 -3
BITMAP
E1E1C0
E1E1C0
E1E1C0
E1E1C0
E1E1C0
E1E1C0
E1E1C0
E1E1C0
E1E1C0
FFFFF0
FFFFF0
000030
000030
000030
ENDCHAR
STARTCHAR 044A
ENCODING 1098
SWIDTH 761 0
DWIDTH 16 0
BBX 15 11 0 0
BITMAP
FF00
FF00
0F00
0F00
0FF8
0FFC
0F1E
0F1E
0F1E
0FFC
0FF8
ENDCHAR
STARTCHAR 044B
ENCODING 1099
SWIDTH 904 0
DWIDTH 19 0
BBX 15 11 2 0
BITMAP
E00E
E00E
E00E
E00E
FF0E
FFCE
E1CE
E1CE
E1CE
FFCE
FF0E
ENDCHAR
STARTCHAR 044C
ENCODING 1100
SWIDTH 619 0
DWIDTH 13 0
BBX 10 11 2 0
BITMAP
E000
E000
E000
E000
FF00
FFC0
E1C0
E1C0
E1C0
FFC0
FF00
ENDCHAR
STARTCHAR 044D
ENCODING 1101
SWIDTH 571 0
DWIDTH 12 0
BBX 11 12 1 0
BITMAP
3C00
FF00
FF80
83C0
03C0
3FE0
3FE0
01C0
03C0
C7C0
FF80
FF00
ENDCHAR
STARTCHAR 044E
ENCODING 1102
SWIDTH 952 0
DWIDTH 20 0
BBX 17 11 2 0
BITMAP
E0FC00
E3FF00
E3C780
E78780
E78380
FF8380
FF8380
E78780
E3C780
E3FF00
E0FC00
ENDCHAR
STARTCHAR 044F
ENCODING 1103
SWIDTH 619 0
DWIDTH 13 0
BBX 11 11 1 0
BITMAP
3FE0
7FE0
71E0
71E0
71E0
3FE0
1FE0
39E0
79E0
71E0
F1E0
ENDCHAR
STARTCHAR 0450
ENCODING 1104
SWIDTH 666 0
DWIDTH 14 0
BBX 12 17 1 0
BITMAP
3800
1800
0C00
0600
0000
0000
1F80
3FC0
78E0
F0F0
F0F0
FFF0
FFF0
F000
7830
3FF0
1FC0
ENDCHAR
STARTCHAR 0451
ENCODING 1105
SWIDTH 666 0
DWIDTH 14 0
BBX 12 16 1 0
BITMAP
19C0
19C0
19C0
0000
0000
1F80
3FC0
78E0
F0F0
F0F0
FFF0
FFF0
F000
7830
3FF0
1FC0
ENDCHAR
STARTCHAR 0452
ENCODING 1106
SWIDTH 714 0
DWIDTH 15 0
BBX 14 20 0 -5
BITMAP
3C00
3C00
3C00
3C00
3C00
FFE0
FFE0
3C00
3DF0
3FF8
3FFC
3E3C
3C3C
3C3C
3C3C
3C3C
003C
0078
00F0
00E0
ENDCHAR
STARTCHAR 0453
ENCODING 1107
SWIDTH 523 0
DWIDTH 11 0
BBX 8 17 2 0
BITMAP
03
06
0E
1C
00
00
FF
FF
E0
E0
E0
E0
E0
E0
E0
E0
E0
ENDCHAR
STARTCHAR 0454
ENCODING 1108
SWIDTH 571 0
DWIDTH 12 0
BBX 10 11 1 0
BITMAP
1F80
3FC0
7840
F000
FF80
FF80
F000
F000
7840
3FC0
1F80
ENDCHAR
STARTCHAR 0455
ENCODING 1109
SWIDTH 619 0
DWIDTH 13 0
BBX 10 11 1 0
BITMAP
3F00
7FC0
F0C0
E000
FF00
7FC0
1FC0
01C0
C1C0
FFC0
3F00
ENDCHAR
STARTCHAR 0456
ENCODING 1110
SWIDTH 333 0
DWIDTH 7 0
BBX 3 16 2 0
BITMAP
E0
E0
E0
E0
00
E0
E0
E0
E0
E0
E0
E0
E0
E0
E0
E0
ENDCHAR
STARTCHAR 0457
ENCODING 1111
SWIDTH 333 0
DWIDTH 7 0
BBX 7 16 0 0
BITMAP
EE
EE
EE
00
00
38
38
38
38
38
38
38
38
38
38
38
ENDCHAR
STARTCHAR 0458
ENCODING 1112
SWIDTH 333 0
DWIDTH 7 0
BBX 6 20 -1 -4
BITMAP
1C
1C
1C
1C
00
1C
1C
1C
1C
1C
1C
1C
1C
1C
1C
1C
1C
3C
FC
F8
ENDCHAR
STARTCHAR 0459
ENCODING 1113
SWIDTH 1000 0
DWIDTH 21 0
BBX 19 11 1 0
BITMAP
3FF000
3FF000
3C7000
3C7000
3C7F80
3C7FC0
3C71E0
3C71E0
F871E0
F87FC0
E07F80
ENDCHAR
STARTCHAR 045A
ENCODING 1114
SWIDTH 952 0
DWIDTH 20 0
BBX 17 11 2 0
BITMAP
E1E000
E1E000
E1E000
E1E000
FFFF00
FFFF80
E1E780
E1E380
E1E780
E1FF80
E1FE00
ENDCHAR
STARTCHAR 045B
ENCODING 1115
SWIDTH 714 0
DWIDTH 15 0
BBX 14 16 0 0
BITMAP
3C00
3C00
3C00
3C00
3C00
FFE0
FFE0
3C00
3DF0
3FF8
3FFC
3E3C
3C3C
3C3C
3C3C
3C3C
ENDCHAR
STARTCHAR 045C
ENCODING 1116
SWIDTH 666 0
DWIDTH 14 0
BBX 12 17 2 0
BITMAP
0380
0300
0600
0C00
0000
0000
E1E0
E3C0
E780
EF00
FE00
FE00
F700
E780
E3C0
E1E0
E0F0
ENDCHAR
STARTCHAR 045D
ENCODING 1117
SWIDTH 714 0
DWIDTH 15 0
BBX 11 17 2 0
BITMAP
3800
1C00
0C00
0600
0000
0000
E1E0
E3E0
E3E0
E7E0
EFE0
EFE0
FDE0
FDE0
F9E0
F9E0
F1E0
ENDCHAR
STARTCHAR 045E
ENCODING 1118
SWIDTH 666 0
DWIDTH 14 0
BBX 13 20 0 -4
BITMAP
18C0
0FC0
0780
0000
0000
F078
7878
7870
38F0
3CF0
1CE0
1FE0
0FC0
0FC0
0780
0780
0780
0700
3F00
3E00
ENDCHAR
STARTCHAR 045F
ENCODING 1119
SWIDTH 714 0
DWIDTH 15 0
BBX 11 14 2 -3
BITMAP
E1E0
E1E0
E1E0
E1E0
E1E0
E1E0
E1E0
E1E0
FFE0
FFE0
FFE0
0E00
0E00
0E00
ENDCHAR
STARTCHAR 0460
ENCODING 1120
SWIDTH 1095 0
DWIDTH 23 0
BBX 21 15 1 0
BITMAP
1C01C0
3801E0
7800F0
7800F0
7000F0
F00078
F07078
F07078
F07078
F0F078
F0F8F8
78F8F0
7FDFF0
3FDFE0
1F8FC0
ENDCHAR
STARTCHAR 0461
ENCODING 1121
SWIDTH 857 0
DWIDTH 18 0
BBX 16 11 1 0
BITMAP
381E
700E
700F
F00F
F3CF
F3C7
F3C7
F3CF
F3CF
7F7E
3E3C
ENDCHAR
STARTCHAR 0462
ENCODING 1122
SWIDTH 857 0
DWIDTH 18 0
BBX 16 15 1 0
BITMAP
1E00
FFC0
FFC0
FFC0
1E00
1E00
1FFC
1FFE
1FFE
1E1F
1E0F
1E1E
1FFE
1FFC
1FF8
ENDCHAR
STARTCHAR 0463
ENCODING 1123
SWIDTH 714 0
DWIDTH 15 0
BBX 15 15 0 0
BITMAP
0F00
0F00
0F00
FFF0
FFF0
FFF0
0F00
0F00
0FF8
0FFC
0F1C
0F1E
0F1C
0FFC
0FF8
ENDCHAR
STARTCHAR 0464
ENCODING 1124
SWIDTH 1000 0
DWIDTH 21 0
BBX 18 16 2 0
BITMAP
000E00
F07FC0
F1FFC0
F3F1C0
F3C000
F7C000
F78000
FFFF00
FFFF00
FFFF00
F78000
F7C000
F3E040
F1FFC0
F0FFC0
F07F80
ENDCHAR
STARTCHAR 0465
ENCODING 1125
SWIDTH 857 0
DWIDTH 18 0
BBX 14 12 2 0
BITMAP
00F8
E3FC
E7FC
EF84
EF00
FFF0
FFF0
EF00
EF00
E7CC
E7FC
E1FC
ENDCHAR
STARTCHAR 0466
ENCODING 1126
SWIDTH 1000 0
DWIDTH 21 0
BBX 20 15 0 0
BITMAP
00F800
01FC00
01FC00
03DE00
039E00
078F00
070F00
0FFF80
0FFF80
1FFFC0
3C71C0
3C71E0
7870E0
7870F0
F07070
ENDCHAR
STARTCHAR 0467
ENCODING 1127
SWIDTH 809 0
DWIDTH 17 0
BBX 16 11 1 0
BITMAP
03C0
07C0
0FE0
0EF0
1E70
1FF8
3FF8
3B9C
739C
F38E
E38F
ENDCHAR
STARTCHAR 0468
ENCODING 1128
SWIDTH 1380 0
DWIDTH 29 0
BBX 26 15 2 0
BITMAP
F007E000
F007E000
F00FF000
F00F7000
F01E7800
F01E3800
FFFC3C00
FFFFFC00
FFFFFE00
F07FFF00
F0F3CF00
F0F3C780
F1E3C780
F1C3C3C0
F3C3C3C0
ENDCHAR
STARTCHAR 0469
ENCODING 1129
SWIDTH 1142 0
DWIDTH 24 0
BBX 21 11 2 0
BITMAP
E01E00
E03F00
E03F00
E07780
FFF380
FFFFC0
E1FFC0
E1DCE0
E39CF0
E79C70
E71C38
ENDCHAR
STARTCHAR 046A
ENCODING 1130
SWIDTH 857 0
DWIDTH 18 0
BBX 16 15 1 0
BITMAP
7FFE
3FFC
3FFC
1C38
1C78
0E70
0FE0
07E0
1FF8
3FFC
7FBE
7B9E
F38F
F38F
F38F
ENDCHAR
STARTCHAR 046B
ENCODING 1131
SWIDTH 666 0
DWIDTH 14 0
BBX 13 11 1 0
BITMAP
7FF0
7FE0
38E0
39C0
1F80
1F80
3FE0
7FF0
F6F0
E670
E678
ENDCHAR
STARTCHAR 046C
ENCODING 1132
SWIDTH 1238 0
DWIDTH 26 0
BBX 22 15 2 0
BITMAP
F1FFF8
F0FFF0
F0FFF0
F070E0
F071E0
F039C0
FFFFC0
FFFF80
FFFFE0
F0FFF0
F1FEF8
F1EE78
F3CE3C
F3CE3C
F3CE3C
ENDCHAR
STARTCHAR 046D
ENCODING 1133
SWIDTH 1000 0
DWIDTH 21 0
BBX 18 11 2 0
BITMAP
E3FFC0
E1FF80
E0E700
E0E700
FFFE00
FFFE00
E1FF80
E1FF80
E3DBC0
E399C0
E399C0
ENDCHAR
STARTCHAR 046E
ENCODING 1134
SWIDTH 714 0
DWIDTH 15 0
BBX 12 24 1 -4
BITMAP
3080
1980
1B00
0B00
0E00
7FC0
7FE0
41F0
00F0
00E0
01E0
1FC0
1FC0
03E0
00F0
00F0
00F0
3FE0
7FE0
FF80
E000
F000
7FE0
3FE0
ENDCHAR
STARTCHAR 046F
ENCODING 1135
SWIDTH 571 0
DWIDTH 12 0
BBX 9 20 1 -4
BITMAP
6300
2600
3600
3400
3E00
7F00
7F80
0380
0780
3F00
3F00
0780
0380
0780
7F80
FF00
E000
E000
FF80
3F80
ENDCHAR
STARTCHAR 0470
ENCODING 1136
SWIDTH 1095 0
DWIDTH 23 0
BBX 22 15 0 0
BITMAP
F0783C
70787C
78787C
7878F0
3878F0
3C78E0
1C79E0
1C79C0
1FFFC0
0FFFC0
0FFF80
07FF80
007800
007800
007800
ENDCHAR
STARTCHAR 0471
ENCODING 1137
SWIDTH 1047 0
DWIDTH 22 0
BBX 21 20 1 -4
BITMAP
00E000
00E000
00E000
00E000
00E078
E0E0F8
F0E0F8
F0E1E0
70E1C0
78E3C0
38E3C0
38E380
3FFF80
1FFF00
1FFF00
0FFF00
00E000
00E000
00E000
00E000
ENDCHAR
STARTCHAR 0472
ENCODING 1138
SWIDTH 857 0
DWIDTH 18 0
BBX 16 15 1 0
BITMAP
07E0
1FF8
3C3C
783E
781E
F81F
F01F
FFFF
FFFF
F00F
701E
781E
3C3C
1FF8
07E0
ENDCHAR
STARTCHAR 0473
ENCODING 1139
SWIDTH 666 0
DWIDTH 14 0
BBX 13 11 1 0
BITMAP
1F80
3FE0
78F0
F0F0
FFF0
FFF8
F070
F0F0
78F0
3FE0
1F80
ENDCHAR
STARTCHAR 0474
ENCODING 1140
SWIDTH 857 0
DWIDTH 18 0
BBX 17 16 0 0
BITMAP
000380
F00F80
780F80
781F80
381E00
3C3C00
3C3C00
1E3C00
1E7800
1E7800
0F7800
0FF000
0FF000
07E000
07E000
03E000
ENDCHAR
STARTCHAR 0475
ENCODING 1141
SWIDTH 714 0
DWIDTH 15 0
BBX 13 12 1 0
BITMAP
0038
E0F8
F0F8
F0E0
71E0
79C0
3BC0
3BC0
3F80
1F80
1F00
0F00
ENDCHAR
STARTCHAR 0476
ENCODING 1142
SWIDTH 857 0
DWIDTH 18 0
BBX 17 20 0 0
BITMAP
1DC000
0EE000
037000
000000
000380
F00F80
780F80
781F80
381E00
3C3C00
3C3C00
1E3C00
1E7800
1E7800
0F7800
0FF000
0FF000
07E000
07E000
03E000
ENDCHAR
STARTCHAR 0477
ENCODING 1143
SWIDTH 714 0
DWIDTH 15 0
BBX 13 17 1 0
BITMAP
1980
0D80
0CC0
0660
0000
0038
E0F8
F0F8
F0E0
71E0
79C0
3BC0
3BC0
3F80
1F80
1F00
0F00
ENDCHAR
STARTCHAR 0478
ENCODING 1144
SWIDTH 1142 0
DWIDTH 24 0
BBX 22 21 1 -5
BITMAP
060000
1F8000
3FC000
79E000
71E000
F0EF1C
F0FF3C
F0F73C
F0F7B8
F0F3F8
F0E3F0
F0E3F0
71E1F0
7FC1E0
3FC0E0
1F81E0
0001C0
0003C0
000F80
000F80
000C00
ENDCHAR
STARTCHAR 0479
ENCODING 1145
SWIDTH 1047 0
DWIDTH 22 0
BBX 20 17 1 -5
BITMAP
0E0000
3FB870
7FBCF0
F3DCE0
F1DCE0
F1FFE0
F1EFC0
F1CFC0
F1C780
7BC780
7F8780
1F0700
000700
000F00
007E00
007C00
007000
ENDCHAR
STARTCHAR 047A
ENCODING 1146
SWIDTH 1095 0
DWIDTH 23 0
BBX 21 16 1 0
BITMAP
002000
07FF00
1FFFC0
3FFFE0
7C01F0
F800F0
F000F0
F000F0
F000F8
F000F0
F000F0
7800F0
7C21E0
3FFFE0
1FFF80
03FE00
ENDCHAR
STARTCHAR 047B
ENCODING 1147
SWIDTH 857 0
DWIDTH 18 0
BBX 16 12 1 0
BITMAP
0180
1FF8
7FFE
780F
F00F
F00F
F00F
F00F
F00F
799E
3FFC
0FF0
ENDCHAR
STARTCHAR 047C
ENCODING 1148
SWIDTH 1428 0
DWIDTH 30 0
BBX 27 19 1 0
BITMAP
001F8000
0070C000
00404000
000E0000
00020000
1C0E0780
3C080380
380003C0
780001C0
780001E0
700001E0
F00001E0
F00001E0
F00000E0
F00E01E0
F07FE1E0
7FFFFFE0
7FE07FC0
3F001F80
ENDCHAR
STARTCHAR 047D
ENCODING 1149
SWIDTH 1190 0
DWIDTH 25 0
BBX 23 17 1 0
BITMAP
00FE00
01C200
000300
003800
001800
003000
780038
70003C
70001C
F0001C
F0001E
F0001E
F0301E
F1FE1E
FFC7FC
7F01FC
3C00F8
ENDCHAR
STARTCHAR 047E
ENCODING 1150
SWIDTH 1095 0
DWIDTH 23 0
BBX 21 19 1 0
BITMAP
07FF00
022200
000000
000000
1C01C0
3801E0
7800F0
7800F0
7000F0
F00078
F07078
F07078
F07078
F0F078
F0F8F8
78F8F0
7FDFF0
3FDFE0
1F8FC0
ENDCHAR
STARTCHAR 047F
ENCODING 1151
SWIDTH 857 0
DWIDTH 18 0
BBX 16 16 1 0
BITMAP
1FF8
1998
0000
0000
0000
381E
700E
700F
F00F
F3CF
F3C7
F3C7
F3CF
F3CF
7F7E
3E3C
ENDCHAR
STARTCHAR 0480
ENCODING 1152
SWIDTH 714 0
DWIDTH 15 0
BBX 13 20 1 -4
BITMAP
01C0
0FF8
3FF8
7E38
7800
F800
F000
F000
F000
F000
F800
7800
7C00
3FF8
1FF8
07F8
0078
0078
0078
0078
ENDCHAR
STARTCHAR 0481
ENCODING 1153
SWIDTH 571 0
DWIDTH 12 0
BBX 10 16 1 -4
BITMAP
0F80
3FC0
7FC0
F840
F000
F000
F000
F000
F000
7FC0
3FC0
1FC0
03C0
03C0
03C0
03C0
ENDCHAR
STARTCHAR 0482
ENCODING 1154
SWIDTH 666 0
DWIDTH 14 0
BBX 10 10 1 -1
BITMAP
1200
3F80
3F00
0F80
DFC0
FD80
FC00
3E00
7E00
7600
ENDCHAR
STARTCHAR 0483
ENCODING 1155
SWIDTH 0 0
DWIDTH 0 0
BBX 11 4 -13 13
BITMAP
00E0
7FE0
FFE0
6000
ENDCHAR
STARTCHAR 0484
ENCODING 1156
SWIDTH 0 0
DWIDTH 0 0
BBX 9 3 -9 13
BITMAP
3F00
E180
8080
ENDCHAR
STARTCHAR 0485
ENCODING 1157
SWIDTH 0 0
DWIDTH 0 0
BBX 3 3 -8 12
BITMAP
E0
C0
60
ENDCHAR
STARTCHAR 0486
ENCODING 1158
SWIDTH 0 0
DWIDTH 0 0
BBX 3 4 -8 12
BITMAP
E0
20
E0
80
ENDCHAR
STARTCHAR 0487
ENCODING 1159
SWIDTH 0 0
DWIDTH 0 0
BBX 16 5 -16 12
BITMAP
0C00
7F80
E1F0
C07F
0001
ENDCHAR
STARTCHAR 0488
ENCODING 1160
SWIDTH 428 0
DWIDTH 9 0
BBX 30 23 -22 -4
BITMAP
000F8000
0008C000
02184100
0F800FC0
18C00C40
10C00860
00000000
00000000
00000000
00000000
FC0000F8
CC00018C
84000184
00000000
00000000
00000000
00000000
0F8007C0
19C00CC0
18C00860
000F8000
000CC000
00184000
ENDCHAR
STARTCHAR 0489
ENCODING 1161
SWIDTH 428 0
DWIDTH 9 0
BBX 27 27 -21 -6
BITMAP
00030000
00060000
04060000
0E0E0000
060E0700
07001F00
07001E00
02000800
00000000
00000000
00000000
C0000000
F8000380
780003E0
180003E0
00000000
00000000
00000000
02000000
07000C00
0F001C00
1E000E00
000E0600
000E0600
000E0000
000C0000
000C0000
ENDCHAR
STARTCHAR 048A
ENCODING 1162
SWIDTH 952 0
DWIDTH 20 0
BBX 18 24 2 -4
BITMAP
18C000
188000
0F0000
000000
000000
F07C00
F0FC00
F0FC00
F1FC00
F1FC00
F3BC00
F3BC00
F73C00
F73C00
FE3C00
FE3C00
FC3C00
FC3FC0
F83FC0
F83FC0
000780
000F00
000E00
003C00
ENDCHAR
STARTCHAR 048B
ENCODING 1163
SWIDTH 809 0
DWIDTH 17 0
BBX 14 20 2 -4
BITMAP
3180
3F00
1E00
0000
0000
E3E0
E3E0
E7E0
E7E0
EFE0
EFE0
FDE0
FDE0
F9E0
F1FC
F1FC
003C
0038
0070
00E0
ENDCHAR
STARTCHAR 048C
ENCODING 1164
SWIDTH 761 0
DWIDTH 16 0
BBX 15 15 0 0
BITMAP
3C00
3C00
FE00
FE00
3C00
3C00
3FF8
3FFC
3FFC
3C3C
3C1E
3C3C
3FFC
3FF8
3FF0
ENDCHAR
STARTCHAR 048D
ENCODING 1165
SWIDTH 619 0
DWIDTH 13 0
BBX 12 15 0 0
BITMAP
3C00
3C00
3C00
3C00
FE00
FE00
3C00
3C00
3FC0
3FE0
3CF0
3CF0
3CF0
3FE0
3FC0
ENDCHAR
STARTCHAR 048E
ENCODING 1166
SWIDTH 714 0
DWIDTH 15 0
BBX 13 15 2 0
BITMAP
FFC0
FFE0
FFF0
F0F0
F1F8
F3F0
F1F0
FFF0
FFF0
FF90
F000
F000
F000
F000
F000
ENDCHAR
STARTCHAR 048F
ENCODING 1167
SWIDTH 714 0
DWIDTH 15 0
BBX 12 16 2 -4
BITMAP
0380
EFC0
FFE0
F1F0
F0F0
E0F0
E0F0
F3F0
F3F0
F9E0
EFE0
E7E0
E060
E000
E000
E000
ENDCHAR
STARTCHAR 0490
ENCODING 1168
SWIDTH 619 0
DWIDTH 13 0
BBX 11 18 2 0
BITMAP
00E0
00E0
00E0
FFE0
FFE0
F000
F000
F000
F000
F000
F000
F000
F000
F000
F000
F000
F000
F000
ENDCHAR
STARTCHAR 0491
ENCODING 1169
SWIDTH 523 0
DWIDTH 11 0
BBX 8 14 2 0
BITMAP
03
03
03
FF
FF
E0
E0
E0
E0
E0
E0
E0
E0
E0
ENDCHAR
STARTCHAR 0492
ENCODING 1170
SWIDTH 666 0
DWIDTH 14 0
BBX 12 15 1 0
BITMAP
3FF0
3FF0
3FF0
3800
3800
3800
FFC0
FFC0
FFC0
3800
3800
3800
3800
3800
3800
ENDCHAR
STARTCHAR 0493
ENCODING 1171
SWIDTH 523 0
DWIDTH 11 0
BBX 11 11 0 0
BITMAP
3FE0
3FE0
3C00
3C00
FF80
FF80
3C00
3C00
3C00
3C00
3C00
ENDCHAR
STARTCHAR 0494
ENCODING 1172
SWIDTH 809 0
DWIDTH 17 0
BBX 13 19 2 -4
BITMAP
FFE0
FFE0
FFE0
F000
F000
F000
FFF0
FFF8
FFF8
F078
F078
F078
F078
F078
F078
0078
03F8
03F0
03E0
ENDCHAR
STARTCHAR 0495
ENCODING 1173
SWIDTH 666 0
DWIDTH 14 0
BBX 10 16 2 -5
BITMAP
FF00
FF00
E000
E000
FF00
FF80
FFC0
E1C0
E1C0
E1C0
E1C0
01C0
03C0
0FC0
0F80
0E00
ENDCHAR
STARTCHAR 0496
ENCODING 1174
SWIDTH 1238 0
DWIDTH 26 0
BBX 24 18 1 -3
BITMAP
F83C1E
3C3C3C
1E3C78
1F3CF0
0FBDE0
07BFC0
07FFE0
0FFFE0
0FFFF0
1E7EF8
3E3C78
3C3C3C
783C3F
F83C1F
F03C0F
00000F
00000F
00000F
ENDCHAR
STARTCHAR 0497
ENCODING 1175
SWIDTH 1000 0
DWIDTH 21 0
BBX 20 14 1 -3
BITMAP
F8E3E0
3CE780
1EEF00
0FFE00
0FFE00
0FFE00
1FFF00
3CE780
78E3C0
F0E1F0
E0E1F0
0000F0
0000F0
0000F0
ENDCHAR
STARTCHAR 0498
ENCODING 1176
SWIDTH 714 0
DWIDTH 15 0
BBX 13 19 1 -4
BITMAP
3F80
7FE0
40F0
00F0
00F0
00F0
1FC0
1FE0
00F0
00F0
0078
00F0
C0F0
FFE0
3F80
0200
0300
1F00
1E00
ENDCHAR
STARTCHAR 0499
ENCODING 1177
SWIDTH 571 0
DWIDTH 12 0
BBX 10 15 1 -4
BITMAP
3F00
7F80
83C0
0380
3F80
3F80
03C0
01C0
83C0
FF80
7F00
0400
0600
3E00
3C00
ENDCHAR
STARTCHAR 049A
ENCODING 1178
SWIDTH 761 0
DWIDTH 16 0
BBX 15 18 2 -3
BITMAP
F07C
F0F8
F1F0
F3E0
F7C0
FF80
FF80
FFC0
FFC0
F9E0
F1F0
F0F0
F07E
F07E
F03E
001E
001E
001E
ENDCHAR
STARTCHAR 049B
ENCODING 1179
SWIDTH 666 0
DWIDTH 14 0
BBX 12 14 2 -3
BITMAP
E3E0
E780
EF00
FE00
FE00
FF00
F700
E780
E3C0
E1F0
E0F0
00F0
00F0
00F0
ENDCHAR
STARTCHAR 049C
ENCODING 1180
SWIDTH 809 0
DWIDTH 17 0
BBX 15 15 2 0
BITMAP
F07C
F6F8
F7F0
F7E0
F7C0
FF80
FF80
FFC0
FFC0
FFE0
F7F0
F6F0
F678
F07C
F03E
ENDCHAR
STARTCHAR 049D
ENCODING 1181
SWIDTH 666 0
DWIDTH 14 0
BBX 12 11 2 0
BITMAP
EFE0
EF80
EF00
FE00
FE00
FF00
FF00
EF80
EFC0
EDE0
E0F0
ENDCHAR
STARTCHAR 049E
ENCODING 1182
SWIDTH 809 0
DWIDTH 17 0
BBX 17 15 0 0
BITMAP
3C1F00
FE3E00
FE7C00
3CF800
3DF000
3FE000
3FE000
3FF000
3FF000
3E7800
3C7C00
3C3C00
3C1E00
3C1F00
3C0F80
ENDCHAR
STARTCHAR 049F
ENCODING 1183
SWIDTH 666 0
DWIDTH 14 0
BBX 14 16 0 0
BITMAP
3800
FF80
FF80
3800
3800
38F8
39E0
3BC0
3F80
3F80
3FC0
3DC0
39E0
38F0
3878
383C
ENDCHAR
STARTCHAR 04A0
ENCODING 1184
SWIDTH 1000 0
DWIDTH 21 0
BBX 20 15 1 0
BITMAP
FF83E0
FF87C0
FF8F80
079F00
07BE00
07BC00
07FC00
07FE00
07FE00
07CF00
078F80
0787C0
0783C0
0781E0
0781F0
ENDCHAR
STARTCHAR 04A1
ENCODING 1185
SWIDTH 809 0
DWIDTH 17 0
BBX 17 11 0 0
BITMAP
FF8F00
FF9E00
07FC00
07F000
07F000
07F800
07BC00
079C00
079E00
078F00
078780
ENDCHAR
STARTCHAR 04A2
ENCODING 1186
SWIDTH 952 0
DWIDTH 20 0
BBX 18 18 2 -3
BITMAP
F03C00
F03C00
F03C00
F03C00
F03C00
F03C00
FFFC00
FFFC00
FFFC00
F03C00
F03C00
F03C00
F03FC0
F03FC0
F03FC0
0003C0
0003C0
0003C0
ENDCHAR
STARTCHAR 04A3
ENCODING 1187
SWIDTH 809 0
DWIDTH 17 0
BBX 14 14 2 -3
BITMAP
E1E0
E1E0
E1E0
E1E0
FFE0
FFE0
E1E0
E1E0
E1E0
E1FC
E1FC
001C
001C
001C
ENDCHAR
STARTCHAR 04A4
ENCODING 1188
SWIDTH 1095 0
DWIDTH 23 0
BBX 21 15 2 0
BITMAP
F03FF8
F03FF8
F03FF8
F03C00
F03C00
F03C00
FFFC00
FFFC00
FFFC00
F03C00
F03C00
F03C00
F03C00
F03C00
F03C00
ENDCHAR
STARTCHAR 04A5
ENCODING 1189
SWIDTH 857 0
DWIDTH 18 0
BBX 16 11 2 0
BITMAP
E1FF
E1FF
E1E0
E1E0
FFE0
FFE0
E1E0
E1E0
E1E0
E1E0
E1E0
ENDCHAR
STARTCHAR 04A6
ENCODING 1190
SWIDTH 1285 0
DWIDTH 27 0
BBX 23 19 2 -4
BITMAP
FFFC00
FFFC00
FFFC00
F03C00
F03C00
F03C00
F03FFC
F03FFE
F03FFE
F03C1E
F03C1E
F03C1E
F03C1E
F03C1E
F03C1E
00001E
0000FC
0000FC
0000F0
ENDCHAR
STARTCHAR 04A7
ENCODING 1191
SWIDTH 1000 0
DWIDTH 21 0
BBX 18 16 2 -5
BITMAP
FFE000
FFE000
E1E000
E1E000
E1FE00
E1FF80
E1FF80
E1E3C0
E1E3C0
E1E3C0
E1E3C0
0003C0
0003C0
000F80
000F00
000C00
ENDCHAR
STARTCHAR 04A8
ENCODING 1192
SWIDTH 952 0
DWIDTH 20 0
BBX 18 16 1 0
BITMAP
020000
1E0800
3E3E00
7E7F00
78F780
78E780
F1E780
F1E780
F1E780
F0E780
F0F700
787700
7C3E00
3FFFC0
1FFFC0
0FF7C0
ENDCHAR
STARTCHAR 04A9
ENCODING 1193
SWIDTH 857 0
DWIDTH 18 0
BBX 17 12 1 0
BITMAP
0C0000
3C7000
7CFC00
79FE00
F1CE00
F3CE00
F1CE00
F1DE00
79FC00
7CF880
3FFF80
1FDF80
ENDCHAR
STARTCHAR 04AA
ENCODING 1194
SWIDTH 714 0
DWIDTH 15 0
BBX 13 19 1 -4
BITMAP
07F0
1FF8
3E08
7800
7800
F000
F000
F000
F000
F000
7800
7800
3E08
1FF8
07F0
0080
00C0
07C0
07C0
ENDCHAR
STARTCHAR 04AB
ENCODING 1195
SWIDTH 571 0
DWIDTH 12 0
BBX 10 15 1 -4
BITMAP
1F80
3FC0
7840
F000
F000
F000
F000
F000
7840
3FC0
1F80
0300
0100
0F00
0F00
ENDCHAR
STARTCHAR 04AC
ENCODING 1196
SWIDTH 666 0
DWIDTH 14 0
BBX 14 18 0 -3
BITMAP
FFFC
FFFC
FFFC
0780
0780
0780
0780
0780
0780
0780
0780
0780
07F8
07F8
07F8
0078
0078
0078
ENDCHAR
STARTCHAR 04AD
ENCODING 1197
SWIDTH 571 0
DWIDTH 12 0
BBX 12 14 0 -3
BITMAP
FFF0
FFF0
0F00
0F00
0F00
0F00
0F00
0F00
0F00
0FF0
0FF0
00F0
00F0
00F0
ENDCHAR
STARTCHAR 04AE
ENCODING 1198
SWIDTH 714 0
DWIDTH 15 0
BBX 15 15 0 0
BITMAP
F01E
783C
7C7C
3C78
1EF0
1FF0
0FE0
07C0
07C0
03C0
03C0
03C0
03C0
03C0
03C0
ENDCHAR
STARTCHAR 04AF
ENCODING 1199
SWIDTH 666 0
DWIDTH 14 0
BBX 12 16 1 -5
BITMAP
E0F0
F0E0
70E0
79E0
79C0
39C0
3F80
1F80
1F00
0F00
0F00
0E00
0E00
0E00
0E00
0E00
ENDCHAR
STARTCHAR 04B0
ENCODING 1200
SWIDTH 714 0
DWIDTH 15 0
BBX 15 15 0 0
BITMAP
F81E
783C
3C7C
3E78
1EF0
0FF0
0FE0
07C0
03C0
03C0
03C0
1FF0
03C0
03C0
03C0
ENDCHAR
STARTCHAR 04B1
ENCODING 1201
SWIDTH 666 0
DWIDTH 14 0
BBX 12 16 1 -5
BITMAP
E0F0
F0E0
70E0
79E0
79C0
39C0
3F80
1F80
1F00
0F00
0F00
0E00
3FC0
3FC0
0E00
0E00
ENDCHAR
STARTCHAR 04B2
ENCODING 1202
SWIDTH 761 0
DWIDTH 16 0
BBX 15 18 1 -3
BITMAP
F03C
7878
3C78
3CF0
1FE0
0FE0
0FC0
07C0
0FC0
1FE0
3EF0
3CF0
787E
F83E
F03E
000E
000E
000E
ENDCHAR
STARTCHAR 04B3
ENCODING 1203
SWIDTH 666 0
DWIDTH 14 0
BBX 12 14 1 -3
BITMAP
F1F0
79E0
3BC0
3F80
1F00
1F00
1F80
3FC0
79C0
F1F0
F0F0
0070
0070
0070
ENDCHAR
STARTCHAR 04B4
ENCODING 1204
SWIDTH 1095 0
DWIDTH 23 0
BBX 23 18 0 -3
BITMAP
FFFDE0
FFFDE0
FFFDE0
0781E0
0781E0
0781E0
0781E0
0781E0
0781E0
0781E0
0781E0
0781E0
07FFFE
07FFFE
07FFFE
00001E
00001E
00001E
ENDCHAR
STARTCHAR 04B5
ENCODING 1205
SWIDTH 1000 0
DWIDTH 21 0
BBX 20 14 0 -3
BITMAP
FFF780
FFF780
0F0780
0F0780
0F0780
0F0780
0F0780
0F0780
0F0780
0FFFF0
0FFFF0
000070
000070
000070
ENDCHAR
STARTCHAR 04B6
ENCODING 1206
SWIDTH 809 0
DWIDTH 17 0
BBX 17 18 2 -3
BITMAP
F07800
F07800
F07800
F07800
F07800
F87800
FFF800
7FF800
1FF800
007800
007800
007800
007F80
007F80
007F80
000780
000780
000780
ENDCHAR
STARTCHAR 04B7
ENCODING 1207
SWIDTH 666 0
DWIDTH 14 0
BBX 15 14 1 -3
BITMAP
F1E0
F1E0
F1E0
F1E0
7FE0
7FE0
01E0
01E0
01E0
01FE
01FE
001E
001E
001E
ENDCHAR
STARTCHAR 04B8
ENCODING 1208
SWIDTH 809 0
DWIDTH 17 0
BBX 13 15 2 0
BITMAP
F078
F078
F278
F278
F278
FA78
FFF8
7FF8
1FF8
0278
0078
0078
0078
0078
0078
ENDCHAR
STARTCHAR 04B9
ENCODING 1209
SWIDTH 666 0
DWIDTH 14 0
BBX 11 11 1 0
BITMAP
F1E0
F1E0
F5E0
F5E0
7FE0
7FE0
05E0
05E0
01E0
01E0
01E0
ENDCHAR
STARTCHAR 04BA
ENCODING 1210
SWIDTH 809 0
DWIDTH 17 0
BBX 13 15 2 0
BITMAP
F000
F000
F000
F000
F000
F000
FFF0
FFF8
FFF8
F078
F078
F078
F078
F078
F078
ENDCHAR
STARTCHAR 04BB
ENCODING 1211
SWIDTH 714 0
DWIDTH 15 0
BBX 11 16 2 0
BITMAP
E000
E000
E000
E000
E000
E7C0
EFE0
F1E0
F0E0
E0E0
E0E0
E0E0
E0E0
E0E0
E0E0
E0E0
ENDCHAR
STARTCHAR 04BC
ENCODING 1212
SWIDTH 1047 0
DWIDTH 22 0
BBX 20 16 0 0
BITMAP
001C00
00FF80
01FFC0
E3E3E0
E3C1F0
F780F0
7F80F0
7FFFF0
1FFFF0
078000
078000
07C000
03E020
03FFE0
01FFE0
007FC0
ENDCHAR
STARTCHAR 04BD
ENCODING 1213
SWIDTH 809 0
DWIDTH 17 0
BBX 16 12 0 0
BITMAP
00F0
03FC
E7FE
EF0E
EF0F
7FFF
3FFF
0E00
0F00
0F86
07FE
03FE
ENDCHAR
STARTCHAR 04BE
ENCODING 1214
SWIDTH 1047 0
DWIDTH 22 0
BBX 20 20 0 -4
BITMAP
001C00
00FF80
01FFC0
E3E3E0
E3C1F0
F780F0
7F80F0
7FFFF0
1FFFF0
078000
078000
07C000
03E020
03FFE0
01FFE0
007FC0
000E00
000E00
000E00
000E00
ENDCHAR
STARTCHAR 04BF
ENCODING 1215
SWIDTH 809 0
DWIDTH 17 0
BBX 16 15 0 -3
BITMAP
00F0
03FC
E7FE
EF0E
EF0F
7FFF
3FFF
0E00
0F00
0F86
07FE
03FE
0060
0060
0060
ENDCHAR
STARTCHAR 04C0
ENCODING 1216
SWIDTH 380 0
DWIDTH 8 0
BBX 4 15 2 0
BITMAP
F0
F0
F0
F0
F0
F0
F0
F0
F0
F0
F0
F0
F0
F0
F0
ENDCHAR
STARTCHAR 04C1
ENCODING 1217
SWIDTH 1238 0
DWIDTH 26 0
BBX 24 20 1 0
BITMAP
004200
006600
003C00
000000
000000
F83C1E
783C3C
3C3C78
1E3CF0
0F3DF0
07BFE0
07FFC0
07FFE0
0FFFF0
1E7EF8
3E3C78
3C3C3C
783C3E
F83C1E
F03C0F
ENDCHAR
STARTCHAR 04C2
ENCODING 1218
SWIDTH 1000 0
DWIDTH 21 0
BBX 19 16 1 0
BITMAP
031800
01F800
00F000
000000
000000
F0E1E0
78E3C0
3CEF80
1EFE00
0FFC00
0FFE00
1FFF00
3CE780
78E3C0
70E1C0
E0E1E0
ENDCHAR
STARTCHAR 04C3
ENCODING 1219
SWIDTH 761 0
DWIDTH 16 0
BBX 14 19 2 -4
BITMAP
F07C
F0F0
F1E0
F3C0
F780
FF00
FFF0
FFF8
FFF8
F078
F078
F078
F078
F078
F078
0078
03F8
03F0
03E0
ENDCHAR
STARTCHAR 04C4
ENCODING 1220
SWIDTH 619 0
DWIDTH 13 0
BBX 11 16 2 -5
BITMAP
E3E0
E780
EF00
FE00
FF00
FF80
FFC0
E1C0
E1C0
E1C0
E1C0
01C0
03C0
0FC0
0F80
0E00
ENDCHAR
STARTCHAR 04C5
ENCODING 1221
SWIDTH 952 0
DWIDTH 20 0
BBX 18 19 1 -4
BITMAP
0FFE00
0FFE00
0FFE00
0F1E00
0F1E00
0F1E00
1E1E00
1E1E00
1E1E00
1E1E00
1E1E00
3C1E00
FC1FC0
F81FC0
F01FC0
0003C0
000780
000F00
001C00
ENDCHAR
STARTCHAR 04C6
ENCODING 1222
SWIDTH 809 0
DWIDTH 17 0
BBX 16 15 0 -4
BITMAP
0FF8
0FF8
0E78
0E78
0E78
1E78
1E78
1E78
7C78
FC7F
F07F
000F
000E
001C
0038
ENDCHAR
STARTCHAR 04C7
ENCODING 1223
SWIDTH 857 0
DWIDTH 18 0
BBX 14 19 2 -4
BITMAP
F03C
F03C
F03C
F03C
F03C
F03C
FFFC
FFFC
FFFC
F03C
F03C
F03C
F03C
F03C
F03C
0078
01F8
01F0
01E0
ENDCHAR
STARTCHAR 04C8
ENCODING 1224
SWIDTH 714 0
DWIDTH 15 0
BBX 11 16 2 -5
BITMAP
E1E0
E1E0
E1E0
E1E0
FFE0
FFE0
E1E0
E1E0
E1E0
E1E0
E1E0
01E0
01E0
07C0
0780
0600
ENDCHAR
STARTCHAR 04C9
ENCODING 1225
SWIDTH 952 0
DWIDTH 20 0
BBX 18 19 2 -4
BITMAP
F03C00
F03C00
F03C00
F03C00
F03C00
F03C00
FFFC00
FFFC00
FFFC00
F03C00
F03C00
F03C00
F03FC0
F03FC0
F03FC0
000780
000F00
000E00
003C00
ENDCHAR
STARTCHAR 04CA
ENCODING 1226
SWIDTH 809 0
DWIDTH 17 0
BBX 14 15 2 -4
BITMAP
E1E0
E1E0
E1E0
E1E0
FFE0
FFE0
E1E0
E1E0
E1E0
E1FC
E1FC
003C
0038
0070
00E0
ENDCHAR
STARTCHAR 04CB
ENCODING 1227
SWIDTH 809 0
DWIDTH 17 0
BBX 13 18 2 -3
BITMAP
F078
F078
F078
F078
F078
F878
FFF8
7FF8
1FF8
0078
0078
0078
07F8
07F8
07F8
0780
0780
0780
ENDCHAR
STARTCHAR 04CC
ENCODING 1228
SWIDTH 666 0
DWIDTH 14 0
BBX 11 14 1 -3
BITMAP
F1E0
F1E0
F1E0
F1E0
7FE0
7FE0
01E0
01E0
01E0
0FE0
0FE0
0E00
0E00
0E00
ENDCHAR
STARTCHAR 04CD
ENCODING 1229
SWIDTH 1095 0
DWIDTH 23 0
BBX 21 19 2 -4
BITMAP
F80F80
FC1F80
FC1F80
FE3F80
FE3F80
FE7F80
F77780
F77780
F3E780
F3E780
F1C780
F1C780
F007F8
F007F8
F007F8
000070
0000E0
0001C0
000380
ENDCHAR
STARTCHAR 04CE
ENCODING 1230
SWIDTH 952 0
DWIDTH 20 0
BBX 17 15 2 -4
BITMAP
F07800
F8F800
F8F800
FDF800
FDF800
EFB800
EFB800
E73800
E73800
E03F80
E03F80
000780
000F00
001C00
001800
ENDCHAR
STARTCHAR 04CF
ENCODING 1231
SWIDTH 333 0
DWIDTH 7 0
BBX 3 16 2 0
BITMAP
E0
E0
E0
E0
E0
E0
E0
E0
E0
E0
E0
E0
E0
E0
E0
E0
ENDCHAR
STARTCHAR 04D0
ENCODING 1232
SWIDTH 761 0
DWIDTH 16 0
BBX 16 19 0 0
BITMAP
0420
07E0
03C0
0000
03E0
07E0
07E0
0FF0
0F70
0E78
1E78
1E38
1C3C
3FFC
3FFC
781E
780E
700F
F00F
ENDCHAR
STARTCHAR 04D1
ENCODING 1233
SWIDTH 666 0
DWIDTH 14 0
BBX 12 16 1 0
BITMAP
18C0
1FC0
0F80
0000
0000
3F80
7FE0
41E0
00E0
3FF0
7FF0
F0F0
F0F0
F1F0
7EF0
3CF0
ENDCHAR
STARTCHAR 04D2
ENCODING 1234
SWIDTH 761 0
DWIDTH 16 0
BBX 16 20 0 0
BITMAP
0660
0660
0660
0000
0000
03E0
07E0
07E0
0FF0
0F70
0E78
1E78
1E38
1C3C
3FFC
3FFC
781E
780E
700F
F00F
ENDCHAR
STARTCHAR 04D3
ENCODING 1235
SWIDTH 666 0
DWIDTH 14 0
BBX 12 16 1 0
BITMAP
1980
1980
1980
0000
0000
3F80
7FE0
41E0
00E0
3FF0
7FF0
F0F0
F0F0
F1F0
7EF0
3CF0
ENDCHAR
STARTCHAR 04D4
ENCODING 1236
SWIDTH 1095 0
DWIDTH 23 0
BBX 21 15 0 0
BITMAP
03FFF8
03FFF8
07BC00
07BC00
0F3C00
0F3C00
0E3FF8
1E3FF8
1E3C00
3FFC00
3FFC00
783C00
783C00
703FF8
F03FF8
ENDCHAR
STARTCHAR 04D5
ENCODING 1237
SWIDTH 1047 0
DWIDTH 22 0
BBX 20 11 1 0
BITMAP
3F0F80
7FBFC0
41F9E0
00F0F0
3FF0F0
7FFFF0
F0FFF0
F0F000
F1F020
FF7FE0
3E1FC0
ENDCHAR
STARTCHAR 04D6
ENCODING 1238
SWIDTH 666 0
DWIDTH 14 0
BBX 11 20 2 0
BITMAP
2100
3300
1E00
0000
0000
FFE0
FFE0
F000
F000
F000
F000
FFC0
FFC0
F000
F000
F000
F000
F000
FFE0
FFE0
ENDCHAR
STARTCHAR 04D7
ENCODING 1239
SWIDTH 666 0
DWIDTH 14 0
BBX 12 16 1 0
BITMAP
18C0
1FC0
0F80
0000
0000
1F80
3FC0
78E0
F0F0
F0F0
FFF0
FFF0
F000
7830
3FF0
1FC0
ENDCHAR
STARTCHAR 04D8
ENCODING 1240
SWIDTH 857 0
DWIDTH 18 0
BBX 16 15 1 0
BITMAP
1FE0
3FF8
207C
001E
001E
000F
FFFF
FFFF
F01F
F81F
781E
783E
3C3C
1FF8
07E0
ENDCHAR
STARTCHAR 04D9
ENCODING 1241
SWIDTH 666 0
DWIDTH 14 0
BBX 12 11 1 0
BITMAP
3F80
FFE0
C0E0
00F0
FFF0
FFF0
F0F0
F0F0
79E0
3FE0
1F80
ENDCHAR
STARTCHAR 04DA
ENCODING 1242
SWIDTH 857 0
DWIDTH 18 0
BBX 16 20 1 0
BITMAP
0CE0
0CE0
0CE0
0000
0000
1FE0
3FF8
207C
001E
001E
000F
FFFF
FFFF
F01F
F81F
781E
783E
3C3C
1FF8
07E0
ENDCHAR
STARTCHAR 04DB
ENCODING 1243
SWIDTH 666 0
DWIDTH 14 0
BBX 12 16 1 0
BITMAP
1980
1980
1980
0000
0000
3F80
FFE0
C0E0
00F0
FFF0
FFF0
F0F0
F0F0
79E0
3FE0
1F80
ENDCHAR
STARTCHAR 04DC
ENCODING 1244
SWIDTH 1238 0
DWIDTH 26 0
BBX 24 20 1 0
BITMAP
006600
006600
006600
000000
000000
F83C1E
783C3C
3C3C78
1E3CF0
0F3DF0
07BFE0
07FFC0
07FFE0
0FFFF0
1E7EF8
3E3C78
3C3C3C
783C3E
F83C1E
F03C0F
ENDCHAR
STARTCHAR 04DD
ENCODING 1245
SWIDTH 1000 0
DWIDTH 21 0
BBX 19 16 1 0
BITMAP
03B800
03B800
03B800
000000
000000
F0E1E0
78E3C0
3CEF80
1EFE00
0FFC00
0FFE00
1FFF00
3CE780
78E3C0
70E1C0
E0E1E0
ENDCHAR
STARTCHAR 04DE
ENCODING 1246
SWIDTH 714 0
DWIDTH 15 0
BBX 13 20 1 0
BITMAP
1980
1980
1980
0000
0000
3F80
7FE0
40F0
00F0
00F0
00F0
1FC0
1FE0
00F0
00F0
0078
00F0
C0F0
FFE0
3F80
ENDCHAR
STARTCHAR 04DF
ENCODING 1247
SWIDTH 571 0
DWIDTH 12 0
BBX 10 16 1 0
BITMAP
7300
7300
7300
0000
0000
3F00
7F80
83C0
0380
3F80
3F80
03C0
01C0
83C0
FF80
7F00
ENDCHAR
STARTCHAR 04E0
ENCODING 1248
SWIDTH 761 0
DWIDTH 16 0
BBX 13 16 2 -1
BITMAP
FFF0
FFF0
FFF0
03E0
03C0
0780
0F00
0FE0
0FF0
0078
0078
0078
E0F8
FFF8
FFF0
0F80
ENDCHAR
STARTCHAR 04E1
ENCODING 1249
SWIDTH 619 0
DWIDTH 13 0
BBX 11 16 1 -5
BITMAP
FFC0
FFC0
03C0
0780
0F00
1E00
3C00
3FC0
3FE0
01E0
01E0
01E0
C3E0
FFE0
FF80
0800
ENDCHAR
STARTCHAR 04E2
ENCODING 1250
SWIDTH 857 0
DWIDTH 18 0
BBX 14 19 2 0
BITMAP
1FC0
1FC0
0000
0000
F07C
F0FC
F0FC
F1FC
F1FC
F3BC
F3BC
F73C
F73C
FE3C
FE3C
FC3C
FC3C
F83C
F83C
ENDCHAR
STARTCHAR 04E3
ENCODING 1251
SWIDTH 714 0
DWIDTH 15 0
BBX 11 16 2 0
BITMAP
3F80
3F80
0000
0000
0000
E1E0
E3E0
E3E0
E7E0
EFE0
EFE0
FDE0
FDE0
F9E0
F9E0
F1E0
ENDCHAR
STARTCHAR 04E4
ENCODING 1252
SWIDTH 857 0
DWIDTH 18 0
BBX 14 20 2 0
BITMAP
1DC0
1DC0
1DC0
0000
0000
F07C
F0FC
F0FC
F1FC
F1FC
F3BC
F3BC
F73C
F73C
FE3C
FE3C
FC3C
FC3C
F83C
F83C
ENDCHAR
STARTCHAR 04E5
ENCODING 1253
SWIDTH 714 0
DWIDTH 15 0
BBX 11 16 2 0
BITMAP
3B80
3B80
3B80
0000
0000
E1E0
E3E0
E3E0
E7E0
EFE0
EFE0
FDE0
FDE0
F9E0
F9E0
F1E0
ENDCHAR
STARTCHAR 04E6
ENCODING 1254
SWIDTH 857 0
DWIDTH 18 0
BBX 16 20 1 0
BITMAP
0660
0660
0660
0000
0000
07E0
1FF8
3C3C
781E
781E
F00F
F00F
F00F
F00F
F00F
781E
781E
3C3C
1FF8
07E0
ENDCHAR
STARTCHAR 04E7
ENCODING 1255
SWIDTH 666 0
DWIDTH 14 0
BBX 13 16 1 0
BITMAP
1980
1980
1980
0000
0000
1F80
3FE0
78F0
F0F0
F070
F078
F070
F0F0
78F0
3FE0
1F80
ENDCHAR
STARTCHAR 04E8
ENCODING 1256
SWIDTH 857 0
DWIDTH 18 0
BBX 16 15 1 0
BITMAP
07E0
1FF8
3C3C
783E
781E
F81F
F01F
FFFF
FFFF
F00F
701E
781E
3C3C
1FF8
07E0
ENDCHAR
STARTCHAR 04E9
ENCODING 1257
SWIDTH 666 0
DWIDTH 14 0
BBX 13 11 1 0
BITMAP
1F80
3FE0
78F0
F0F0
FFF0
FFF8
F070
F0F0
78F0
3FE0
1F80
ENDCHAR
STARTCHAR 04EA
ENCODING 1258
SWIDTH 857 0
DWIDTH 18 0
BBX 16 20 1 0
BITMAP
0660
0660
0660
0000
0000
07E0
1FF8
3C3C
783E
781E
F81F
F01F
FFFF
FFFF
F00F
701E
781E
3C3C
1FF8
07E0
ENDCHAR
STARTCHAR 04EB
ENCODING 1259
SWIDTH 666 0
DWIDTH 14 0
BBX 13 16 1 0
BITMAP
1980
1980
1980
0000
0000
1F80
3FE0
78F0
F0F0
FFF0
FFF8
F070
F0F0
78F0
3FE0
1F80
ENDCHAR
STARTCHAR 04EC
ENCODING 1260
SWIDTH 714 0
DWIDTH 15 0
BBX 13 20 1 0
BITMAP
1980
1980
1980
0000
0E00
FFC0
FFE0
E3F0
80F8
0078
0078
3FF8
3FF8
3FF8
0078
00F8
80F0
FFF0
FFE0
7F80
ENDCHAR
STARTCHAR 04ED
ENCODING 1261
SWIDTH 571 0
DWIDTH 12 0
BBX 11 16 1 0
BITMAP
3300
3300
3300
0000
3C00
FF00
FF80
83C0
03C0
3FE0
3FE0
01C0
03C0
C7C0
FF80
FF00
ENDCHAR
STARTCHAR 04EE
ENCODING 1262
SWIDTH 761 0
DWIDTH 16 0
BBX 14 19 1 0
BITMAP
0FC0
0FC0
0000
0000
F03C
F03C
7878
7878
3CF0
3CF0
1FE0
1FE0
0FC0
0FC0
0FC0
0780
0780
3F00
3C00
ENDCHAR
STARTCHAR 04EF
ENCODING 1263
SWIDTH 666 0
DWIDTH 14 0
BBX 13 20 0 -4
BITMAP
0FC0
0FC0
0000
0000
0000
F078
7878
7870
38F0
3CF0
1CE0
1FE0
0FC0
0FC0
0780
0780
0780
0700
3F00
3E00
ENDCHAR
STARTCHAR 04F0
ENCODING 1264
SWIDTH 761 0
DWIDTH 16 0
BBX 14 20 1 0
BITMAP
0CC0
0CC0
0CC0
0000
0000
F03C
F03C
7878
7878
3CF0
3CF0
1FE0
1FE0
0FC0
0FC0
0FC0
0780
0780
3F00
3C00
ENDCHAR
STARTCHAR 04F1
ENCODING 1265
SWIDTH 666 0
DWIDTH 14 0
BBX 13 20 0 -4
BITMAP
0CC0
0CC0
0CC0
0000
0000
F078
7878
7870
38F0
3CF0
1CE0
1FE0
0FC0
0FC0
0780
0780
0780
0700
3F00
3E00
ENDCHAR
STARTCHAR 04F2
ENCODING 1266
SWIDTH 761 0
DWIDTH 16 0
BBX 14 20 1 0
BITMAP
0770
06E0
0CC0
0000
0000
F03C
F03C
7878
7878
3CF0
3CF0
1FE0
1FE0
0FC0
0FC0
0FC0
0780
0780
3F00
3C00
ENDCHAR
STARTCHAR 04F3
ENCODING 1267
SWIDTH 666 0
DWIDTH 14 0
BBX 13 21 0 -4
BITMAP
0660
06E0
0CC0
0D80
0000
0000
F078
7878
7870
38F0
3CF0
1CE0
1FE0
0FC0
0FC0
0780
0780
0780
0700
3F00
3E00
ENDCHAR
STARTCHAR 04F4
ENCODING 1268
SWIDTH 809 0
DWIDTH 17 0
BBX 13 20 2 0
BITMAP
1DC0
1DC0
1DC0
0000
0000
F078
F078
F078
F078
F078
F078
FFF8
7FF8
0078
0078
0078
0078
0078
0078
0078
ENDCHAR
STARTCHAR 04F5
ENCODING 1269
SWIDTH 666 0
DWIDTH 14 0
BBX 11 16 1 0
BITMAP
1980
1980
1980
0000
0000
F1E0
F1E0
F1E0
F1E0
7FE0
3FE0
01E0
01E0
01E0
01E0
01E0
ENDCHAR
STARTCHAR 04F6
ENCODING 1270
SWIDTH 619 0
DWIDTH 13 0
BBX 11 18 2 -3
BITMAP
FFE0
FFE0
FFE0
F000
F000
F000
F000
F000
F000
F000
F000
F000
FF00
FF00
FF00
0F00
0F00
0F00
ENDCHAR
STARTCHAR 04F7
ENCODING 1271
SWIDTH 523 0
DWIDTH 11 0
BBX 8 14 2 -3
BITMAP
FF
FF
E0
E0
E0
E0
E0
E0
E0
FE
FE
1E
1E
1E
ENDCHAR
STARTCHAR 04F8
ENCODING 1272
SWIDTH 1047 0
DWIDTH 22 0
BBX 18 20 2 0
BITMAP
077000
077000
077000
000000
000000
F003C0
F003C0
F003C0
F003C0
F003C0
F003C0
FFC3C0
FFE3C0
F0F3C0
F0F3C0
F07BC0
F0F3C0
F0F3C0
FFE3C0
FFC3C0
ENDCHAR
STARTCHAR 04F9
ENCODING 1273
SWIDTH 904 0
DWIDTH 19 0
BBX 15 16 2 0
BITMAP
0EE0
0EE0
0EE0
0000
0000
E00E
E00E
E00E
E00E
FF0E
FFCE
E1CE
E1CE
E1CE
FFCE
FF0E
ENDCHAR
STARTCHAR 04FA
ENCODING 1274
SWIDTH 666 0
DWIDTH 14 0
BBX 12 20 1 -5
BITMAP
3FF0
3FF0
3FF0
3800
3800
3800
FFC0
FFC0
FFC0
3800
3800
3800
3F80
3F80
3F80
0780
0780
1F80
1F00
1C00
ENDCHAR
STARTCHAR 04FB
ENCODING 1275
SWIDTH 523 0
DWIDTH 11 0
BBX 11 16 0 -5
BITMAP
3FE0
3FE0
3C00
3C00
FF80
FF80
3C00
3C00
3FC0
3FC0
3FC0
03C0
0380
1F80
1F00
1C00
ENDCHAR
STARTCHAR 04FC
ENCODING 1276
SWIDTH 761 0
DWIDTH 16 0
BBX 15 19 1 -4
BITMAP
F03C
7878
3C78
3CF0
1FE0
0FE0
0FC0
07C0
0FC0
1FE0
3EF0
3CF0
7878
F83C
F03C
003E
00FC
00FC
00F0
ENDCHAR
STARTCHAR 04FD
ENCODING 1277
SWIDTH 666 0
DWIDTH 14 0
BBX 12 16 1 -5
BITMAP
F1F0
79E0
3BC0
3F80
1F00
1F00
1F80
3FC0
79C0
F1E0
F0F0
00F0
00F0
03E0
03E0
0300
ENDCHAR
STARTCHAR 04FE
ENCODING 1278
SWIDTH 761 0
DWIDTH 16 0
BBX 14 15 1 0
BITMAP
F03C
7878
3C78
3CF0
1FE0
0FE0
FFFC
FFFC
FFFC
1FE0
3EF0
3CF0
7878
F83C
F03C
ENDCHAR
STARTCHAR 04FF
ENCODING 1279
SWIDTH 666 0
DWIDTH 14 0
BBX 12 11 1 0
BITMAP
F1F0
79E0
3BC0
3F80
FFE0
FFE0
1F80
3FC0
79C0
F1E0
F0F0
ENDCHAR
STARTCHAR 0500
ENCODING 1280
SWIDTH 761 0
DWIDTH 16 0
BBX 13 15 1 0
BITMAP
0078
0078
0078
0078
0078
0078
3FF8
7FF8
7FF8
7878
F078
7878
7FF8
3FF8
1FF8
ENDCHAR
STARTCHAR 0501
ENCODING 1281
SWIDTH 619 0
DWIDTH 13 0
BBX 10 11 1 0
BITMAP
03C0
03C0
03C0
03C0
3FC0
FFC0
F3C0
E3C0
F3C0
7FC0
3FC0
ENDCHAR
STARTCHAR 0502
ENCODING 1282
SWIDTH 1142 0
DWIDTH 24 0
BBX 22 15 1 0
BITMAP
007800
007800
007800
007800
00783C
00783C
3FF83C
7FF83C
7FF83C
78783C
F0783C
78FC78
7FFFF8
7F9FF0
3F0FE0
ENDCHAR
STARTCHAR 0503
ENCODING 1283
SWIDTH 904 0
DWIDTH 19 0
BBX 17 11 1 0
BITMAP
03C000
03C000
03C000
03C780
3FC780
FFC780
F3C780
E3C780
F3FF00
FFFF00
7CFE00
ENDCHAR
STARTCHAR 0504
ENCODING 1284
SWIDTH 1142 0
DWIDTH 24 0
BBX 20 16 2 0
BITMAP
1C0000
FF8000
FFC000
83E000
01E000
01C0F0
03C0F0
3F80F0
3F80F0
07C0F0
01E0F0
01E1E0
01E1E0
00FFE0
00FFC0
003F80
ENDCHAR
STARTCHAR 0505
ENCODING 1285
SWIDTH 904 0
DWIDTH 19 0
BBX 16 12 2 0
BITMAP
7C00
FE00
FF00
0700
0F0F
7E0F
7E0F
0F0F
070E
07FE
03FE
01F8
ENDCHAR
STARTCHAR 0506
ENCODING 1286
SWIDTH 809 0
DWIDTH 17 0
BBX 15 20 2 -4
BITMAP
1C00
FF80
FFC0
83E0
01E0
01C0
03C0
3F80
3F80
07C0
01E0
01E0
01E0
01FE
01FE
01FE
001E
001E
001E
001E
ENDCHAR
STARTCHAR 0507
ENCODING 1287
SWIDTH 714 0
DWIDTH 15 0
BBX 12 16 2 -4
BITMAP
7C00
FE00
FF00
0700
0F00
7E00
7E00
0F00
0700
0700
07F0
07F0
00F0
00F0
00F0
00F0
ENDCHAR
STARTCHAR 0508
ENCODING 1288
SWIDTH 1238 0
DWIDTH 26 0
BBX 23 15 1 0
BITMAP
0FFE00
0FFE00
0FFE00
0F1E00
0F1E1E
0F1E1E
1E1E1E
1E1E1E
1E1E1E
1E1E1E
1E1E1E
3C1E1E
FC1FFC
F80FFC
F007F0
ENDCHAR
STARTCHAR 0509
ENCODING 1289
SWIDTH 1000 0
DWIDTH 21 0
BBX 20 11 0 0
BITMAP
0FF800
0FF800
0E7800
0E78F0
0E78F0
1E78F0
1E78F0
1E78E0
7C7FE0
FC3FE0
F01F80
ENDCHAR
STARTCHAR 050A
ENCODING 1290
SWIDTH 1285 0
DWIDTH 27 0
BBX 23 15 2 0
BITMAP
F03C00
F03C00
F03C00
F03C00
F03C1E
F03C1E
FFFC1E
FFFC1E
FFFC1E
F03C1E
F03C1E
F03C3E
F03FFC
F01FF8
F00FF0
ENDCHAR
STARTCHAR 050B
ENCODING 1291
SWIDTH 1000 0
DWIDTH 21 0
BBX 18 11 2 0
BITMAP
E1E000
E1E000
E1E000
E1E3C0
FFE3C0
FFE3C0
E1E3C0
E1E3C0
E1FF80
E0FF80
E07F00
ENDCHAR
STARTCHAR 050C
ENCODING 1292
SWIDTH 857 0
DWIDTH 18 0
BBX 15 16 1 0
BITMAP
01C0
0FFC
3FFC
7E1C
7800
F800
F01E
F01E
F01E
F01E
F01E
781E
7C3C
3FFC
1FF8
0FF0
ENDCHAR
STARTCHAR 050D
ENCODING 1293
SWIDTH 619 0
DWIDTH 13 0
BBX 10 11 1 0
BITMAP
3FC0
7FC0
F000
E000
E1C0
E1C0
E1C0
E1C0
71C0
7F80
1F00
ENDCHAR
STARTCHAR 050E
ENCODING 1294
SWIDTH 952 0
DWIDTH 20 0
BBX 18 15 0 0
BITMAP
FFFC00
FFFC00
FFFC00
078000
0783C0
0783C0
0783C0
0783C0
0783C0
0783C0
0783C0
03C780
03FF80
01FF00
00FE00
ENDCHAR
STARTCHAR 050F
ENCODING 1295
SWIDTH 809 0
DWIDTH 17 0
BBX 15 11 0 0
BITMAP
FFF0
FFF0
0F00
0F0E
0F0E
0F0E
0F1E
0F1E
07FC
07FC
03F8
ENDCHAR
STARTCHAR 0510
ENCODING 1296
SWIDTH 714 0
DWIDTH 15 0
BBX 12 15 1 0
BITMAP
1F80
3FE0
7860
7820
7800
7800
1F80
3F80
7800
7800
F000
7810
7830
3FE0
0FC0
ENDCHAR
STARTCHAR 0511
ENCODING 1297
SWIDTH 571 0
DWIDTH 12 0
BBX 9 11 1 0
BITMAP
3F00
7F80
F080
7000
7E00
7E00
F000
E000
F080
7F80
3F00
ENDCHAR
STARTCHAR 0512
ENCODING 1298
SWIDTH 809 0
DWIDTH 17 0
BBX 15 19 1 -4
BITMAP
0FFE
0FFE
0FFE
0F1E
0F1E
0F1E
0E1E
1E1E
1E1E
1E1E
1E1E
3E1E
FC1E
F81E
E03C
003C
01FC
01F8
01F0
ENDCHAR
STARTCHAR 0513
ENCODING 1299
SWIDTH 714 0
DWIDTH 15 0
BBX 13 16 1 -5
BITMAP
1FF8
1FF8
1C78
1C78
1C78
1C78
3C78
3C78
FC78
F878
E078
0078
0070
03F0
03E0
0380
ENDCHAR
STARTCHAR 0514
ENCODING 1300
SWIDTH 1285 0
DWIDTH 27 0
BBX 25 15 1 0
BITMAP
0FFE0780
0FFF0F00
0FFF1E00
0F079E00
0F03FC00
0F03F800
0E01F800
1E01F000
1E01F800
1E03FC00
1E07BE00
3E079E00
FC0F0F00
F81E0F80
E01E0780
ENDCHAR
STARTCHAR 0515
ENCODING 1301
SWIDTH 1047 0
DWIDTH 22 0
BBX 21 11 1 0
BITMAP
1FF8F0
1FFCE0
1C1DE0
1C1FC0
1C0F80
1C0F80
3C0FC0
3C1FE0
FC3DE0
F878F0
E07078
ENDCHAR
STARTCHAR 0516
ENCODING 1302
SWIDTH 1047 0
DWIDTH 22 0
BBX 20 15 2 0
BITMAP
FFC1E0
FFE3E0
FFF7C0
F0F780
F0FF00
F0FF00
F0FE00
FFFE00
FFFF00
FF8F00
F00F80
F007C0
F003C0
F001E0
F001F0
ENDCHAR
STARTCHAR 0517
ENCODING 1303
SWIDTH 1000 0
DWIDTH 21 0
BBX 18 16 2 -4
BITMAP
038000
EFC7C0
FFE780
F1FF00
F0FE00
E0FC00
E0FC00
F0FE00
F0FF00
F9EF00
EFE780
E7C3C0
E00000
E00000
E00000
E00000
ENDCHAR
STARTCHAR 0518
ENCODING 1304
SWIDTH 1095 0
DWIDTH 23 0
BBX 19 15 2 0
BITMAP
3FFFE0
7FFFE0
FFFFE0
F0F000
F0F000
F0F000
7FFFE0
7FFFE0
1FFFE0
1EF000
3CF000
7CF000
78FFE0
F0FFE0
F0FFE0
ENDCHAR
STARTCHAR 0519
ENCODING 1305
SWIDTH 1000 0
DWIDTH 21 0
BBX 19 12 1 0
BITMAP
001E00
7FFF80
7FFFC0
F1E1E0
71E1E0
79FFE0
3FFFE0
3FE000
39E000
78F0E0
70FFE0
F03FC0
ENDCHAR
STARTCHAR 051A
ENCODING 1306
SWIDTH 857 0
DWIDTH 18 0
BBX 16 18 1 -3
BITMAP
07E0
1FF8
3C3C
781E
781E
F00F
F00F
F00F
F00F
F00F
781E
781E
3C3C
1FF8
07F0
0070
0038
003C
ENDCHAR
STARTCHAR 051B
ENCODING 1307
SWIDTH 714 0
DWIDTH 15 0
BBX 12 15 1 -4
BITMAP
1E70
7F70
78F0
F0F0
F070
F070
F070
F0F0
78F0
7F70
1E70
0070
0070
0070
0070
ENDCHAR
STARTCHAR 051C
ENCODING 1308
SWIDTH 1095 0
DWIDTH 23 0
BBX 21 15 1 0
BITMAP
F07838
F0F878
F0F878
F0F878
78DC70
79DCF0
79DCF0
79CCF0
398EE0
3F8FE0
3F8FE0
3F8FE0
1F07C0
1F07C0
1F07C0
ENDCHAR
STARTCHAR 051D
ENCODING 1309
SWIDTH 904 0
DWIDTH 19 0
BBX 18 11 1 0
BITMAP
E1C3C0
F1E380
F1E780
73E780
736700
7B7700
3B7F00
3F3F00
3E3E00
3E3E00
1E1E00
ENDCHAR
STARTCHAR 051E
ENCODING 1310
SWIDTH 809 0
DWIDTH 17 0
BBX 15 15 2 0
BITMAP
F77C
F3F8
F1F0
F3E0
F7F0
FFB8
FF80
FFC0
FFC0
F9E0
F1F0
F0F0
F078
F07C
F03E
ENDCHAR
STARTCHAR 051F
ENCODING 1311
SWIDTH 666 0
DWIDTH 14 0
BBX 12 11 2 0
BITMAP
EFE0
E780
EF80
FEC0
FE00
FF00
F700
E780
E3C0
E1E0
E0F0
ENDCHAR
STARTCHAR 0520
ENCODING 1312
SWIDTH 1285 0
DWIDTH 27 0
BBX 24 19 1 -4
BITMAP
0FFE00
0FFE00
0FFE00
0F1E00
0F1E00
0F1E00
0E1FFE
1E1FFE
1E1FFF
1E1E0F
1E1E0F
3E1E0F
FC1E0F
F81E0F
E01E0F
00001F
00007E
00007E
000078
ENDCHAR
STARTCHAR 0521
ENCODING 1313
SWIDTH 1047 0
DWIDTH 22 0
BBX 20 16 1 -5
BITMAP
1FF800
1FF800
1C7800
1C7800
1C7F80
1C7FE0
3C7FE0
3C78E0
FC78F0
F878F0
E078F0
0000F0
0000E0
0007E0
0007C0
000700
ENDCHAR
STARTCHAR 0522
ENCODING 1314
SWIDTH 1285 0
DWIDTH 27 0
BBX 23 19 2 -4
BITMAP
F03C00
F03C00
F03C00
F03C00
F03C00
F03C00
FFFFFC
FFFFFE
FFFFFE
F03C1E
F03C1E
F03C1E
F03C1E
F03C1E
F03C1E
00001E
0000FC
0000FC
0000F0
ENDCHAR
STARTCHAR 0523
ENCODING 1315
SWIDTH 1000 0
DWIDTH 21 0
BBX 18 16 2 -5
BITMAP
E1E000
E1E000
E1E000
E1E000
FFFE00
FFFF80
E1FF80
E1E3C0
E1E3C0
E1E3C0
E1E3C0
0003C0
0003C0
000F80
000F00
000C00
ENDCHAR
STARTCHAR 0524
ENCODING 1316
SWIDTH 952 0
DWIDTH 20 0
BBX 18 18 2 -3
BITMAP
FFFC00
FFFC00
FFFC00
F03C00
F03C00
F03C00
F03C00
F03C00
F03C00
F03C00
F03C00
F03C00
F03FC0
F03FC0
F03FC0
0003C0
0003C0
0003C0
ENDCHAR
STARTCHAR 0525
ENCODING 1317
SWIDTH 809 0
DWIDTH 17 0
BBX 14 14 2 -3
BITMAP
FFE0
FFE0
E1E0
E1E0
E1E0
E1E0
E1E0
E1E0
E1E0
E1FC
E1FC
001C
001C
001C
ENDCHAR
STARTCHAR 0531
ENCODING 1329
SWIDTH 809 0
DWIDTH 17 0
BBX 13 16 2 -1
BITMAP
E078
E078
E078
E078
E078
E078
E078
E078
E178
E3F8
F7F8
F3F0
7FF8
7FF8
1FF8
0010
ENDCHAR
STARTCHAR 0532
ENCODING 1330
SWIDTH 714 0
DWIDTH 15 0
BBX 12 16 2 0
BITMAP
0E00
3FC0
7FE0
F9E0
F0E0
E0F0
E0F0
E000
E000
FFF0
FFF0
E000
E000
E000
E000
E000
ENDCHAR
STARTCHAR 0533
ENCODING 1331
SWIDTH 714 0
DWIDTH 15 0
BBX 14 16 1 0
BITMAP
0E00
3F80
7FC0
F1E0
E0E0
E0E0
E0F0
E0F0
F0F0
7FFC
3FFC
00F0
00F0
00F0
00F0
00F0
ENDCHAR
STARTCHAR 0534
ENCODING 1332
SWIDTH 714 0
DWIDTH 15 0
BBX 15 16 0 0
BITMAP
0700
3FC0
3FE0
78F0
70F0
7070
F070
0070
0070
007E
007E
0070
0070
0070
0070
0070
ENDCHAR
STARTCHAR 0535
ENCODING 1333
SWIDTH 714 0
DWIDTH 15 0
BBX 12 15 2 0
BITMAP
E000
E000
E000
E000
FFF0
FFF0
E000
E000
E000
E0F0
E0F0
F0E0
FFE0
7FC0
3F80
ENDCHAR
STARTCHAR 0536
ENCODING 1334
SWIDTH 714 0
DWIDTH 15 0
BBX 13 16 1 0
BITMAP
0700
1FC0
3FF0
78F0
7078
F078
F078
F078
0078
0070
00F0
00E0
73E0
7FF8
7FF8
7FF8
ENDCHAR
STARTCHAR 0537
ENCODING 1335
SWIDTH 666 0
DWIDTH 14 0
BBX 11 15 2 0
BITMAP
E000
E000
E000
E000
FFE0
FFE0
E000
E000
E000
E000
E000
E000
FFC0
FFC0
FFC0
ENDCHAR
STARTCHAR 0538
ENCODING 1336
SWIDTH 714 0
DWIDTH 15 0
BBX 12 16 2 0
BITMAP
0E00
3FC0
7FE0
F9E0
F0E0
E0F0
E0F0
E000
E000
E000
E000
E000
E000
FFF0
FFF0
FFF0
ENDCHAR
STARTCHAR 0539
ENCODING 1337
SWIDTH 904 0
DWIDTH 19 0
BBX 17 16 2 0
BITMAP
038000
1FF000
7FF800
7C7C00
F01E00
E01E00
E00E00
E1FF80
E3FF80
E78E00
E78E00
E78E00
E78E00
E39E00
E3FC00
E1F800
ENDCHAR
STARTCHAR 053A
ENCODING 1338
SWIDTH 714 0
DWIDTH 15 0
BBX 14 15 1 0
BITMAP
00F0
00F0
00F0
00F0
3FFC
7FFC
F0F0
F0F0
E0F0
E0E0
E0E0
F1E0
FFE0
7FC0
3F80
ENDCHAR
STARTCHAR 053B
ENCODING 1339
SWIDTH 666 0
DWIDTH 14 0
BBX 12 15 2 0
BITMAP
E000
E000
E000
EF00
FFC0
FFE0
F1E0
F0E0
E0F0
E0F0
E000
E000
E000
E000
E000
ENDCHAR
STARTCHAR 053C
ENCODING 1340
SWIDTH 571 0
DWIDTH 12 0
BBX 10 15 2 0
BITMAP
E000
E000
E000
E000
E000
E000
E000
E000
E000
E000
E000
E000
FFC0
FFC0
FFC0
ENDCHAR
STARTCHAR 053D
ENCODING 1341
SWIDTH 952 0
DWIDTH 20 0
BBX 17 15 2 0
BITMAP
E00000
E00000
E00000
E00000
FFC780
FFC780
E3C780
E3C780
E3C780
E3C780
E3C780
E3C700
E1FF00
E1FE00
E0FC00
ENDCHAR
STARTCHAR 053E
ENCODING 1342
SWIDTH 809 0
DWIDTH 17 0
BBX 14 16 1 0
BITMAP
0060
F3FC
F7FC
FF8C
FFE4
FFF8
3878
783C
783C
781C
781C
783C
383C
3C78
1FF0
0FE0
ENDCHAR
STARTCHAR 053F
ENCODING 1343
SWIDTH 714 0
DWIDTH 15 0
BBX 11 15 2 0
BITMAP
E000
E000
E000
E000
E0E0
E0E0
E0E0
F1E0
FFE0
7FE0
3FE0
00E0
00E0
00E0
00E0
ENDCHAR
STARTCHAR 0540
ENCODING 1344
SWIDTH 666 0
DWIDTH 14 0
BBX 12 16 0 -1
BITMAP
03C0
01E0
01F0
01F0
07F0
0FC0
3F00
7C00
F800
F800
FF00
7FE0
1FF0
03F0
00F0
0010
ENDCHAR
STARTCHAR 0541
ENCODING 1345
SWIDTH 714 0
DWIDTH 15 0
BBX 13 17 1 -1
BITMAP
0700
1FC0
3FF0
78F0
7078
F078
F078
0078
0078
0078
3F70
7FF0
F3E0
F3F0
7FF8
3F70
0020
ENDCHAR
STARTCHAR 0542
ENCODING 1346
SWIDTH 714 0
DWIDTH 15 0
BBX 15 16 0 0
BITMAP
0700
3FC0
7FE0
79F0
70F0
F070
F070
0070
0070
0070
0070
0070
0070
007E
007E
007E
ENDCHAR
STARTCHAR 0543
ENCODING 1347
SWIDTH 714 0
DWIDTH 15 0
BBX 14 15 0 0
BITMAP
1E78
1FF8
0FF0
0FC0
0F80
1FC0
1FC0
3DE0
38F0
78F0
7078
7078
FFFC
7FFC
7FFC
ENDCHAR
STARTCHAR 0544
ENCODING 1348
SWIDTH 761 0
DWIDTH 16 0
BBX 14 15 2 0
BITMAP
E0FC
E0FC
E0F0
E0F0
E0F0
E0F0
E0F0
E0F0
E0F0
E0F0
E0F0
F0E0
FFE0
7FC0
3F80
ENDCHAR
STARTCHAR 0545
ENCODING 1349
SWIDTH 666 0
DWIDTH 14 0
BBX 13 16 1 0
BITMAP
0700
1FC0
3FE0
78F0
78F0
00F0
01E0
FFC0
FFE0
00F0
0070
F078
F070
78F0
3FE0
1FC0
ENDCHAR
STARTCHAR 0546
ENCODING 1350
SWIDTH 714 0
DWIDTH 15 0
BBX 15 15 0 0
BITMAP
FC00
FC00
1C00
1C00
1C00
1C00
1C00
1C00
1C00
1C1E
1C1E
1E1C
1FFC
0FF8
07F0
ENDCHAR
STARTCHAR 0547
ENCODING 1351
SWIDTH 714 0
DWIDTH 15 0
BBX 13 15 1 0
BITMAP
7F80
7FE0
0FF0
1FF0
3870
7010
F000
F000
F078
F078
F078
7070
7CF0
3FE0
1FC0
ENDCHAR
STARTCHAR 0548
ENCODING 1352
SWIDTH 714 0
DWIDTH 15 0
BBX 12 16 2 0
BITMAP
0E00
3FC0
7FE0
F9E0
F0E0
E0F0
E0F0
E0F0
E0F0
E0F0
E0F0
E0F0
E0F0
E0F0
E0F0
E0F0
ENDCHAR
STARTCHAR 0549
ENCODING 1353
SWIDTH 666 0
DWIDTH 14 0
BBX 12 17 1 -1
BITMAP
0600
3FC0
7FE0
F0F0
F0F0
E070
E070
E070
0070
00F0
30E0
3FC0
3F00
3F80
0F80
0380
0080
ENDCHAR
STARTCHAR 054A
ENCODING 1354
SWIDTH 857 0
DWIDTH 18 0
BBX 17 16 0 0
BITMAP
01C000
0FF800
3FFE00
7FFF00
79CF00
F1C700
F1C780
01C780
01C780
01C780
01C780
000780
000780
000780
000780
000780
ENDCHAR
STARTCHAR 054B
ENCODING 1355
SWIDTH 714 0
DWIDTH 15 0
BBX 13 16 1 0
BITMAP
0700
3FC0
7FE0
78F0
F070
F078
F078
FE78
7F78
1FF0
03F0
01E0
F3C0
FFF0
FFF0
FFF0
ENDCHAR
STARTCHAR 054C
ENCODING 1356
SWIDTH 761 0
DWIDTH 16 0
BBX 14 16 2 0
BITMAP
0E00
3FC0
7FE0
F9E0
F0E0
E0F0
E0F0
E0F0
E0F0
E0FC
E0FC
E0F0
E0F0
E0F0
E0F0
E0F0
ENDCHAR
STARTCHAR 054D
ENCODING 1357
SWIDTH 714 0
DWIDTH 15 0
BBX 13 15 2 0
BITMAP
F078
F078
F078
F078
F078
F078
F078
F078
F078
F078
F078
F078
78F0
7FF0
1FC0
ENDCHAR
STARTCHAR 054E
ENCODING 1358
SWIDTH 714 0
DWIDTH 15 0
BBX 15 15 0 0
BITMAP
0070
0070
0070
0070
0070
F070
F070
70F0
7FF0
3FF0
1FF0
0070
007E
007E
007E
ENDCHAR
STARTCHAR 054F
ENCODING 1359
SWIDTH 714 0
DWIDTH 15 0
BBX 12 16 1 0
BITMAP
0700
3FC0
3FE0
78E0
70F0
7800
7E00
3FC0
1FE0
07F0
00F0
F070
F070
78F0
3FE0
1FC0
ENDCHAR
STARTCHAR 0550
ENCODING 1360
SWIDTH 666 0
DWIDTH 14 0
BBX 12 16 2 0
BITMAP
0E00
3FC0
7FE0
F9E0
F0E0
E0F0
E0F0
E000
E000
E000
E000
E000
E000
E000
E000
E000
ENDCHAR
STARTCHAR 0551
ENCODING 1361
SWIDTH 714 0
DWIDTH 15 0
BBX 13 16 1 0
BITMAP
0700
1FC0
3FE0
78F0
78F0
78F0
3DE0
FFC0
FFE0
00F0
0070
F078
F070
78F0
3FE0
1FC0
ENDCHAR
STARTCHAR 0552
ENCODING 1362
SWIDTH 571 0
DWIDTH 12 0
BBX 10 15 2 0
BITMAP
E000
E000
E000
E000
FFC0
FFC0
E000
E000
E000
E000
E000
E000
E000
E000
E000
ENDCHAR
STARTCHAR 0553
ENCODING 1363
SWIDTH 857 0
DWIDTH 18 0
BBX 17 15 0 0
BITMAP
01E000
03F000
1FFC00
3FFF00
7DEF00
79E780
71E780
F1E780
71E780
79E780
7FFF00
3FFE00
1FFC00
01E000
01E000
ENDCHAR
STARTCHAR 0554
ENCODING 1364
SWIDTH 714 0
DWIDTH 15 0
BBX 14 16 0 0
BITMAP
0380
0FF0
1FF8
3C78
3C38
383C
383C
3C38
3FF8
3FF0
3FE0
3800
FFF8
FFF8
FFF8
3800
ENDCHAR
STARTCHAR 0555
ENCODING 1365
SWIDTH 761 0
DWIDTH 16 0
BBX 16 15 1 0
BITMAP
07E0
1FF8
3C3C
781E
781E
F00F
F00F
F00F
F00F
F00F
781E
781E
3C3C
1FF8
07E0
ENDCHAR
STARTCHAR 0556
ENCODING 1366
SWIDTH 857 0
DWIDTH 18 0
BBX 16 15 1 0
BITMAP
3FC0
7FC0
73C0
7BC0
7FFC
3FFE
03DF
03CF
03C7
F3C7
F3C7
F3CF
7FFF
3FFE
1FF8
ENDCHAR
STARTCHAR 0559
ENCODING 1369
SWIDTH 333 0
DWIDTH 7 0
BBX 3 6 2 10
BITMAP
60
60
C0
C0
60
20
ENDCHAR
STARTCHAR 055A
ENCODING 1370
SWIDTH 333 0
DWIDTH 7 0
BBX 4 6 1 9
BITMAP
70
70
70
70
60
E0
ENDCHAR
STARTCHAR 055B
ENCODING 1371
SWIDTH 285 0
DWIDTH 6 0
BBX 6 4 0 13
BITMAP
3C
38
70
F0
ENDCHAR
STARTCHAR 055C
ENCODING 1372
SWIDTH 380 0
DWIDTH 8 0
BBX 8 7 0 12
BITMAP
03
07
1E
7E
70
C0
C0
ENDCHAR
STARTCHAR 055D
ENCODING 1373
SWIDTH 333 0
DWIDTH 7 0
BBX 6 5 0 13
BITMAP
F0
70
78
38
1C
ENDCHAR
STARTCHAR 055E
ENCODING 1374
SWIDTH 476 0
DWIDTH 10 0
BBX 10 6 0 12
BITMAP
3F80
7F80
61C0
CFC0
CF80
0700
ENDCHAR
STARTCHAR 055F
ENCODING 1375
SWIDTH 476 0
DWIDTH 10 0
BBX 8 6 1 13
BITMAP
60
60
60
40
FF
FF
ENDCHAR
STARTCHAR 0561
ENCODING 1377
SWIDTH 952 0
DWIDTH 20 0
BBX 17 11 1 0
BITMAP
F1C380
F1C380
F1C380
F1C380
F1C380
F1C380
F1C380
71E780
7FFF80
7EFF80
3CFB80
ENDCHAR
STARTCHAR 0562
ENCODING 1378
SWIDTH 619 0
DWIDTH 13 0
BBX 10 16 2 -4
BITMAP
0700
EF80
FFC0
F3C0
E1C0
E1C0
E1C0
E000
E000
FFC0
FFC0
FFC0
E000
E000
E000
E000
ENDCHAR
STARTCHAR 0563
ENCODING 1379
SWIDTH 714 0
DWIDTH 15 0
BBX 14 16 1 -4
BITMAP
1C00
7EE0
7FE0
F1E0
E1E0
E0E0
E0E0
E0E0
F1E0
FBFC
7FFC
3EFC
00E0
00E0
00E0
00E0
ENDCHAR
STARTCHAR 0564
ENCODING 1380
SWIDTH 714 0
DWIDTH 15 0
BBX 13 16 2 -4
BITMAP
0700
FF80
FFC0
F3C0
E1C0
E1C0
E1C0
E1C0
E1C0
E1F8
E1F8
E1F8
01C0
01C0
01C0
01C0
ENDCHAR
STARTCHAR 0565
ENCODING 1381
SWIDTH 619 0
DWIDTH 13 0
BBX 11 16 1 0
BITMAP
F000
F000
F000
F000
F000
FFE0
FFE0
F000
F000
F0E0
F0E0
F1E0
71E0
7BE0
7EE0
3CE0
ENDCHAR
STARTCHAR 0566
ENCODING 1382
SWIDTH 666 0
DWIDTH 14 0
BBX 14 16 1 -4
BITMAP
1C00
7EE0
7FE0
F1E0
E1E0
E0E0
E0E0
E0E0
F1E0
FBE0
7FE0
3EE0
00E0
00E0
00FC
00FC
ENDCHAR
STARTCHAR 0567
ENCODING 1383
SWIDTH 571 0
DWIDTH 12 0
BBX 9 16 2 0
BITMAP
E000
E000
E000
E000
E000
FF80
FF80
E000
E000
E000
E000
E000
E000
FF00
FF00
FF00
ENDCHAR
STARTCHAR 0568
ENCODING 1384
SWIDTH 619 0
DWIDTH 13 0
BBX 10 16 2 -4
BITMAP
0700
FF80
FFC0
F3C0
E1C0
E1C0
E1C0
E1C0
E1C0
E1C0
E1C0
E1C0
E000
E000
FFC0
FFC0
ENDCHAR
STARTCHAR 0569
ENCODING 1385
SWIDTH 761 0
DWIDTH 16 0
BBX 14 16 2 -4
BITMAP
0780
EFE0
FFE0
F0F0
E070
E078
E7FC
EFFC
EE70
EE70
EFE0
E7C0
E000
E000
E000
E000
ENDCHAR
STARTCHAR 056A
ENCODING 1386
SWIDTH 714 0
DWIDTH 15 0
BBX 14 16 1 0
BITMAP
00E0
00E0
00E0
00E0
00E0
7FFC
7FFC
F0E0
E0E0
E0E0
E0E0
E0E0
F1E0
FBC0
7FC0
3F80
ENDCHAR
STARTCHAR 056B
ENCODING 1387
SWIDTH 666 0
DWIDTH 14 0
BBX 10 20 2 -4
BITMAP
E000
E000
E000
E000
E700
FF80
FFC0
F3C0
E1C0
E1C0
E1C0
E1C0
E1C0
E1C0
E1C0
E1C0
E000
E000
E000
E000
ENDCHAR
STARTCHAR 056C
ENCODING 1388
SWIDTH 333 0
DWIDTH 7 0
BBX 7 15 2 -4
BITMAP
E0
E0
E0
E0
E0
E0
E0
E0
E0
E0
E0
E0
E0
FE
FE
ENDCHAR
STARTCHAR 056D
ENCODING 1389
SWIDTH 1000 0
DWIDTH 21 0
BBX 17 20 2 -4
BITMAP
E00000
E00000
E00000
E00000
E70000
FF8380
FFC380
F3C380
E1C380
E1C380
E1C380
E1C380
E1C780
E1EF80
E1FF80
E0FB80
E00000
E00000
E00000
E00000
ENDCHAR
STARTCHAR 056E
ENCODING 1390
SWIDTH 619 0
DWIDTH 13 0
BBX 12 16 1 0
BITMAP
1E00
1E00
3C00
3E00
1F00
3FF0
7FF0
F1E0
F1E0
E0E0
E0E0
E0E0
F1E0
FBE0
7FC0
3F80
ENDCHAR
STARTCHAR 056F
ENCODING 1391
SWIDTH 666 0
DWIDTH 14 0
BBX 11 20 1 -4
BITMAP
F000
F000
F000
F000
F000
F0E0
F0E0
F0E0
F0E0
F0E0
F0E0
F1E0
71E0
7BE0
7EE0
3CE0
00E0
00E0
00E0
00E0
ENDCHAR
STARTCHAR 0570
ENCODING 1392
SWIDTH 666 0
DWIDTH 14 0
BBX 10 16 2 0
BITMAP
E000
E000
E000
E000
E700
FF80
FFC0
F3C0
E1C0
E1C0
E1C0
E1C0
E1C0
E1C0
E1C0
E1C0
ENDCHAR
STARTCHAR 0571
ENCODING 1393
SWIDTH 619 0
DWIDTH 13 0
BBX 10 16 1 0
BITMAP
3800
3800
7800
3E00
3E00
1E00
3F00
7F80
73C0
E1C0
E1C0
E1C0
E3C0
FFC0
FFC0
7DC0
ENDCHAR
STARTCHAR 0572
ENCODING 1394
SWIDTH 666 0
DWIDTH 14 0
BBX 13 16 2 -4
BITMAP
0700
FF80
FFC0
F3C0
E1C0
E1C0
E1C0
E1C0
E1C0
E1C0
E1C0
E1C0
01C0
01C0
01F8
01F8
ENDCHAR
STARTCHAR 0573
ENCODING 1395
SWIDTH 619 0
DWIDTH 13 0
BBX 11 16 1 0
BITMAP
01E0
07E0
0FE0
1E00
1C00
FF80
FFC0
73C0
71E0
F0E0
F0E0
F0E0
F1E0
7BE0
7FE0
3EE0
ENDCHAR
STARTCHAR 0574
ENCODING 1396
SWIDTH 666 0
DWIDTH 14 0
BBX 14 16 1 0
BITMAP
00FC
00FC
00FC
00E0
00E0
F0E0
F0E0
F0E0
F0E0
F0E0
F0E0
F1E0
71E0
7BE0
7EE0
3CE0
ENDCHAR
STARTCHAR 0575
ENCODING 1397
SWIDTH 285 0
DWIDTH 6 0
BBX 6 16 -1 -5
BITMAP
1C
1C
1C
1C
1C
1C
1C
1C
1C
1C
1C
1C
3C
F8
F8
E0
ENDCHAR
STARTCHAR 0576
ENCODING 1398
SWIDTH 666 0
DWIDTH 14 0
BBX 13 16 -1 0
BITMAP
FC00
FC00
FC00
3C00
3C00
3C38
3C38
3C38
3C38
3C38
3C38
3C78
1C78
1EF8
1FB8
0F38
ENDCHAR
STARTCHAR 0577
ENCODING 1399
SWIDTH 476 0
DWIDTH 10 0
BBX 10 16 0 -4
BITMAP
3E00
7F00
7F80
4380
03C0
03C0
0380
0780
0F00
1E00
3C00
7800
7000
F000
FF80
7F80
ENDCHAR
STARTCHAR 0578
ENCODING 1400
SWIDTH 666 0
DWIDTH 14 0
BBX 10 12 2 0
BITMAP
0700
FF80
FFC0
F3C0
E1C0
E1C0
E1C0
E1C0
E1C0
E1C0
E1C0
E1C0
ENDCHAR
STARTCHAR 0579
ENCODING 1401
SWIDTH 380 0
DWIDTH 8 0
BBX 8 15 0 -4
BITMAP
38
70
70
78
3C
1C
1C
3C
78
70
70
F0
F0
FF
7F
ENDCHAR
STARTCHAR 057A
ENCODING 1402
SWIDTH 952 0
DWIDTH 20 0
BBX 17 15 1 -4
BITMAP
F1C380
F1C380
F1C380
F1C380
F1C380
F1C380
F1C380
71E780
7FEF80
7EFF80
3CFB80
000380
000380
000380
000380
ENDCHAR
STARTCHAR 057B
ENCODING 1403
SWIDTH 571 0
DWIDTH 12 0
BBX 10 16 1 -4
BITMAP
1E00
7F80
FFC0
F3C0
E1C0
F1C0
73C0
7780
3F80
3F00
3C00
7800
F000
F000
FFC0
FFC0
ENDCHAR
STARTCHAR 057C
ENCODING 1404
SWIDTH 666 0
DWIDTH 14 0
BBX 11 12 2 0
BITMAP
0700
FF80
FFC0
F3C0
E1C0
E1C0
E1C0
E1C0
E380
E7E0
E7E0
E7E0
ENDCHAR
ENDFONT
